<?xml version="1.0" encoding="utf-8"?>
<!-- Generator: Adobe Illustrator 19.2.0, SVG Export Plug-In . SVG Version: 6.00 Build 0)  -->
<svg version="1.1" id="Layer_1" xmlns="http://www.w3.org/2000/svg" xmlns:xlink="http://www.w3.org/1999/xlink" x="0px" y="0px"
	 viewBox="0 0 1395 1600" style="enable-background:new 0 0 1395 1600;" xml:space="preserve">
<g id="layer101">
	<path d="M163,1500.5V1469h78.4h78.4l0.6-2.7c0.3-1.6,0.8-7.5,1.2-13.3c0.4-5.8,1.5-13.4,2.6-17c3.6-12,13.1-25.1,21.2-28.9
		c10.8-5.3,12.1-5.4,99.4-5.8l81.2-0.4v-416V569h163.5H853v415.9v416l82.3,0.4c89.1,0.4,88.3,0.3,97.9,5.9
		c5.8,3.5,14,12.3,17.2,18.6c3.5,6.9,6.4,18.1,7.1,27.7c0.3,4.4,0.8,9.7,1.1,11.8l0.6,3.7h77.9h77.9v31.5v31.5H689H163V1500.5z"/>
	<path d="M309,680c-27.8-0.3-51.5-1-52.7-1.4c-1.3-0.5-4.6-4.4-7.5-9c-4.5-7.1-21.6-33.2-34.3-52.6c-9.8-14.9-29.8-45.6-43-66
		c-2.3-3.6-8.2-12.6-13-20s-11.3-17.3-14.3-22c-10.9-16.8-16.6-25.6-21.2-32.5c-2.6-3.9-4.9-7.5-5.1-8c-0.2-0.6-3.8-6.1-7.9-12.2
		l-7.5-11.3H75.3H48v-23v-23h72.5H193v-64.4v-64.4l6.3-5.3c3.4-3,6.4-5.6,6.7-5.9s3.7-3.2,7.5-6.5c3.9-3.3,7.2-6.3,7.5-6.6
		s8.8-7.7,19-16.4c10.2-8.8,19-16.4,19.5-17c0.6-0.6,3.9-3.6,7.5-6.6c3.6-2.9,6.7-5.6,7-5.9c0.3-0.3,3.7-3.2,7.5-6.5
		c3.9-3.3,7.5-6.4,8.1-7c3.9-3.6,9.3-8.2,19.4-16.9c11.2-9.7,23.2-20.1,25.4-22.1c0.6-0.5,4.3-3.7,8.1-7c3.9-3.3,7.2-6.2,7.5-6.5
		s3.7-3.2,7.5-6.5c3.9-3.3,7.5-6.4,8.1-7c2.5-2.2,8.3-7.3,14.9-13c3.9-3.3,7.2-6.2,7.5-6.5s3.6-3.2,7.5-6.5c3.8-3.3,8.3-7.2,10-8.7
		c1.6-1.4,4.8-4.2,6.9-6.1l3.9-3.4l17.1-0.5l17.1-0.5l2.5-3.4c4.5-6.1,11.6-12.4,17.3-15.2c7.1-3.6,19.3-4.7,50.7-4.7
		c28.9,0.1,41.5,1.2,48.3,4.3c15.3,7,24.7,24,21.6,38.8c-2.7,12.8-12.2,25.2-21.5,28.2c-10.4,3.3-21.6,3.9-61.4,3.2l-38.5-0.7
		L459,115c-11.7-12-13.7-13.1-21-10.5c-4.1,1.4-15.8,8-17,9.5c-0.3,0.4-3.2,2.6-6.5,5s-7.4,5.5-9,6.9c-1.7,1.4-4.8,4-6.9,5.6
		c-2.1,1.7-4.4,3.5-5,4c-0.6,0.6-4.3,3.7-8.1,7c-3.8,3.3-8.1,7-9.5,8.2s-9.5,8.1-18,15.4s-15.7,13.5-16,13.8
		c-0.3,0.4-3.6,3.3-7.5,6.6c-3.8,3.3-7.2,6.2-7.5,6.5s-5.2,4.5-11,9.4s-10.9,9.4-11.5,10.1c-0.5,0.6-8.9,7.9-18.5,16.2
		c-42.6,36.8-51.9,44.9-58.2,50.6l-6.8,6v56.8V399h470h470v-53.9v-53.9l-6.7-5.8c-3.8-3.2-7.2-6.2-7.8-6.8c-0.5-0.6-9.1-8.1-19-16.6
		c-20-17.2-55.4-47.8-60-51.9c-1.6-1.4-9.5-8.2-17.5-15.1c-8-6.9-15-12.9-15.6-13.5c-0.6-0.5-3.7-3.2-6.9-6c-3.2-2.7-6.3-5.4-6.9-6
		c-4.2-3.8-35-29.8-50.1-42.4c-5-4.1-19.4-13.8-22.8-15.4c-2.2-1-6.2-1.7-9.5-1.7c-4.8,0-6.2,0.5-8.9,2.9c-1.8,1.6-3.3,3.3-3.3,3.8
		c0,1.6-8.9,10.3-11.8,11.4c-10.6,4.2-13.1,4.4-58.7,4.2l-44-0.2l-8-8.3c-11-11.3-11.9-13.4-11.9-28.3c0-11.2,0.2-12.3,2.7-17
		c1.6-2.7,5.9-8.1,9.6-11.9l6.9-6.9l35.3-0.9c46.7-1.3,62.3,0.1,71.2,6.4c3.4,2.4,8.7,7.8,8.7,8.9c0,0.3,1,1.8,2.3,3.2
		c3,3.6,8.7,4.6,24.4,4.7c9.5,0,13.4,0.4,14,1.3c0.4,0.6,8.7,8,18.3,16.2c9.6,8.3,18.2,15.7,19,16.5c0.9,0.8,4.5,4,8,7
		c7.2,6.1,29.2,25.2,30,26c0.3,0.3,5.5,4.8,11.5,10c12.5,10.7,77.4,67.1,82,71.1c1.7,1.5,10.2,8.9,19,16.5s16.5,14.3,17.1,14.9
		c0.6,0.5,4.8,4.2,9.2,8l8.1,7l0.1,61.3V399h71h71v23v23h-26.3h-26.4l-3.8,5.8c-2.1,3.1-4.8,7.3-6.1,9.2
		c-1.9,3.1-9.4,14.5-32.9,50.5c-23.2,35.5-33.7,51.5-44.7,68.5c-3,4.7-9,13.9-13.4,20.5c-4.3,6.6-8.1,12.5-8.4,13
		c-0.6,1.2-5.3,8.4-15.5,24c-8.9,13.6-21.2,32.5-25.1,38.6l-2.9,4.6l-41.9,0.6c-23.1,0.4-77.2,0.7-120.3,0.7H885v-56v-56h119h119
		v-62.1v-62.2l-9.2,0.7c-5.1,0.4-10.7,0.9-12.4,1.2l-3.1,0.6l-0.7,39.6c-0.4,21.9-0.9,42.7-1.3,46.5l-0.6,6.7H689.5
		c-369.6,0-406.3-0.1-406.9-1.6c-0.3-0.9-0.6-11.6-0.6-23.8c0-12.3-0.3-32.5-0.7-44.9l-0.6-22.7h-11.2h-11.3l-0.6,31.8
		c-0.3,17.4-0.9,44.9-1.2,61l-0.6,29.2h120.6H497v55.5V680h-32.8c-18.1,0-49,0.2-68.8,0.4C375.7,680.6,336.8,680.4,309,680z"/>
</g>
</svg>
