<svg id="Layer_1" data-name="Layer 1" xmlns="http://www.w3.org/2000/svg" viewBox="0 0 198.43 61.05"><title>EUROBANK-RGB</title><path d="M212.76,58.35a13,13,0,0,0-13-13H40.09V71.61a13,13,0,0,0,13,13H212.76V58.35Z" transform="translate(-14.33 -23.57)" style="fill:#fff"/><path d="M210.8,82.65H53.11A11,11,0,0,1,42,71.61V47.3H199.73a11.07,11.07,0,0,1,11.07,11V82.65Z" transform="translate(-14.33 -23.57)" style="fill:#023f88"/><path d="M94.15,73.46a6.12,6.12,0,0,1-4.52,2.12c-2.77,0-4.85-1.83-4.85-5.44v-9.2h3.8v8.66c0,2,.88,3.33,2.7,3.33,1.31,0,2.86-.93,2.86-3.53V60.94h3.8v14.3h-3.8V73.46Z" transform="translate(-14.33 -23.57)" style="fill:#fff"/><path d="M169.43,62.72a6.74,6.74,0,0,1,4.83-2.11c2.77,0,5.14,1.84,5.14,5.44v9.2h-3.79V66.6a3,3,0,0,0-3-3.32,3.2,3.2,0,0,0-3.16,3.51v8.45h-3.82V60.95h3.82v1.77Z" transform="translate(-14.33 -23.57)" style="fill:#fff"/><path d="M106.12,63.47h0.06s1.42-2.86,3.2-2.86A3.71,3.71,0,0,1,112,61.9l-1.42,2.63a3.5,3.5,0,0,0-1.81-.49c-1.3,0-2.6,1-2.59,4.15v7.05h-3.8V60.95h3.8v2.52Z" transform="translate(-14.33 -23.57)" style="fill:#fff"/><polygon points="169.39 30.67 173.22 30.67 173.22 43.03 173.43 43.03 178.43 37.09 181.95 37.08 176.52 43.56 183.06 51.67 178.68 51.67 173.27 44.14 173.22 44.14 173.22 51.67 169.39 51.67 169.39 30.67" style="fill:#fff"/><path d="M77,72.56c-2.8,0-3.6-1.08-3.6-2.67V66.1H80V63.42H73.41v-5.5h6.72V55.25H69.37v15c0,2.64,1.38,5,4.55,5h7.45V72.56H77Z" transform="translate(-14.33 -23.57)" style="fill:#fff"/><path d="M153.35,75.59c-3.1,0-4.63-1.93-4.64-4,0-3.24,2-4.62,5.29-5.56l3.33-1a2.53,2.53,0,0,0-2.55-2.16A5.46,5.46,0,0,0,151,64.36l-1.24-1.8a8.11,8.11,0,0,1,5.51-2c2.64,0,5.88.87,5.88,5.33v5.83a8.14,8.14,0,0,0,.59,3.48h-4.05a6.82,6.82,0,0,1-.35-2.08s-1.57,2.42-4,2.42m-32.85,0A7.49,7.49,0,1,0,113,68.11a7.49,7.49,0,0,0,7.51,7.48m19.23-15a5.73,5.73,0,0,0-4.49,2.33h0V54.24h-3.81v21h3.81V73.46a6,6,0,0,0,4.53,2.12c3.53,0,6.39-3.36,6.39-7.48s-2.86-7.51-6.39-7.51m15.52,7.06c-1.85.57-2.81,1.67-2.81,3.3a1.88,1.88,0,0,0,1.65,2.11c1.63,0,3.33-1.64,3.27-6.08Zm-34.74-4.94c2,0,3.46,1.85,3.46,5.38s-1.43,5.37-3.46,5.37S117,71.64,117,68.1s1.44-5.38,3.46-5.38m18.17,0c2,0,3.44,1.85,3.44,5.38s-1.43,5.37-3.44,5.37-3.47-1.82-3.47-5.37,1.43-5.38,3.47-5.38" transform="translate(-14.33 -23.57)" style="fill:#fff"/><path d="M38.08,71A23.74,23.74,0,1,0,14.33,47.3,23.74,23.74,0,0,0,38.08,71" transform="translate(-14.33 -23.57)" style="fill:#fff"/><path d="M16.28,47.3a21.8,21.8,0,1,0,21.8-21.78A21.8,21.8,0,0,0,16.28,47.3" transform="translate(-14.33 -23.57)" style="fill:#d2232a"/><path d="M40.67,31.91a6.1,6.1,0,0,0-.93-0.44c-2.62-1-5.55.3-7.33,3L22.53,49.08A5.77,5.77,0,0,0,27.36,58H50.93l-4.55-5.39H26.75Z" transform="translate(-14.33 -23.57)" style="fill:#fff"/><path d="M43.68,43.77l-3.2,5H34L43,34.68,53.45,46.73a6.62,6.62,0,0,1,.37,8.75Z" transform="translate(-14.33 -23.57)" style="fill:#fff"/></svg>