<svg id="Layer_1" data-name="Layer 1" xmlns="http://www.w3.org/2000/svg" viewBox="0 0 335.45 264.83"><title>globe</title><path d="M53,97.11v70.62a8.83,8.83,0,0,0,8.83,8.83h53a8.83,8.83,0,0,0,8.83-8.83V132.41a8.83,8.83,0,0,0-8.83-8.83H88.28v17.66h17.65V158.9H70.62v-53h53V88.28H61.79A8.83,8.83,0,0,0,53,97.11Z" transform="translate(-52.97)" style="fill:#fff"/><path d="M141.24,97.11v70.62a8.83,8.83,0,0,0,8.83,8.83h35.31a26.54,26.54,0,0,0,26.48-26.48V114.76a26.54,26.54,0,0,0-26.48-26.48H150.07A8.83,8.83,0,0,0,141.24,97.11Zm17.66,8.82h26.48a8.83,8.83,0,0,1,8.83,8.83v35.31a8.83,8.83,0,0,1-8.83,8.82H158.9v-53Z" transform="translate(-52.97)" style="fill:#fff"/><path d="M273.52,88.28H238.35a8.82,8.82,0,0,0-8.83,8.82v79.45h17.66V105.93h26.35a9,9,0,0,1,9,9v17.39a9,9,0,0,1-9,9h-8.7V158.9h8.7a26.65,26.65,0,0,0,26.62-26.62V114.89A26.65,26.65,0,0,0,273.52,88.28Z" transform="translate(-52.97)" style="fill:#fff"/><path d="M361.93,88.28H326.62a8.83,8.83,0,0,0-8.83,8.82v79.45h17.66V105.93h26.48a8.83,8.83,0,0,1,0,17.66h-8.83v17.66h8.6a9.06,9.06,0,0,1,9.05,9.05v26.25h17.66V150.3a26.47,26.47,0,0,0-6.95-17.81A26.37,26.37,0,0,0,361.93,88.28Z" transform="translate(-52.97)" style="fill:#fff"/><path d="M211.86,0h17.66V17.66H211.86V0Z" transform="translate(-52.97)" style="fill:#fff"/><path d="M211.86,247.17h17.66v17.66H211.86V247.17Z" transform="translate(-52.97)" style="fill:#fff"/><path d="M120.82,45L133.3,32.54,145.79,45,133.3,57.51Z" transform="translate(-52.97)" style="fill:#fff"/><path d="M295.59,219.8l12.48-12.48,12.48,12.48-12.48,12.48Z" transform="translate(-52.97)" style="fill:#fff"/><path d="M120.82,219.8l12.48-12.48,12.48,12.48L133.3,232.29Z" transform="translate(-52.97)" style="fill:#fff"/><path d="M295.6,45l12.48-12.48L320.56,45,308.08,57.51Z" transform="translate(-52.97)" style="fill:#fff"/><path d="M164,76.8a79.34,79.34,0,0,1,112.19-1.2l1.2,1.2L290,64.44A97,97,0,0,0,152.83,63c-0.48.47-1,1-1.44,1.44Z" transform="translate(-52.97)" style="fill:#fff"/><path d="M277.38,188a79.34,79.34,0,0,1-112.19,1.2L164,188l-12.61,12.36a97,97,0,0,0,137.16,1.44l1.44-1.44Z" transform="translate(-52.97)" style="fill:#fff"/></svg>