<?xml version="1.0" encoding="utf-8"?>
<!-- Generator: Adobe Illustrator 19.2.0, SVG Export Plug-In . SVG Version: 6.00 Build 0)  -->
<svg version="1.1" id="Capa_1" xmlns="http://www.w3.org/2000/svg" xmlns:xlink="http://www.w3.org/1999/xlink" x="0px" y="0px"
	 viewBox="0 0 512 512" style="enable-background:new 0 0 512 512;" xml:space="preserve">
<style type="text/css">
	.st0{fill:#FFB33A;}
</style>
<g>
	<g>
		<path class="st0" d="M502,319.3c-55.2-37.9-128.3-55.3-154.3-60.5L334.8,152c-0.4-24-20.1-43.3-44.2-43.3
			c-23.8,0-42.9,18.3-44.1,41.9c0,0.4-0.1,0.8-0.1,1.3v63.3l-1,154.1l-16.2-12.5c-19.9-17.4-66.8-38.7-104.3,2.5
			c-4.1,4.5-4.5,11.1-0.9,16c1,1.5,26.4,36.9,66.7,75.1c5.1,4.9,13.3,4.6,18.1-0.5s4.6-13.3-0.5-18.1
			c-26.7-25.3-46.8-49.7-56.6-62.4c27.7-20.7,57.6,3.7,61,6.8c0.2,0.2,0.4,0.3,0.6,0.5l37.1,28.6c3.9,2.9,9.1,3.6,13.4,1.4
			c4.4-2.1,7.1-6.6,7.2-11.4l1.3-180v-62.7c0-0.1,0-0.2,0-0.4c0.3-10,8.4-17.9,18.5-17.9s18.5,8.3,18.5,18.5c0,0.5,0,1,0.1,1.6
			l14,116.9c0.6,5.7,5,10.2,10.6,11.1c0.8,0.1,87.3,15,149,55.2c2.3,14.9,7.5,59.4-2.8,100.5c-1.8,6.9,2.4,13.8,9.3,15.6
			c1,0.3,2.1,0.4,3.1,0.4c5.8,0,11-3.9,12.5-9.7c14-55.7,2.7-114.4,2.3-116.8C506.6,324.1,504.7,321.2,502,319.3z"/>
		<path class="st0" d="M109.1,12.6C49,12.6,0,61.4,0,121.6c0,60.1,48.9,109.1,109.1,109.1c54.2,0,99.5-38.8,107.8-92.3
			c0.8-5.5,1.3-11.2,1.3-16.7c0-7.1-5.8-12.9-12.9-12.9c-7.1,0-12.9,5.8-12.9,12.9c0,4.3-0.3,8.6-0.9,12.9
			c-6.2,40.2-41.7,70.5-82.4,70.5c-45.9,0-83.4-37.4-83.4-83.4S63,38.2,109.1,38.2c24.7,0,48,11,63.7,29.7l-61.2,60.8L77,94
			c-5-5-13.1-5-18.1-0.1c-5,5-5,13.1-0.1,18.1l43.5,43.9c2.4,2.4,5.7,3.8,9.1,3.8l0,0c3.3,0,6.6-1.4,9-3.8L253.1,24
			c5-5,5-13.1,0.1-18.1c-5-5-13.1-5-18.1-0.1L191,49.6C170.5,26.3,140.7,12.6,109.1,12.6z"/>
	</g>
</g>
</svg>
