<?xml version="1.0" encoding="utf-8"?>
<!-- Generator: Adobe Illustrator 19.2.0, SVG Export Plug-In . SVG Version: 6.00 Build 0)  -->
<svg version="1.1" id="Layer_1" xmlns="http://www.w3.org/2000/svg" xmlns:xlink="http://www.w3.org/1999/xlink" x="0px" y="0px"
	 viewBox="0 0 216 72" style="enable-background:new 0 0 216 72;" xml:space="preserve">
<style type="text/css">
	.st0{fill:#0D3C5F;}
	.st1{fill:#FFFFFF;}
	.st2{fill:#FFFFFF;stroke:#0D3C5F;stroke-width:0.3;}
</style>
<g id="Layer_1_1_">
	<g>
		<rect x="2.6" y="2.4" class="st0" width="68.9" height="67.6"/>
		<path class="st1" d="M47.7,54.6l-5.8-8.1c-3.9-5.4-8.1-5.4-12.6-5.4h-1.4H2v10.8h33.2H37c4.4,0,8.5,0,12.3,5l5.8,8.2
			c3.8,5.4,8.1,5.4,12.6,5.4h4V59.5H60C55.6,59.5,51.5,59.5,47.7,54.6"/>
		<path class="st1" d="M13.7,12.8c4.4,0,8.5,0,12.3,5l5.8,8.2c3.8,5.4,8.1,5.4,12.6,5.4h27.4V20.5H36.6c-4.4,0-8.5,0-12.3-5
			l-5.8-8.1C14.7,2,10.5,2,5.9,2H2v10.8h9.8H13.7z"/>
		<path class="st1" d="M36,35l-5.8-8.1c-3.8-5.4-8.1-5.4-12.6-5.4h-1.4H2v10.8h21.5h1.8c4.4,0,8.5,0,12.3,5l5.8,8.2
			c3.8,5.4,8.1,5.4,12.6,5.4h15.7V40H48.3C43.9,40,39.8,40,36,35"/>
		<path class="st1" d="M86.2,30l2.5-0.7c0.4-0.1,0.8-0.4,1-0.8c0.3-0.4,0.5-0.8,0.5-1.4v-6V7.6c0-0.3-0.1-0.6-0.2-0.9
			s-0.4-0.5-0.7-0.6l-2.8-1l0.2-0.9h18.6v5.4h-1.5c-0.2-1.1-0.5-1.9-0.9-2.5c-0.4-0.5-1.1-0.8-2-0.8h-7.2v10.3h9.8v2.2h-9.8v2.4v8
			h7.3c0.7,0,1.3-0.1,1.8-0.4c0.5-0.2,1-0.6,1.4-0.9c0.4-0.4,0.7-0.8,1-1.2c0.2-0.4,0.4-0.9,0.6-1.3l1.2,0.3l-0.7,5.5h-20L86.2,30z"
			/>
		<path class="st1" d="M189.2,30l2.5-0.7c0.4-0.1,0.8-0.4,1-0.8c0.3-0.4,0.5-0.8,0.5-1.4v-6V7.6c0-0.3-0.1-0.6-0.2-0.9
			c-0.1-0.3-0.4-0.5-0.7-0.6l-2.8-1l0.2-0.9h18.6v5.4h-1.5c-0.2-1.1-0.5-1.9-0.9-2.5c-0.4-0.5-1.1-0.8-2-0.8h-7.2v10.3h9.8v2.2h-9.8
			v2.4v8h7.3c0.7,0,1.3-0.1,1.8-0.4c0.5-0.2,1-0.6,1.4-0.9c0.4-0.4,0.7-0.8,1-1.2c0.2-0.4,0.4-0.9,0.6-1.3l1.2,0.3l-0.7,5.5h-20
			L189.2,30z"/>
		<path class="st1" d="M115.2,30.1l2.3-0.7c0.4-0.1,0.8-0.4,1-0.8c0.2-0.4,0.5-0.9,0.5-1.3v-5.9v-13c0-0.4-0.1-0.9-0.3-1.4
			c-0.2-0.5-0.5-0.8-0.8-0.9l-2.3-0.8l0.1-1h9.6l0.1,1.1l-1.8,0.4c-0.5,0.1-0.8,0.3-1.1,0.4c-0.2,0.1-0.3,0.5-0.3,1v14v8h6.7
			c1.3-0.2,2.3-0.8,3-1.5c0.7-0.7,1.2-1.5,1.5-2.3l1.1,0.3l-0.7,5.6h-18.6L115.2,30.1z"/>
		<path class="st1" d="M142.2,30.2l1.9-0.8c0.5-0.2,0.8-0.5,1-1c0.2-0.5,0.4-1,0.4-1.5v-5.6V8.7c0-0.6-0.1-1.1-0.4-1.7
			c-0.2-0.5-0.7-0.9-1.5-1.2l-1.5-0.6l0-1h9.6l0.1,1.1l-1.5,0.3c-0.6,0.1-1,0.5-1.2,1.1c-0.2,0.6-0.4,1.2-0.4,1.8v12.7v6.8
			c0,0.5,0.2,0.8,0.3,1c0.1,0.2,0.4,0.3,0.8,0.4l2.9,0.6l-0.2,1.3h-10.4L142.2,30.2z"/>
		<path class="st1" d="M165.1,30l2.7-0.7c0.2,0,0.4-0.2,0.6-0.4c0.2-0.2,0.3-0.4,0.5-0.6c0.1-0.2,0.2-0.5,0.3-0.8
			c0.1-0.3,0.1-0.5,0.1-0.8l0.1-5V6.3h-5.5c-0.9,0-1.6,0.3-2.1,1c-0.5,0.7-0.8,1.6-1,2.6l-1.2-0.1V4.3h22.9v5.5l-1.1,0.1
			c-0.2-1.1-0.6-2.1-1.1-2.7c-0.5-0.6-1.3-1-2.3-1h-5.2v15.6l0.2,6.2c0,0.4,0,0.7,0.1,0.9s0.3,0.3,0.6,0.4l3.5,0.7l-0.1,1.3h-11.8
			L165.1,30z"/>
		<path class="st1" d="M86.2,63.3h0.8v6.7h-0.8V63.3z M87.2,66.6v-0.2l2.6-3.1h1l-2.8,3.1l3,3.6h-1L87.2,66.6z"/>
		<path class="st1" d="M104.7,63.3h1.1l2.4,6.7h-0.8l-0.9-2.5h-2.7l-1,2.5H102L104.7,63.3z M106.3,66.9l-1-3l-1.2,3H106.3z"/>
		<polygon class="st1" points="120.2,63.3 120.9,63.3 120.9,69.4 123.9,69.4 123.9,70.1 120.2,70.1 		"/>
		<path class="st1" d="M137.5,63.3h1.1l2.4,6.7h-0.8l-0.9-2.5h-2.7l-1,2.5h-0.8L137.5,63.3z M139.1,66.9l-1-3l-1.2,3H139.1z"/>
		<polygon class="st1" points="153,63.3 154.1,63.3 156.4,69.6 158.9,63.3 160,63.3 160,70.1 159.2,70.1 159.2,65.2 159.2,64.2 
			156.9,70.1 155.8,70.1 153.7,64.2 153.8,65.3 153.8,70.1 153,70.1 		"/>
		<path class="st1" d="M174.6,63.3h1.1l2.4,6.7h-0.8l-0.9-2.5h-2.7l-1,2.5H172L174.6,63.3z M176.2,66.9l-1-3l-1.2,3H176.2z"/>
		<polygon class="st1" points="190.8,64 188.5,64 188.5,63.3 193.8,63.3 193.8,64 191.5,64 191.5,70.1 190.8,70.1 		"/>
		<path class="st1" d="M206.9,63.3h1.1l2.4,6.7h-0.8l-0.9-2.5H206l-1,2.5h-0.8L206.9,63.3z M208.4,66.9l-1-3l-1.2,3H208.4z"/>
		<path class="st1" d="M98.5,67.2c0,0.6-0.5,1-1,1c-0.6,0-1-0.5-1-1s0.5-1,1-1C98.1,66.1,98.5,66.6,98.5,67.2"/>
		<path class="st1" d="M116,67.2c0,0.6-0.5,1-1,1c-0.6,0-1-0.5-1-1s0.5-1,1-1C115.6,66.1,116,66.6,116,67.2"/>
		<path class="st1" d="M131.6,67.2c0,0.6-0.5,1-1,1c-0.6,0-1-0.5-1-1s0.5-1,1-1C131.1,66.1,131.6,66.6,131.6,67.2"/>
		<path class="st1" d="M148.6,67.2c0,0.6-0.5,1-1,1s-1-0.5-1-1s0.5-1,1-1S148.6,66.6,148.6,67.2"/>
		<path class="st1" d="M167.9,67.2c0,0.6-0.5,1-1,1s-1-0.5-1-1s0.5-1,1-1S167.9,66.6,167.9,67.2"/>
		<path class="st1" d="M185.3,67.2c0,0.6-0.5,1-1,1c-0.6,0-1-0.5-1-1s0.5-1,1-1C184.8,66.1,185.3,66.6,185.3,67.2"/>
		<path class="st1" d="M200.8,67.2c0,0.6-0.5,1-1,1c-0.6,0-1-0.5-1-1s0.5-1,1-1C200.4,66.1,200.8,66.6,200.8,67.2"/>
		<path class="st1" d="M96.9,51.9L96.7,52c-0.1-0.1-0.1-0.1-0.2-0.1c0,0-0.2,0.1-0.6,0.4c-0.5,0.3-1,0.6-1.7,0.8
			c-0.6,0.2-1.4,0.3-2.3,0.3c-1.6,0-3-0.5-4.1-1.4c-1.1-0.9-1.7-2.2-1.7-3.8c0-1.3,0.5-2.4,1.6-3.4c1.1-0.9,2.5-1.4,4.2-1.4
			c0.9,0,1.6,0.1,2.3,0.3c0.6,0.2,1.1,0.4,1.5,0.5c0.2,0.1,0.4,0.2,0.5,0.2c0.1,0,0.2-0.1,0.3-0.2l0.2,0.2l-1.2,2l-0.2-0.1
			c0.1-0.1,0.1-0.2,0.1-0.3c0-0.3-0.4-0.6-1.1-0.9c-0.8-0.3-1.6-0.5-2.4-0.5c-1.3,0-2.3,0.3-3.1,1c-0.8,0.7-1.1,1.6-1.1,2.6
			c0,1,0.4,1.9,1.3,2.7c0.9,0.8,1.9,1.1,3.2,1.1c0.9,0,1.6-0.2,2.3-0.6c0.7-0.4,1.1-0.8,1.1-1.1c0-0.1,0-0.2-0.1-0.3l0.2-0.2
			L96.9,51.9z"/>
		<path class="st2" d="M96.9,51.9L96.7,52c-0.1-0.1-0.1-0.1-0.2-0.1c0,0-0.2,0.1-0.6,0.4c-0.5,0.3-1,0.6-1.7,0.8
			c-0.6,0.2-1.4,0.3-2.3,0.3c-1.6,0-3-0.5-4.1-1.4c-1.1-0.9-1.7-2.2-1.7-3.8c0-1.3,0.5-2.4,1.6-3.4c1.1-0.9,2.5-1.4,4.2-1.4
			c0.9,0,1.6,0.1,2.3,0.3c0.6,0.2,1.1,0.4,1.5,0.5c0.2,0.1,0.4,0.2,0.5,0.2c0.1,0,0.2-0.1,0.3-0.2l0.2,0.2l-1.2,2l-0.2-0.1
			c0.1-0.1,0.1-0.2,0.1-0.3c0-0.3-0.4-0.6-1.1-0.9c-0.8-0.3-1.6-0.5-2.4-0.5c-1.3,0-2.3,0.3-3.1,1c-0.8,0.7-1.1,1.6-1.1,2.6
			c0,1,0.4,1.9,1.3,2.7c0.9,0.8,1.9,1.1,3.2,1.1c0.9,0,1.6-0.2,2.3-0.6c0.7-0.4,1.1-0.8,1.1-1.1c0-0.1,0-0.2-0.1-0.3l0.2-0.2
			L96.9,51.9z"/>
		<path class="st1" d="M100.3,53.1c0.3,0,0.4-0.1,0.4-0.4v-8.5c0-0.3-0.1-0.4-0.4-0.4v-0.2h2.5v0.2c-0.3,0-0.4,0.1-0.4,0.4v8.5
			c0,0.3,0.1,0.4,0.4,0.4v0.2h-2.5V53.1z"/>
		<path class="st2" d="M100.3,53.1c0.3,0,0.4-0.1,0.4-0.4v-8.5c0-0.3-0.1-0.4-0.4-0.4v-0.2h2.5v0.2c-0.3,0-0.4,0.1-0.4,0.4v8.5
			c0,0.3,0.1,0.4,0.4,0.4v0.2h-2.5V53.1z"/>
		<path class="st1" d="M115.3,45.2h-0.2c0-0.3-0.2-0.4-0.7-0.4h-3.2v7.9c0,0.3,0.1,0.4,0.4,0.4v0.2h-2.5v-0.2c0.3,0,0.4-0.1,0.4-0.4
			v-7.9h-3.2c-0.5,0-0.7,0.1-0.7,0.4h-0.2V43h0.2c0,0.3,0.2,0.5,0.7,0.5h8c0.5,0,0.7-0.2,0.7-0.5h0.2L115.3,45.2L115.3,45.2z"/>
		<path class="st2" d="M115.3,45.2h-0.2c0-0.3-0.2-0.4-0.7-0.4h-3.2v7.9c0,0.3,0.1,0.4,0.4,0.4v0.2h-2.5v-0.2c0.3,0,0.4-0.1,0.4-0.4
			v-7.9h-3.2c-0.5,0-0.7,0.1-0.7,0.4h-0.2V43h0.2c0,0.3,0.2,0.5,0.7,0.5h8c0.5,0,0.7-0.2,0.7-0.5h0.2L115.3,45.2L115.3,45.2z"/>
		<path class="st1" d="M116.7,43.5h2.8v0.2c-0.3,0-0.5,0.1-0.5,0.3c0,0,0.1,0.2,0.4,0.5l2.5,3.5l2.7-3.6c0.2-0.3,0.3-0.4,0.3-0.5
			c0-0.1-0.1-0.2-0.4-0.2v-0.2h2.7v0.2c-0.2,0-0.5,0.2-0.9,0.7l-3.7,4.8v3.4c0,0.3,0.1,0.4,0.4,0.4v0.2h-2.5v-0.2
			c0.3,0,0.4-0.1,0.4-0.4v-3.4l-3.6-4.8c-0.3-0.5-0.6-0.7-0.8-0.7L116.7,43.5L116.7,43.5z"/>
		<path class="st2" d="M116.7,43.5h2.8v0.2c-0.3,0-0.5,0.1-0.5,0.3c0,0,0.1,0.2,0.4,0.5l2.5,3.5l2.7-3.6c0.2-0.3,0.3-0.4,0.3-0.5
			c0-0.1-0.1-0.2-0.4-0.2v-0.2h2.7v0.2c-0.2,0-0.5,0.2-0.9,0.7l-3.7,4.8v3.4c0,0.3,0.1,0.4,0.4,0.4v0.2h-2.5v-0.2
			c0.3,0,0.4-0.1,0.4-0.4v-3.4l-3.6-4.8c-0.3-0.5-0.6-0.7-0.8-0.7L116.7,43.5L116.7,43.5z"/>
		<path class="st1" d="M145.7,53.4H143v-0.2c0.3,0,0.4-0.1,0.4-0.2c0,0-0.2-0.4-0.6-1l-1.7-2.8h-3.5v3.6c0,0.3,0.1,0.4,0.4,0.4v0.2
			h-2.5v-0.2c0.3,0,0.4-0.1,0.4-0.4v-8.5c0-0.3-0.1-0.4-0.4-0.4v-0.2h6.3c2.3,0,3.4,0.9,3.4,2.6c0,0.9-0.2,1.6-0.7,2.1
			c-0.5,0.5-1.1,0.7-1.9,0.8l2.3,3.6c0.2,0.3,0.5,0.5,0.7,0.5L145.7,53.4L145.7,53.4z M143.8,46.3c0-0.4-0.1-0.8-0.4-1
			c-0.3-0.3-0.9-0.4-1.8-0.4h-4v3h3.7c0.9,0,1.5-0.1,1.9-0.3C143.6,47.3,143.8,46.9,143.8,46.3"/>
		<path class="st2" d="M145.7,53.4H143v-0.2c0.3,0,0.4-0.1,0.4-0.2c0,0-0.2-0.4-0.6-1l-1.7-2.8h-3.5v3.6c0,0.3,0.1,0.4,0.4,0.4v0.2
			h-2.5v-0.2c0.3,0,0.4-0.1,0.4-0.4v-8.5c0-0.3-0.1-0.4-0.4-0.4v-0.2h6.3c2.3,0,3.4,0.9,3.4,2.6c0,0.9-0.2,1.6-0.7,2.1
			c-0.5,0.5-1.1,0.7-1.9,0.8l2.3,3.6c0.2,0.3,0.5,0.5,0.7,0.5L145.7,53.4L145.7,53.4z M143.8,46.3c0-0.4-0.1-0.8-0.4-1
			c-0.3-0.3-0.9-0.4-1.8-0.4h-4v3h3.7c0.9,0,1.5-0.1,1.9-0.3C143.6,47.3,143.8,46.9,143.8,46.3z"/>
		<path class="st1" d="M158.2,53.8H158c0-0.3-0.2-0.4-0.6-0.4H149v-0.2c0.3,0,0.4-0.1,0.4-0.4v-8.5c0-0.3-0.1-0.4-0.4-0.4v-0.2h7.9
			c0.4,0,0.6-0.1,0.6-0.4h0.2v2.2h-0.2c0-0.3-0.2-0.4-0.7-0.4H151v2.9h3.8c0.4,0,0.7-0.1,0.7-0.4h0.2v2.2h-0.2
			c0-0.3-0.2-0.4-0.6-0.4H151v3.1h6.3c0.5,0,0.7-0.1,0.7-0.4h0.2L158.2,53.8L158.2,53.8z"/>
		<path class="st2" d="M158.2,53.8H158c0-0.3-0.2-0.4-0.6-0.4H149v-0.2c0.3,0,0.4-0.1,0.4-0.4v-8.5c0-0.3-0.1-0.4-0.4-0.4v-0.2h7.9
			c0.4,0,0.6-0.1,0.6-0.4h0.2v2.2h-0.2c0-0.3-0.2-0.4-0.7-0.4H151v2.9h3.8c0.4,0,0.7-0.1,0.7-0.4h0.2v2.2h-0.2
			c0-0.3-0.2-0.4-0.6-0.4H151v3.1h6.3c0.5,0,0.7-0.1,0.7-0.4h0.2L158.2,53.8L158.2,53.8z"/>
		<path class="st1" d="M171,50.3c0,1-0.5,1.8-1.4,2.3c-1,0.5-2.1,0.8-3.4,0.8c-0.8,0-1.5-0.1-2.1-0.2c-0.6-0.2-1.1-0.4-1.6-0.6
			c-0.4-0.2-0.6-0.3-0.8-0.3c-0.2,0-0.3,0.1-0.4,0.2l-0.2-0.1l1-2.1l0.2,0.1c0,0.1,0,0.2,0,0.3c0,0.3,0.4,0.6,1.2,1
			c0.8,0.3,1.7,0.5,2.6,0.5c1,0,1.8-0.1,2.4-0.4c0.6-0.3,1-0.8,1-1.4c0-0.5-0.3-0.9-0.8-1c-0.5-0.2-1.4-0.3-2.7-0.3
			c-1.7,0-2.9-0.2-3.6-0.6c-0.7-0.4-1-1-1-2c0-0.8,0.4-1.5,1.3-2.1c0.9-0.6,2.1-0.9,3.7-0.9c0.5,0,1,0,1.5,0.1
			c0.5,0.1,1,0.2,1.3,0.4c0.4,0.1,0.6,0.2,0.7,0.2c0.2,0,0.4-0.1,0.5-0.2l0.2,0.1l-1,2.2l-0.2-0.1c0-0.1,0-0.1,0-0.2
			c0-0.3-0.3-0.5-1-0.8c-0.7-0.3-1.4-0.4-2.1-0.4c-0.9,0-1.7,0.1-2.3,0.4c-0.7,0.3-1,0.7-1,1.3c0,0.5,0.2,0.8,0.7,0.9
			c0.5,0.1,1.4,0.2,2.8,0.2c1.5,0,2.6,0.2,3.4,0.6C170.6,48.6,171,49.3,171,50.3"/>
		<path class="st2" d="M171,50.3c0,1-0.5,1.8-1.4,2.3c-1,0.5-2.1,0.8-3.4,0.8c-0.8,0-1.5-0.1-2.1-0.2c-0.6-0.2-1.1-0.4-1.6-0.6
			c-0.4-0.2-0.6-0.3-0.8-0.3c-0.2,0-0.3,0.1-0.4,0.2l-0.2-0.1l1-2.1l0.2,0.1c0,0.1,0,0.2,0,0.3c0,0.3,0.4,0.6,1.2,1
			c0.8,0.3,1.7,0.5,2.6,0.5c1,0,1.8-0.1,2.4-0.4c0.6-0.3,1-0.8,1-1.4c0-0.5-0.3-0.9-0.8-1c-0.5-0.2-1.4-0.3-2.7-0.3
			c-1.7,0-2.9-0.2-3.6-0.6c-0.7-0.4-1-1-1-2c0-0.8,0.4-1.5,1.3-2.1c0.9-0.6,2.1-0.9,3.7-0.9c0.5,0,1,0,1.5,0.1
			c0.5,0.1,1,0.2,1.3,0.4c0.4,0.1,0.6,0.2,0.7,0.2c0.2,0,0.4-0.1,0.5-0.2l0.2,0.1l-1,2.2l-0.2-0.1c0-0.1,0-0.1,0-0.2
			c0-0.3-0.3-0.5-1-0.8c-0.7-0.3-1.4-0.4-2.1-0.4c-0.9,0-1.7,0.1-2.3,0.4c-0.7,0.3-1,0.7-1,1.3c0,0.5,0.2,0.8,0.7,0.9
			c0.5,0.1,1.4,0.2,2.8,0.2c1.5,0,2.6,0.2,3.4,0.6C170.6,48.6,171,49.3,171,50.3z"/>
		<path class="st1" d="M173.4,48.4c0-1.5,0.5-2.7,1.5-3.6s2.4-1.4,4.1-1.4c1.7,0,3.1,0.4,4.1,1.3c1,0.9,1.5,2.1,1.5,3.7
			c0,1.6-0.5,2.9-1.6,3.7c-1.1,0.8-2.4,1.3-4,1.3c-1.7,0-3.1-0.4-4.1-1.3C173.9,51.2,173.4,50,173.4,48.4 M175.1,48.5
			c0,1.2,0.4,2.1,1.1,2.7c0.7,0.6,1.7,1,2.9,1s2.2-0.3,2.9-1c0.7-0.7,1.1-1.6,1.1-2.8c0-1.2-0.4-2.1-1.1-2.8c-0.7-0.6-1.7-1-2.9-1
			c-1.2,0-2.2,0.3-2.9,1C175.4,46.4,175.1,47.3,175.1,48.5"/>
		<path class="st2" d="M173.4,48.4c0-1.5,0.5-2.7,1.5-3.6s2.4-1.4,4.1-1.4c1.7,0,3.1,0.4,4.1,1.3c1,0.9,1.5,2.1,1.5,3.7
			c0,1.6-0.5,2.9-1.6,3.7c-1.1,0.8-2.4,1.3-4,1.3c-1.7,0-3.1-0.4-4.1-1.3C173.9,51.2,173.4,50,173.4,48.4z M175.1,48.5
			c0,1.2,0.4,2.1,1.1,2.7c0.7,0.6,1.7,1,2.9,1s2.2-0.3,2.9-1c0.7-0.7,1.1-1.6,1.1-2.8c0-1.2-0.4-2.1-1.1-2.8c-0.7-0.6-1.7-1-2.9-1
			c-1.2,0-2.2,0.3-2.9,1C175.4,46.4,175.1,47.3,175.1,48.5z"/>
		<path class="st1" d="M198.1,53.4h-2.7v-0.2c0.3,0,0.4-0.1,0.4-0.2c0,0-0.2-0.4-0.6-1l-1.7-2.8h-3.5v3.6c0,0.3,0.1,0.4,0.4,0.4v0.2
			h-2.5v-0.2c0.3,0,0.4-0.1,0.4-0.4v-8.5c0-0.3-0.1-0.4-0.4-0.4v-0.2h6.3c2.3,0,3.4,0.9,3.4,2.6c0,0.9-0.2,1.6-0.7,2.1
			c-0.5,0.5-1.1,0.7-1.9,0.8l2.3,3.6c0.2,0.3,0.5,0.5,0.7,0.5L198.1,53.4L198.1,53.4z M196.1,46.3c0-0.4-0.1-0.8-0.4-1
			c-0.3-0.3-0.9-0.4-1.8-0.4h-4v3h3.7c0.9,0,1.5-0.1,1.9-0.3C195.9,47.3,196.1,46.9,196.1,46.3"/>
		<path class="st2" d="M198.1,53.4h-2.7v-0.2c0.3,0,0.4-0.1,0.4-0.2c0,0-0.2-0.4-0.6-1l-1.7-2.8h-3.5v3.6c0,0.3,0.1,0.4,0.4,0.4v0.2
			h-2.5v-0.2c0.3,0,0.4-0.1,0.4-0.4v-8.5c0-0.3-0.1-0.4-0.4-0.4v-0.2h6.3c2.3,0,3.4,0.9,3.4,2.6c0,0.9-0.2,1.6-0.7,2.1
			c-0.5,0.5-1.1,0.7-1.9,0.8l2.3,3.6c0.2,0.3,0.5,0.5,0.7,0.5L198.1,53.4L198.1,53.4z M196.1,46.3c0-0.4-0.1-0.8-0.4-1
			c-0.3-0.3-0.9-0.4-1.8-0.4h-4v3h3.7c0.9,0,1.5-0.1,1.9-0.3C195.9,47.3,196.1,46.9,196.1,46.3z"/>
		<path class="st1" d="M210.1,45.2h-0.2c0-0.3-0.2-0.4-0.7-0.4H206v7.9c0,0.3,0.1,0.4,0.4,0.4v0.2H204v-0.2c0.3,0,0.4-0.1,0.4-0.4
			v-7.9h-3.2c-0.5,0-0.7,0.1-0.7,0.4h-0.2V43h0.2c0,0.3,0.2,0.5,0.7,0.5h8c0.5,0,0.7-0.2,0.7-0.5h0.2L210.1,45.2L210.1,45.2z"/>
		<path class="st2" d="M210.1,45.2h-0.2c0-0.3-0.2-0.4-0.7-0.4H206v7.9c0,0.3,0.1,0.4,0.4,0.4v0.2H204v-0.2c0.3,0,0.4-0.1,0.4-0.4
			v-7.9h-3.2c-0.5,0-0.7,0.1-0.7,0.4h-0.2V43h0.2c0,0.3,0.2,0.5,0.7,0.5h8c0.5,0,0.7-0.2,0.7-0.5h0.2L210.1,45.2L210.1,45.2z"/>
	</g>
</g>
<g id="Layer_2">
</g>
</svg>
