<svg id="Layer_1" data-name="Layer 1" xmlns="http://www.w3.org/2000/svg" viewBox="0 0 131.69 49.61"><title>logo-grey</title><path d="M223.89,284.32a1.59,1.59,0,0,1-1.63,1.62,1.55,1.55,0,0,1-1.39-1.62,1.5,1.5,0,0,1,1.39-1.39,1.56,1.56,0,0,1,1.63,1.39" transform="translate(-142.68 -282.93)" style="fill:#fff"/><path d="M243.44,316.78a1.65,1.65,0,0,1-3.26,0,1.63,1.63,0,0,1,3.26,0" transform="translate(-142.68 -282.93)" style="fill:#fff"/><path d="M249.49,319.56a4.51,4.51,0,0,0-4.66,4.64c0,3.24,1.86,4.64,4.66,4.64,3,0,4.88-1.86,4.88-4.64,0-3-1.86-4.64-4.88-4.64m0,7.42c-1.4,0-2.1-.93-2.1-2.55s0.7-3,2.1-3c1.63,0,2.1.93,2.1,3,0,1.62-.47,2.55-2.1,2.55" transform="translate(-142.68 -282.93)" style="fill:#fff"/><path d="M210.39,319.56a4.51,4.51,0,0,0-4.65,4.64c0,3.24,1.86,4.64,4.65,4.64,3,0,4.89-1.86,4.89-4.64,0-3-1.86-4.64-4.89-4.64m0,7.42c-1.4,0-2.09-.93-2.09-2.55s0.7-3,2.09-3c1.63,0,2.33.93,2.33,3,0,1.62-.7,2.55-2.33,2.55" transform="translate(-142.68 -282.93)" style="fill:#fff"/><path d="M208.77,303.33a4.57,4.57,0,0,0-4.65,4.87,4.27,4.27,0,0,0,4.65,4.64,4.51,4.51,0,0,0,4.65-4.64c0-3.24-1.63-4.87-4.65-4.87m0,7.42c-1.4,0-2.1-.93-2.1-2.55s0.7-2.78,2.1-2.78,2.09,0.93,2.09,2.78c0,1.62-.7,2.55-2.09,2.55" transform="translate(-142.68 -282.93)" style="fill:#fff"/><path d="M219.24,303.33a4.71,4.71,0,0,0-4.65,4.87,4.27,4.27,0,0,0,4.65,4.64,4.58,4.58,0,0,0,4.88-4.64c0-3.24-1.86-4.87-4.88-4.87m0,7.42c-1.4,0-2.09-.93-2.09-2.55s0.7-2.78,2.09-2.78c1.63,0,2.1.93,2.1,2.78,0,1.62-.47,2.55-2.1,2.55" transform="translate(-142.68 -282.93)" style="fill:#fff"/><path d="M235.76,287.1c-2.8,0-4.42,2.09-4.42,4.87,0,2.32,1.4,4.64,4.88,4.64a11.84,11.84,0,0,0,3-.46c0.24,0,.24-0.23.24-0.46v-0.93a0.5,0.5,0,0,0-.46-0.46,8.3,8.3,0,0,1-2.33.46c-1.62,0-2.79-.93-2.79-2.32h5.82a0.5,0.5,0,0,0,.46-0.46c0-2.55-1.4-4.87-4.42-4.87m-1.86,3.71c0.23-1.16.7-2.09,1.86-2.09a1.79,1.79,0,0,1,1.86,2.09H233.9Z" transform="translate(-142.68 -282.93)" style="fill:#fff"/><path d="M255.53,287.1c-2.79,0-4.42,2.09-4.42,4.87,0,2.32,1.4,4.64,4.89,4.64a11.88,11.88,0,0,0,3-.46c0.23,0,.23-0.23.23-0.46v-0.93a0.5,0.5,0,0,0-.46-0.46,8.28,8.28,0,0,1-2.33.46c-1.63,0-2.8-.93-2.8-2.32h5.82A0.5,0.5,0,0,0,260,292c0-2.55-1.39-4.87-4.42-4.87m-1.86,3.71c0.24-1.16.7-2.09,1.86-2.09s1.86,0.7,1.86,2.09h-3.72Z" transform="translate(-142.68 -282.93)" style="fill:#fff"/><path d="M207.14,284.32h-3.72a0.81,0.81,0,0,0-.23.46v0.93a0.81,0.81,0,0,0,.23.46h0.7v5.56c0,1.86-.46,2.78-2.56,2.78-1.86,0-2.56-.93-2.56-2.78v-5.56h0.7a0.5,0.5,0,0,0,.47-0.46v-0.93a0.5,0.5,0,0,0-.47-0.46H196a0.5,0.5,0,0,0-.47.46v0.93a0.5,0.5,0,0,0,.47.46h0.7v6c0,2.55,1.16,4.4,4.89,4.4,3.26,0,4.89-1.39,4.89-5.1v-5.33h0.7a0.5,0.5,0,0,0,.47-0.46v-0.93a0.5,0.5,0,0,0-.47-0.46" transform="translate(-142.68 -282.93)" style="fill:#fff"/><path d="M218.54,294.52h-0.7v-3.94c0-2.09-.93-3.48-3.26-3.48a2.8,2.8,0,0,0-2.79,1.85V287.8a0.5,0.5,0,0,0-.47-0.46h-2.79a0.5,0.5,0,0,0-.47.46v0.93a0.5,0.5,0,0,0,.47.46h0.7v5.33h-0.7c-0.23,0-.23.23-0.23,0.46v0.93c0,0.23,0,.46.23,0.46h4c0.23,0,.23-0.23.23-0.46V295c0-.23,0-0.46-0.23-0.46h-0.7v-2.78c0-1.39.46-2.55,2.09-2.55a1.47,1.47,0,0,1,1.63,1.62v3.71h-0.93a0.81,0.81,0,0,0-.23.46v0.93a0.8,0.8,0,0,0,.23.46h4a0.5,0.5,0,0,0,.46-0.46V295a0.5,0.5,0,0,0-.46-0.46" transform="translate(-142.68 -282.93)" style="fill:#fff"/><path d="M224.36,294.52h-0.7V287.8a0.5,0.5,0,0,0-.46-0.46H220.4c-0.23,0-.23.23-0.23,0.46v0.93c0,0.23,0,.46.23,0.46h0.93v5.33H220.4c-0.23,0-.23.23-0.23,0.46v0.93c0,0.23,0,.46.23,0.46h4a0.5,0.5,0,0,0,.46-0.46V295a0.5,0.5,0,0,0-.46-0.46" transform="translate(-142.68 -282.93)" style="fill:#fff"/><path d="M230.4,294.52h-0.7v-10.9a0.5,0.5,0,0,0-.46-0.46h-2.79a0.5,0.5,0,0,0-.47.46v0.93a0.5,0.5,0,0,0,.47.46h0.7v9.5h-0.7a0.5,0.5,0,0,0-.47.46v0.93a0.5,0.5,0,0,0,.47.46h4a0.5,0.5,0,0,0,.47-0.46V295a0.5,0.5,0,0,0-.47-0.46" transform="translate(-142.68 -282.93)" style="fill:#fff"/><path d="M250.42,287.34h-3.5c-0.24,0-.24.23-0.24,0.46v0.93c0,0.23,0,.46.24,0.46h0.7L246,293.6a0.23,0.23,0,0,1-.24.23V293.6c-0.24,0-1.86-4.4-1.86-4.4h0.46a0.5,0.5,0,0,0,.46-0.46V287.8a0.5,0.5,0,0,0-.46-0.46h-3.49a0.5,0.5,0,0,0-.47.46v0.93a0.5,0.5,0,0,0,.47.46h0.46l3,7c0,0.23,0,.23.24,0.23h2.32v-0.23l3-7h0.47a0.5,0.5,0,0,0,.46-0.46V287.8a0.5,0.5,0,0,0-.46-0.46" transform="translate(-142.68 -282.93)" style="fill:#fff"/><path d="M201.09,321.41l-1.63-.23c-0.7-.23-1.4-0.46-1.4-1.39,0-.7.46-1.62,2.33-1.62a7.16,7.16,0,0,1,1.86.46v0.93a0.81,0.81,0,0,0,.23.46h1.4a0.81,0.81,0,0,0,.23-0.46v-2.09a0.46,0.46,0,0,0-.23-0.46,16.17,16.17,0,0,0-3.72-.46c-3.26,0-4.65,1.62-4.65,3.48,0,1.62.93,2.78,3.26,3.48l1.4,0.46c1.63,0.23,1.86.7,1.86,1.39,0,0.93-.47,1.62-2.09,1.62a3.47,3.47,0,0,1-2.09-.46v-1.16a0.23,0.23,0,0,0-.23-0.23h-1.4c-0.23,0-.47,0-0.47.23v2.55a0.23,0.23,0,0,0,.23.23,7.54,7.54,0,0,0,3.72.7c3.49,0,5.12-1.62,5.12-3.94s-2.1-3-3.72-3.48" transform="translate(-142.68 -282.93)" style="fill:#fff"/><path d="M231.1,327h-0.7v-7c0-.23-0.23-0.23-0.46-0.23h-2.79c-0.24,0-.24,0-0.24.23v1.16c0,0.23,0,.23.24,0.23h0.93v3.25a2.12,2.12,0,0,1-1.86,2.32c-1.63,0-1.63-.93-1.63-2.32V320c0-.23-0.23-0.23-0.47-0.23h-2.79c-0.24,0-.47,0-0.47.23v1.16c0,0.23.23,0.23,0.47,0.23H222v4.4c0,1.85,1.16,3,3.26,3a3.13,3.13,0,0,0,2.79-1.16v0.7c0,0.23.24,0.23,0.46,0.23h2.56c0.23,0,.23,0,0.23-0.23v-1.16a0.23,0.23,0,0,0-.23-0.23" transform="translate(-142.68 -282.93)" style="fill:#fff"/><path d="M271.59,323a5.15,5.15,0,0,1-1.86-.23c-0.7,0-.93-0.23-0.93-0.7s0.47-.93,1.63-0.93a4.58,4.58,0,0,1,1.86.23v0.7c0,0.23.23,0.23,0.46,0.23h0.93c0.24,0,.24,0,0.24-0.23v-1.62a0.46,0.46,0,0,0-.24-0.46,7.94,7.94,0,0,0-3.25-.46c-1.86,0-4,.7-4,3a2.49,2.49,0,0,0,2.32,2.32,18.19,18.19,0,0,1,2.1.23c0.93,0.23,1.4.46,1.4,0.93,0,0.93-1.4,1.16-1.86,1.16S269,327,268.57,327v-0.7c0-.23,0-0.46-0.24-0.46h-1.16c-0.24,0-.24.23-0.24,0.46v1.85a0.23,0.23,0,0,0,.24.23,11.8,11.8,0,0,0,3,.47c3.26,0,4.18-1.39,4.18-3s-0.7-2.32-2.79-2.78" transform="translate(-142.68 -282.93)" style="fill:#fff"/><path d="M203.88,300.55H196a0.5,0.5,0,0,0-.47.46v0.93c0,0.23.23,0.23,0.47,0.23h0.93v8.58H196a0.5,0.5,0,0,0-.47.46v0.93a0.5,0.5,0,0,0,.47.46h4.19a0.5,0.5,0,0,0,.47-0.46v-0.93a0.5,0.5,0,0,0-.47-0.46h-0.93v-3.48H202c0.23,0,.46,0,0.46-0.23v-1.16a0.82,0.82,0,0,0-.46-0.23h-2.79v-3.48h3v1.62a0.81,0.81,0,0,0,.47.23h1.16a0.23,0.23,0,0,0,.23-0.23V301c0-.23,0-0.46-0.23-0.46" transform="translate(-142.68 -282.93)" style="fill:#fff"/><path d="M234.6,310.75h-0.47V299.62a0.8,0.8,0,0,0-.46-0.23h-3a0.23,0.23,0,0,0-.24.23v1.16c0,0.23,0,.23.24,0.23h0.94v2.55a3,3,0,0,0-1.4-.23c-4,0-5.12,2.78-5.12,5.33a3.94,3.94,0,0,0,3.72,4.17,2.65,2.65,0,0,0,2.8-1.62h0.23v0.93c0,0.23,0,.46.24,0.46h2.56a0.5,0.5,0,0,0,.46-0.46v-0.93a0.5,0.5,0,0,0-.46-0.46m-3-2.55c0,1.39-.7,2.55-2.1,2.55-1.16,0-1.86-1.16-1.86-2.78a2.49,2.49,0,0,1,2.56-2.78,2.53,2.53,0,0,1,1.4.46v2.55Z" transform="translate(-142.68 -282.93)" style="fill:#fff"/><path d="M237.85,327h-0.93c-0.93,0-1.16-.23-1.16-1.39v-4.17h1.86c0.23,0,.46,0,0.46-0.23V320c0-.23-0.23-0.23-0.46-0.23h-1.86v-1.62a0.5,0.5,0,0,0-.46-0.46h-1.63a0.5,0.5,0,0,0-.46.46v1.62h-0.93c-0.23,0-.23,0-0.23.23v1.16c0,0.23,0,.23.23,0.23h0.93v5.1c0,1.62.93,2.32,2.79,2.32a7.21,7.21,0,0,0,2.1-.23c0-.23.24-0.23,0.24-0.46v-0.93c0-.23-0.24-0.23-0.46-0.23" transform="translate(-142.68 -282.93)" style="fill:#fff"/><path d="M266.93,287.1h-0.23c-1.17,0-2.1.23-2.56,1.39v-0.7a0.81,0.81,0,0,0-.24-0.46h-2.8a0.5,0.5,0,0,0-.46.46v0.93a0.5,0.5,0,0,0,.46.46h0.7v5.33h-0.7a0.5,0.5,0,0,0-.46.46v0.93a0.5,0.5,0,0,0,.46.46h4a0.49,0.49,0,0,0,.46-0.46V295a0.5,0.5,0,0,0-.46-0.46h-0.7v-2.78a2,2,0,0,1,2.1-2.32h0.46a0.49,0.49,0,0,0,.46-0.46v-1.39a0.49,0.49,0,0,0-.46-0.46" transform="translate(-142.68 -282.93)" style="fill:#fff"/><path d="M243.9,327h-0.7v-7c0-.23-0.24-0.23-0.46-0.23h-2.79c-0.23,0-.46,0-0.46.23v1.16c0,0.23.24,0.23,0.46,0.23h0.7V327h-0.7a0.82,0.82,0,0,0-.46.23v1.16c0,0.23.24,0.23,0.46,0.23h4c0.24,0,.46,0,0.46-0.23v-1.16a0.79,0.79,0,0,0-.46-0.23" transform="translate(-142.68 -282.93)" style="fill:#fff"/><path d="M220.17,327h-0.7V315.85c0-.23-0.23-0.23-0.47-0.23h-2.79c-0.23,0-.46,0-0.46.23v0.93a0.5,0.5,0,0,0,.46.46h0.7V327h-0.7a0.81,0.81,0,0,0-.46.23v1.16c0,0.23.23,0.23,0.46,0.23h4c0.23,0,.46,0,0.46-0.23v-1.16a0.81,0.81,0,0,0-.46-0.23" transform="translate(-142.68 -282.93)" style="fill:#fff"/><path d="M265.31,327h-0.7V323c0-2.09-.93-3.48-3-3.48a3.33,3.33,0,0,0-3,1.62V320c0-.23-0.24-0.23-0.47-0.23H255.3c-0.23,0-.23,0-0.23.23v1.16c0,0.23,0,.23.23,0.23h0.93V327h-0.7a0.82,0.82,0,0,0-.46.23v1.16c0,0.23.23,0.23,0.46,0.23h3.72c0.24,0,.47,0,0.47-0.23v-1.16a0.82,0.82,0,0,0-.47-0.23h-0.69v-3a2,2,0,0,1,2.09-2.32,1.47,1.47,0,0,1,1.63,1.62V327h-0.7a0.82,0.82,0,0,0-.47.23v1.16c0,0.23.23,0.23,0.47,0.23h3.72c0.23,0,.46,0,0.46-0.23v-1.16a0.82,0.82,0,0,0-.46-0.23" transform="translate(-142.68 -282.93)" style="fill:#fff"/><path d="M185.73,297.07c0.47,1.62,3,3.94,3.72,3.94,0.46,0,.7-2.32.7-3.94,0-1.16,0-1.85-.46-2.09a4.85,4.85,0,0,1-4,2.09m0.23-.93c1.86,0,3.72-1.39,3.72-2.78a1,1,0,0,0-1.16-1.16c0.23,0,.23.23,0.23,0.46,0,1.16-1.4,2.09-3.26,2.09a0.74,0.74,0,0,0-.7.7c0,0.46.46,0.7,1.16,0.7m-0.47-2.09a0.86,0.86,0,0,1-.7-0.23,6,6,0,0,0-.47-1.16h0.93c0.7,0,1.63-.46,2.09-0.46a0.58,0.58,0,0,1,.7.46c0,0.7-1.63,1.39-2.56,1.39" transform="translate(-142.68 -282.93)" style="fill:#fff"/><path d="M144.54,308.43c0.47,0,.47-3.71,1.4-3.71a0.5,0.5,0,0,1,.47.46c0,0.93-.47,2.09-0.47,2.78,0,0.46,0,.46.23,0.46,0.47,0,1.16-4.17,1.86-4.17a0.5,0.5,0,0,1,.46.46c0,0.93-1.16,3.48-1.16,4.17a0.23,0.23,0,0,0,.23.23c0.23,0,1.16-2.09,1.63-3a0.58,0.58,0,0,1,.47-0.7,0.5,0.5,0,0,1,.46.46,11.6,11.6,0,0,1-1.86,4.87c-0.47,1.39-1.63,3-1.63,3.94a2,2,0,0,0,.93,1.62,2.05,2.05,0,0,1-2.09-.93c-2.09,3.71,3.49,3.48,1.63,7-0.23-.7-3-1.39-3-4.87,0-3.24,2.79-5.1,2.79-6.26a0.58,0.58,0,0,0-.47-0.7c-0.47-.7-0.47-0.93-0.93-0.93A0.85,0.85,0,0,0,145,311a0.85,0.85,0,0,1,.23.7c0,0.46-.7,1.85-1.4,1.85-0.47,0-.93-1.39-0.93-3.71,0-2.09.46-3.94,1.16-3.94v1.62c0,0.93.23,0.93,0.47,0.93" transform="translate(-142.68 -282.93)" style="fill:#fff"/><path d="M149.2,313.76a1.41,1.41,0,0,0,1.4-1.62v-2.09a3.43,3.43,0,0,1,.47-2.09v0.93c0,1.39.93,2.55,0.93,4.17a0.62,0.62,0,0,1-.7.7c-0.46,0-.23-0.23-0.46-0.23a0.81,0.81,0,0,0-.23.46,1.06,1.06,0,0,0,1.16.93,1.1,1.1,0,0,0,1.16-1.16c0-1.62-1.4-3.48-1.4-5.33a2.69,2.69,0,0,1,.47-1.62c0,3.48,3,6.26,3,7.65a0.59,0.59,0,0,1-1.16.23v-0.23c-0.23,0-.46.23-0.46,0.93a1.31,1.31,0,0,0,1.4,1.16,1.59,1.59,0,0,0,1.63-1.62c0-1.86-3.72-4.87-3.72-7.88a3.81,3.81,0,0,1,.46-2.09,6.24,6.24,0,0,0-3.26,5.33c0,1.62,0,2.55-.93,2.55a1.78,1.78,0,0,1-.7-0.46v0.46a0.85,0.85,0,0,0,.93.93" transform="translate(-142.68 -282.93)" style="fill:#fff"/><path d="M181.08,295.45a1.59,1.59,0,0,0,1.4-.46,0.82,0.82,0,0,0-.47-0.23h-1.63a9.16,9.16,0,0,0-1.4-.46h-0.23c0,0.46.93,1.16,2.33,1.16m-4-2.32a4.22,4.22,0,0,0,2.56-.46,0.82,0.82,0,0,1,.47-0.23c0.7,0,.46.93,0.93,0.93a9.76,9.76,0,0,0,1.4-.46c0.7,0,1.4,1.62,1.4,2.55s-1.4,1.39-3,1.39a3.84,3.84,0,0,1-4-3.48l0.23-.23" transform="translate(-142.68 -282.93)" style="fill:#fff"/><path d="M149.66,320.72a2.7,2.7,0,0,0-1.63,2.55,5.08,5.08,0,0,0,5.12,4.64,3,3,0,0,0,3.26-3c0-2.78-1.63-4.87-4-4.87a2.33,2.33,0,0,0-2.33,2.32,3.11,3.11,0,0,0,3.26,3,1.59,1.59,0,0,0,1.63-1.62,2,2,0,0,0-1.86-1.85,0.58,0.58,0,0,0-.7.46,1.34,1.34,0,0,0,1.4.93h0.47a0.81,0.81,0,0,1-.93.7,1.8,1.8,0,0,1-1.86-1.62,1.18,1.18,0,0,1,1.4-1.16,2.63,2.63,0,0,1,2.56,2.78,1.85,1.85,0,0,1-2.09,2.09c-3,0-4.42-2.55-3.72-5.33" transform="translate(-142.68 -282.93)" style="fill:#fff"/><path d="M169.21,327.91a0.74,0.74,0,0,0,.7.7,1,1,0,0,0,.7-0.7,1,1,0,0,0-.7-0.93,0.81,0.81,0,0,0-.7.93m1.4,3.48h0.93c0.46,0,.46.23,0.46,0.23,0,0.46-.93.93-2.56,0.93a1.46,1.46,0,0,1-1.63-.93,8.8,8.8,0,0,1-3.72.93c-3.72,0-4.65-1.62-5.82-2.09-0.93-.46-2.33.46-4.19-1.62h0.7c1.86,0,2.56-.93,2.56-2.09v-0.69a4.73,4.73,0,0,1,2.09,2.78c0,0.23.7,0.23,1.16,0.23a1.39,1.39,0,0,0,1.63-1.39,3.67,3.67,0,0,0,4-3,3.69,3.69,0,0,1,2.09,1.39,1.4,1.4,0,0,1,.93-0.23,6.81,6.81,0,0,1,2.09.46,0.55,0.55,0,0,1,.46-0.7c0.47,0,.47.7,0.7,0.93,0,0.23.46,0.46,0.46,0.7a0.38,0.38,0,0,1-.46.46h-0.23c-0.47.23-.47,2.78-1.86,2.78a3.26,3.26,0,0,1-2.79-2.09,0.62,0.62,0,0,0-.7-0.7,1.22,1.22,0,0,0-.7.46,5.9,5.9,0,0,1-4.65,2.09h-1.4a3.06,3.06,0,0,0,2.09.7c3.26,0,4-1.86,4.42-1.86a0.72,0.72,0,0,1,.47.23,3.33,3.33,0,0,0,3.49,2.09" transform="translate(-142.68 -282.93)" style="fill:#fff"/><path d="M181.77,319.79c-0.47,0-2.56,2.78-4,2.78a0.81,0.81,0,0,1-.7-0.93,1,1,0,0,1,.7-0.69c3.26-.7,2.56-3,5.35-3a3,3,0,0,1,3,3.24c0,2.32-3.49,5.33-4,5.33a1,1,0,0,1-.93-0.93l0.47-.46a4.18,4.18,0,0,0,2.79-3c0-.23,0-0.46-0.23-0.46-0.47,0-1.63,3-3.26,3a2.46,2.46,0,0,1-2.1-1.39c0-.7,3-2.09,3-3,0-.47-0.23-0.47-0.23-0.47m1.86-1.16a0.58,0.58,0,0,0-.47.7,1.45,1.45,0,0,0,.7,1.16h0.47c0.47,0,.93,0,0.93-0.46a1.74,1.74,0,0,0-1.63-1.39" transform="translate(-142.68 -282.93)" style="fill:#fff"/><path d="M149.43,297.54a0.62,0.62,0,0,0,.7.7,0.7,0.7,0,1,0,0-1.39,0.62,0.62,0,0,0-.7.7m-1.16-1.62a0.82,0.82,0,0,0,1.63,0,0.74,0.74,0,0,0-.7-0.69,0.81,0.81,0,0,0-.93.69m-0.47,4.87a2,2,0,0,0-1.4,1.62,1.1,1.1,0,0,0,1.16,1.16c0.23,0,.47-0.23.7-0.23a2.5,2.5,0,0,1-.7-1.62,1.11,1.11,0,0,1,.23-0.93m-4.65.23v0.46a1.1,1.1,0,0,0,1.16,1.16,2,2,0,0,0,1.4-.7H145a2.12,2.12,0,0,1-1.86-.93m-0.47,1.62c0,1.39.23,2.09,1.16,2.09a6.77,6.77,0,0,0,2.33-1.16,6.56,6.56,0,0,1-1.86.23,1.64,1.64,0,0,1-1.63-1.16m4.65-7.19a10,10,0,0,0,.23-1.16,1.85,1.85,0,0,0-1.63-2.09,1.18,1.18,0,0,0-1.4,1.16c0,1.39,1.63,2.09,2.79,2.09m-1.63,4.64a1.51,1.51,0,0,1-1.16-1.39,0.9,0.9,0,0,1,.47-0.93V298a2,2,0,0,0,1.4,1.62,0.58,0.58,0,0,1-.7.46m1.86-2.32a0.88,0.88,0,0,0,.47.46,0.78,0.78,0,0,1-.47.69,1.55,1.55,0,0,1-1.16-1.62c0-.23.23-0.23,0.47-0.23h0.23a1.77,1.77,0,0,1,.46.7m-4.42,2.32v0.23l0.23,0.23h0.47a13.07,13.07,0,0,0,1.63.23,3.46,3.46,0,0,0,1.4-.23,3.76,3.76,0,0,0,1.86-2.55,0.78,0.78,0,0,0-.46-0.7,1.79,1.79,0,0,1-.23-0.7,0.86,0.86,0,0,0-.7-0.23h-0.46a2.57,2.57,0,0,0-2.1.7c-1.63.93-1.4,2.55-1.63,3m6-.7a2.83,2.83,0,0,0-.7,2.09,1.62,1.62,0,0,0,1.4,1.85,1.53,1.53,0,0,0,1.4-1.62,2.72,2.72,0,0,0-2.09-2.32m-4-3.48a2.83,2.83,0,0,1-1.16.23,1.34,1.34,0,0,1-1.4-1.39,1.44,1.44,0,0,1,.93-1.39v0.23a2.52,2.52,0,0,0,1.63,2.32" transform="translate(-142.68 -282.93)" style="fill:#fff"/><path d="M177.82,301.94a0.7,0.7,0,1,0,.7-0.7,0.62,0.62,0,0,0-.7.7m0,2.32a0.62,0.62,0,0,0,.7.7c0.7,0,.93-0.23.93-0.7a0.85,0.85,0,0,0-.93-0.93,0.81,0.81,0,0,0-.7.93M175,305.65a1.5,1.5,0,0,0,1.4,1.39,1.3,1.3,0,0,0,1.16-1.39,1.1,1.1,0,0,0-1.16-1.16,1.3,1.3,0,0,0-1.4,1.16m0.7-2.55a0.74,0.74,0,0,0,.7.7,0.81,0.81,0,0,0,.93-0.7,0.82,0.82,0,0,0-1.63,0m-2.33,1.62a0.7,0.7,0,0,0,1.4,0,0.73,0.73,0,1,0-1.4,0m1.86-4.41a1.16,1.16,0,1,0,1.16-1.16,1.1,1.1,0,0,0-1.16,1.16m1.4-2.32a0.73,0.73,0,1,0,1.4,0,0.7,0.7,0,0,0-1.4,0m-3.26,1.85a0.62,0.62,0,0,0,.7.7,0.7,0.7,0,1,0,0-1.39,0.62,0.62,0,0,0-.7.7m-0.23,2.32a1.16,1.16,0,0,0,2.33,0,1.19,1.19,0,0,0-2.33,0m-2.33,1.16a1.1,1.1,0,0,0,1.16,1.16,1.06,1.06,0,0,0,.93-1.16,1,1,0,0,0-.93-0.93,1.06,1.06,0,0,0-1.16.93m0.7-2.55a0.7,0.7,0,1,0,.7-0.7,0.62,0.62,0,0,0-.7.7m6.52,5.79a0.7,0.7,0,0,1,1.4,0,0.7,0.7,0,0,1-1.4,0" transform="translate(-142.68 -282.93)" style="fill:#fff"/><path d="M178.52,327.44a0.81,0.81,0,0,1,.23.46,1.68,1.68,0,0,1-.93,1.39,4.66,4.66,0,0,1-2.09.46,2.45,2.45,0,0,0,.46-1.16c0-.23-0.23-0.23-0.23-0.46h0.23a4.18,4.18,0,0,0,2.33-.7m0-1.62a0.85,0.85,0,0,0,.23-0.69v-0.46c0-.46-0.7-0.69-1.86-0.69-1.4,0-2.09.46-2.09,0.93v0.69c0,0.46.93,0.7,1.86,0.7a4.39,4.39,0,0,0,1.86-.46m1.16,0a4.91,4.91,0,0,1-3.49,1.39,3.21,3.21,0,0,1-1.63-.47,1.23,1.23,0,0,0-.7.47,5.31,5.31,0,0,0-.93,2.55,1.55,1.55,0,0,0,1.63,1.39c3.49,0,6-2.09,6-3.94a1.36,1.36,0,0,0-.93-1.39" transform="translate(-142.68 -282.93)" style="fill:#fff"/><path d="M180.15,310.52a0.81,0.81,0,0,0,.7.93c0.46,0,.7-0.46.7-1.16a13,13,0,0,0-.23-1.62l0.23-.23c0.23,0,.46.93,0.93,0.93,0.23,0,.7-0.7.93-0.7a5.92,5.92,0,0,1-.47,1.16c0,0.23,1.16.23,1.16,0.46s-1.16.23-1.63,0.46a1.25,1.25,0,0,0-.93.93c0,0.46.46,0.46,0.93,0.46a6.89,6.89,0,0,0,2.33-.7H185c0,0.23-.7.93-0.7,1.16s1.16,0.7,1.16.93h-1.4c0,0.23,0,1.16-.23,1.16s-0.7-2.09-2.09-2.09a0.38,0.38,0,0,0-.47.46,2.7,2.7,0,0,0,1.4,1.86,3.36,3.36,0,0,0,.93.46c0,0.23-1.16,0-1.16.46v1.39c-0.23,0-.93-1.16-1.16-1.16s-0.7.69-.93,0.69v-0.23a7,7,0,0,0,.7-2.09c0-.46,0-1.39-0.7-1.39a2.43,2.43,0,0,0-1.16,1.39c0,0.23,0,1.86-.23,1.86s-0.23-1.16-.46-1.16c-0.46,0-.93.7-1.16,0.7v-0.23a3.4,3.4,0,0,1,.47-0.93c0-.23-1.16-0.46-1.16-0.69a2.42,2.42,0,0,1,.93-0.23c0.93-.23,2.33-0.7,2.33-1.85,0-.93-1.16-1.39-1.86-1.85a3.31,3.31,0,0,0-.7-0.46c0-.23.47-0.23,0.7-0.23s0.46,0,.46-0.23V308c0.46,0,.7.93,0.93,0.93s0.7-.7.93-0.7,0.23,0,.23.23c0,0.7-.46,1.39-0.46,2.09m-8.61-5.33c0.23,1.62,2.33.7,2.33,2.55,0,0.46-.23.7-0.23,1.16a0.55,0.55,0,0,0,.47.7c0.23,0,.23-0.23.23-0.46V308.2a0.6,0.6,0,0,1,.7-0.69c0.7,0,1.4.69,2.33,0.69-0.23,1.16-2.56.7-2.56,2.09,0,0.7.46,0.7,0.93,0.7s0.47,0,.47-0.23v-0.46c0-.23,0-0.23.23-0.23,0.47,0,2.33,1.39,2.33,1.85s-2.1.93-2.79,0.93v-0.23a2.33,2.33,0,0,0,.23-0.7c0-.23-0.23-0.23-0.93-0.23-0.46,0-.7,0-0.7.23,0,0.46.7,1.16,0.7,1.62a0.58,0.58,0,0,1-.7.46,1,1,0,0,1-1.16-.93c0-.46.47-0.93,0.47-1.39a0.23,0.23,0,0,0-.23-0.23c-0.7,0-.93,1.86-3.26,2.09a2.65,2.65,0,0,0,.7-1.62c0-.46-0.23-0.7-0.23-1.16a0.62,0.62,0,0,1,.7-0.7c0.7,0,.93.93,1.39,0.93a0.5,0.5,0,0,0,.47-0.46c0-1.39-2.56-1.39-2.56-3.25a5.32,5.32,0,0,1,.7-2.09" transform="translate(-142.68 -282.93)" style="fill:#fff"/><path d="M175,317c0,0.23,0,.46.47,0.46A0.5,0.5,0,0,0,176,317a1,1,0,0,0-.7-0.93c-0.23,0-.23.23-0.23,0.46V317m-0.93-2.32a3.17,3.17,0,0,1,2.79,3,1.65,1.65,0,0,1-1.63,1.86,1.59,1.59,0,0,1-1.63-1.62c0-.7.7-1.62,0.7-2.32a1.12,1.12,0,0,0-.23-0.93m-2.56,3a0.72,0.72,0,0,1,.23.46v0.93a0.81,0.81,0,0,0,.7.93,1,1,0,0,0,.93-0.93,1.64,1.64,0,0,0-1.86-1.39m6-1.16a0.85,0.85,0,0,1,.23.7c0,0.46-.46.93-0.46,1.39a1.1,1.1,0,0,0,1.16,1.16,1.34,1.34,0,0,0,1.4-1.39,2.13,2.13,0,0,0-2.33-1.85m-5.58-.93c0.93,0,.93.46,0.93,0.7a0.58,0.58,0,0,1-.7.46h-0.7a1.11,1.11,0,0,0-1.16.47,0.5,0.5,0,0,1,.47.46c0,1.16-2.79.23-2.79,3,0,1.39,1.4,3,3.72,3,1.16,0,1.86-.46,1.86-0.93,0-.23-0.7,0-0.7-0.46a0.81,0.81,0,0,0,.23-0.46,0.23,0.23,0,0,0-.23-0.23,6.9,6.9,0,0,1-2.09.46c-0.93,0-2.1-.46-2.1-1.39l0.23-.23c0.23,0,.23.23,0.46,0.23v-0.46s0-.7.47-0.7A4.68,4.68,0,0,0,173.4,321a5.85,5.85,0,0,0,3-.7,4.68,4.68,0,0,1-4.89,4.64,5.19,5.19,0,0,1-5.12-5.33,5.4,5.4,0,0,1,5.35-5.33q1.4,0,1.4.7c0,0.46-1.16,0-1.16.69" transform="translate(-142.68 -282.93)" style="fill:#fff"/><path d="M160.13,294.75c1.16,0,1.63.93,1.63,2.09,0,0.46,0,1.39-.23,1.39s-0.23-.46-0.23-0.93a0.38,0.38,0,0,0-.47-0.46,1.58,1.58,0,0,0-.47,1.39,0.91,0.91,0,0,0,.47.93,0.82,0.82,0,0,0,.47-0.23,1.55,1.55,0,0,1-1.63,1.39c-1.63,0-2.09-1.85-2.33-2.78a4.56,4.56,0,0,1-3.49,1.62,2,2,0,0,1-2.33-2.09c0-.23.23-1.16,0.7-1.16s0,1.62.93,1.62a1,1,0,0,0,.7-0.93,1.39,1.39,0,0,0,.23-0.93c0-.46,0-0.93-0.47-0.93a0.78,0.78,0,0,0-.7.46,2.49,2.49,0,0,1,2.56-2.09,2.6,2.6,0,0,1,2.33,2.78,0.85,0.85,0,0,1-.23.7,3.26,3.26,0,0,1,2.56-1.85m-1.4,2.09a0.81,0.81,0,0,0-.23-0.46,1,1,0,0,0-.7.7,1.08,1.08,0,0,0,.47,1.16,1.58,1.58,0,0,0,.46-1.39m-2.56.7a1.82,1.82,0,0,0,.93-0.7v-0.7c0-.46,0-0.7-0.23-0.7-0.7,0-.93,1.39-0.93,1.86a0.23,0.23,0,0,0,.23.23m3,1.62c0.46,0,.93-1.62.93-2.78,0-.23,0-0.46-0.23-0.46a5.45,5.45,0,0,0-.93,2.78c0,0.46,0,.46.23,0.46m-4.65-.93c0.7,0,1.4-3.48,1.4-3.94,0-.23,0-0.23-0.23-0.23-0.46,0-1.16,3.25-1.16,3.94v0.23" transform="translate(-142.68 -282.93)" style="fill:#fff"/><path d="M156.65,299.62c-0.7,0-.7.93-0.7,2.78-0.7-1.16-1.63-2.55-2.79-2.55a1.17,1.17,0,0,0-1.16,1.39,0.85,0.85,0,0,0,.23.7c0-.46.23-0.46,0.7-0.46a4.18,4.18,0,0,1,2.33,1.39c-0.7,0-1.4-.23-2.1-0.23a1.4,1.4,0,0,0-.93.23,2.31,2.31,0,0,0-1.16,2.09v0.7a4.11,4.11,0,0,1,3.49-2.09H155a3.23,3.23,0,0,0-.7,2.09,0.23,0.23,0,0,1-.23.23c0,0.7.47,1.62,0.47,2.09l-0.23.23c0,0.93.7,1.39,0.7,1.86v0.46c0,0.23.93,0.7,0.93,1.16a0.72,0.72,0,0,0,.47.23,1,1,0,0,0,.93-0.7l-0.23-.23a2,2,0,0,1-.7-1.16,0.47,0.47,0,0,1-.47-0.23,3.92,3.92,0,0,0-.23-1.62c-0.23,0-.23,0-0.23-0.47s0.23-1.39.23-1.62c-0.23,0-.46,0-0.46-0.23,0-.7.7-1.16,0.93-1.85a2.82,2.82,0,0,1,1.16,2.32V307a2.5,2.5,0,0,0,1.86-2.09c0-.7-0.23-1.39-2.33-1.62a6.82,6.82,0,0,1,2.1-.46c1.16,0,1.86.46,1.86,1.16a1.1,1.1,0,0,0,.47-1.16,1.41,1.41,0,0,0-1.63-1.39,6.19,6.19,0,0,0-3.26,1.16q0.7-1.39,1.4-1.39H158a1.75,1.75,0,0,0-1.4-1.62" transform="translate(-142.68 -282.93)" style="fill:#fff"/><path d="M187.59,312.84c0.93,0,1.63,1.16,1.63,2.55a6.23,6.23,0,0,1-1.86,4.17c0-2.55-3-1.62-3-3.48a1.1,1.1,0,0,1,1.16-1.16c0.7,0,1.16,0,1.4.46a3.91,3.91,0,0,1-.47-1.16,1.3,1.3,0,0,1,1.16-1.39" transform="translate(-142.68 -282.93)" style="fill:#fff"/><path d="M174.1,294.06a1.75,1.75,0,0,0-1.16-.23,1.57,1.57,0,0,0-1.4.93v-0.46a1.7,1.7,0,0,1,1.86-1.85,2.36,2.36,0,0,1,1.63.46h0.7c0.23,0,.23.23,0.23,0.46a3.72,3.72,0,0,1-1.16,2.55,1.82,1.82,0,0,0-.93-0.93l-0.23-.23a1.23,1.23,0,0,1,.47-0.7m-2.79,1.39a1.66,1.66,0,0,0,1.4.7,0.82,0.82,0,0,0,.47-0.23,0.23,0.23,0,0,1,.23.23c0,0.23,0,.7-0.23.7a0.85,0.85,0,0,0,.7.23,2.14,2.14,0,0,0,2.09-2.32,2.44,2.44,0,0,1,.47,1.16,2.55,2.55,0,0,1-2.79,2.78,8.31,8.31,0,0,1-1.63-.23c-0.23,0-.23.7-0.46,0.7a2.5,2.5,0,0,1-.7-2.09,2.2,2.2,0,0,1,.47-1.62" transform="translate(-142.68 -282.93)" style="fill:#fff"/><path d="M155.48,283.86c0-.23-0.46-0.23-1.4-0.23-1.16,0-.93.93-1.86,0.93s-0.7-.93-1.86-0.93c-0.7,0-1.4,0-1.4.23s0.7,0,.7.7-1.86.93-1.86,1.16,0.23,0.23.47,0.23c0.47,0,.93-0.23,1.4-0.23,0.23,0,.46,0,0.46.23,0,0.46-.93,1.39-0.93,1.85h0.23c0.46,0,.93-0.93,1.63-0.93,0.93,0,.23,2.09.7,2.09,0.7,0,.46-2.09,1.16-2.09s1.16,1.39,1.63,1.39a0.23,0.23,0,0,0,.23-0.23,11.18,11.18,0,0,1-.7-1.62,0.58,0.58,0,0,1,.7-0.46c0.23,0,.93.23,1.16,0.23h0.23c0-.46-1.63-0.93-1.63-1.62,0-.46.93-0.46,0.93-0.7m4.42,1.86a2.76,2.76,0,0,0,1.63.93,0.9,0.9,0,0,0,.47-0.93c0-.46-0.23-0.46-0.7-0.46a1.59,1.59,0,0,0-1.4.46m1.86,3.48c0-.93-3-3-3-3.94V285c0.7-.46,2.79-0.93,2.79-1.39,0-.23-0.47-0.23-0.7-0.23-1.86,0-4.19.69-4.19,1.39,0,0.46,2.09,2.09,2.09,2.78,0,0.23,0,.23-0.23.23-0.7,0-2.09-.7-2.56-0.7s-0.47.23-.47,0.46c0,0.93.93,2.55,0.93,3v0.23c-0.23,0-1.86-1.86-2.33-1.86-0.23,0-.23.23-0.23,0.7v0.7a0.81,0.81,0,0,1-.23.46c-0.47,0-.7-1.16-1.16-1.16s-0.7,2.32-1.16,2.32,0-2.55-.46-2.55c-0.7,0-1.4,1.62-1.63,1.62s-0.23,0-.23-0.23c0-.46.23-1.39,0.23-1.86,0-.23,0-0.46-0.23-0.46-0.46,0-1.86.93-2.33,0.93h-0.23c0-.46,2.09-1.85,2.09-2.55s-2.79-.23-2.79-0.93c0-.46,2.09-1.16,2.09-1.85,0-.46-2.33-0.69-3.26-0.69-1.16,0-1.63.23-1.63,0.46,0,0.46,2.33.7,2.33,0.93,0,0.46-2.56,1.62-2.56,2.09,0,0.7,3.72.23,3.72,0.7,0,0.7-3.26,3.25-3.26,4.17,0,0.23.23,0.23,0.47,0.23,0.93,0,3.26-1.62,4-1.62,0.23,0,.23.23,0.23,0.46v1.85a0.55,0.55,0,0,0,.47.7c0.7,0,1.16-1.16,1.63-1.16,0.7,0,.23,3.24,1.16,3.24,0.7,0,1.16-3.71,1.63-3.71s0.93,1.16,1.16,1.16c0.7,0,.46-1.86.93-1.86,0.7,0,2.56,2.32,3.26,2.32a0.38,0.38,0,0,0,.46-0.46c0-1.16-1.4-3.24-1.4-3.94,0-.23,0-0.23.23-0.23,0.7,0,2.79.93,4,.93a0.5,0.5,0,0,0,.46-0.46M145,288.26a4.31,4.31,0,0,1-1.86,1.62c-0.23,0-.23-0.23-0.23-0.46a1.73,1.73,0,0,1,.23-1.16,2.1,2.1,0,0,1,1.16-.23c0.23,0,.7,0,0.7.23m13.5,1.85c0,0.7,2.33,3.71,2.79,3.71a1.36,1.36,0,0,0,.46-1.16V292.2c-0.46-.46-2.79-2.32-3.26-2.32v0.23" transform="translate(-142.68 -282.93)" style="fill:#fff"/><path d="M188.06,284.55a0.38,0.38,0,0,0,.46.46,0.46,0.46,0,1,0,0-.93,0.38,0.38,0,0,0-.46.46m-3,3.94c0-1.16-3.26-1.62-3.26-1.85s1.86-.7,2.79-0.7c-1.4-1.62-3.49-1.62-3.49-1.85s1.63-.46,2.79-0.46,2.33,0.23,2.33,1.16a14.84,14.84,0,0,0-.46,1.62,0.62,0.62,0,0,0,.7.7c0.7,0,.7-0.46.7-1.16v-1.16a1.23,1.23,0,0,1,1.4-1.39,13.22,13.22,0,0,0,1.63.23,2.12,2.12,0,0,0-.7,1.16,22.37,22.37,0,0,1,.46,2.78c0,3-2.79,3.94-6.05,3.94a11.35,11.35,0,0,1-2.79-.23h-0.23c0-.23,1.4-0.46,1.4-1.62a10,10,0,0,0-.23-1.16h0.23a3.25,3.25,0,0,0,1.86.93,0.82,0.82,0,0,0,.93-0.93m3-1.85a3.31,3.31,0,0,1-3.26,3.25h0.7c2.33,0,3.26-.93,3.26-2.09a1.27,1.27,0,0,0-.7-1.16" transform="translate(-142.68 -282.93)" style="fill:#fff"/><path d="M186.89,310.29a8,8,0,0,1,1.16-2.55c-0.7-.23-2.09-0.93-2.09-2.09a2.5,2.5,0,0,1,1.86-2.09,0.23,0.23,0,0,1,.23.23c0,0.7-.47,1.85-0.47,2.32a1,1,0,0,0,.7.93,2.45,2.45,0,0,0,1.16-2.09,2.52,2.52,0,0,0-2.33-2.55c-0.47,0-1.4.93-3.49,0.93-4,0-4.89-3.94-4.89-5.56,0-.23,0-0.23.23-0.23a2.37,2.37,0,0,0,1.63.46c0.7,0,1.16-.23,2.1-0.23,2.33,0,3.26,1.62,4.65,3.48,0.7,0.7,2.79,1.39,2.79,3.71,0,2.09-2.33,3.24-2.79,5.33,0.93,0,1.4-1.39,2.33-1.39a0.58,0.58,0,0,1,.46.7,4.27,4.27,0,0,1-1.16,2.78v-0.23a1,1,0,0,0-.93-1.16c-0.93,0-1.16.93-1.63,1.85-0.47-1.85-1.16-3.71-2.56-4.64-1.39-1.16-3.49-.46-3.49-2.32,0-.7.23-1.39,0.23-1.85v-0.7c1.63,0.7.93,1.85,2.1,3,0.7,0.93,2.56,1.62,3.72,4.87v-0.7c0-2.55-3.72-5.33-4-6.26,2.09,0.23,2.56.7,3.49,3.48a8.3,8.3,0,0,1,.93,2.55m-0.47-8.81c0-.46-1.16-0.46-1.16-1.62,0,0,0-.46-0.23-0.46-0.47,0-.23,1.16-0.47,1.16-0.93,0-1.16-1.62-1.4-1.62s-0.23,0-.23.23v0.46c0,0.23,0,.46-0.23.46-0.47,0-.93-1.16-1.4-1.16a0.23,0.23,0,0,0-.23.23c0,0.23.47,0.46,0.47,0.7,0,0.46-1.16.23-1.16,0.7l0.23,0.23c0.47,0,1.16-.23,1.4-0.23s0.47,0,.47.23-0.7.69-.7,0.93H182c0.47,0,1.4-.7,2.1-0.7a0.23,0.23,0,0,1,.23.23,3.38,3.38,0,0,0-.47.93v0.23c0.47,0,.93-0.93,1.4-0.93,0.23,0,.7.23,0.93,0.23l0.23-.23" transform="translate(-142.68 -282.93)" style="fill:#fff"/><path d="M172.7,290.58c0.23,0,.23.7,0.23,1.16a0.23,0.23,0,0,1,.23.23c0.23,0,.7-0.93.93-0.93a5.91,5.91,0,0,0,2.79.93,4.29,4.29,0,1,0-.23-8.58c-1.16,0-2.09.69-2.56,0.69-0.23,0-.7-0.69-0.93-0.69a0.8,0.8,0,0,0-.23.46,1.12,1.12,0,0,1-.23.93c-0.47,0-2.09-1.39-2.09-.93s1.16,1.86,1.16,2.09-1.16.7-1.16,0.93,1.16,0.46,1.16.93-1.16.93-1.16,1.39c0,0.23,1.16,0,1.16.46,0,0.23-.93,1.62-0.93,1.85s0,0.23.23,0.23,1.4-1.16,1.63-1.16m0.47-3c0-.23-0.7-0.7-0.7-0.93h0.93c0.23,0,.23-0.93.47-0.93a1.75,1.75,0,0,0,.46.93c0.23,0,.7-0.23.93-0.23a1.78,1.78,0,0,1-.46.7c0,0.23,1.16.46,1.16,0.7a2.11,2.11,0,0,0-1.16.23c0,0.23.46,0.7,0.46,0.93-0.23,0-.7-0.23-0.93-0.23s-0.46.7-.7,0.7a0.23,0.23,0,0,1-.23-0.23v-0.93h-0.93a2,2,0,0,1,.7-0.7m3.49,3.48c-1.16,0-2.09-.69-2.09-1.16l0.23-.23a11.41,11.41,0,0,1,1.63.7,0.23,0.23,0,0,0,.23-0.23,6,6,0,0,1-.47-1.16h0.23c0.46,0,1.16.23,1.63,0.23a0.23,0.23,0,0,0,.23-0.23c0-.46-1.16-1.16-1.16-1.39s1.4-.46,1.4-0.93-2.09,0-2.09-.46c0-.23.46-0.7,0.46-0.93h-0.23c-0.23,0-.93.23-1.4,0.23-0.23,0-.46,0-0.46-0.23,0-.46.7-0.93,1.86-0.93,1.86,0,3,1.16,3,3.25,0,2.78-1.86,3.48-3,3.48" transform="translate(-142.68 -282.93)" style="fill:#fff"/><path d="M164.32,322.57a0.85,0.85,0,0,1-.23.7,1.24,1.24,0,0,0-.93-0.7c-1.86,0-1.16,2.78-3.26,2.78a2.84,2.84,0,0,1-1.16-.23,0.23,0.23,0,0,0-.23.23c0,0.46.7,1.62,2.56,1.62s3.72-1.16,3.72-2.55a0.85,0.85,0,0,0-.23-0.7c0-.23.23-0.23,0.46-0.23s0.47,0.46.7,0.46a0.58,0.58,0,0,0,.47-0.7,0.46,0.46,0,0,0-.23-0.46,0.81,0.81,0,0,0,.23-0.46,0.74,0.74,0,0,0-.7-0.7l-0.23.23a1,1,0,0,0-.7-0.7,0.58,0.58,0,0,0-.47.7c0,0.23.23,0.46,0.23,0.69" transform="translate(-142.68 -282.93)" style="fill:#fff"/><path d="M159.44,323.27a1.34,1.34,0,0,1-1.39-.93c0-.23.23-0.23,0.46-0.23a1.25,1.25,0,0,1,1.16.93c0,0.23,0,.23-0.23.23m-5.12-3.94a2.74,2.74,0,0,1,2.33,2.09,2.28,2.28,0,0,0,.7,1.86,3.48,3.48,0,0,0,2.09.93c0.7,0,1.16-.23,1.16-0.7a2.45,2.45,0,0,0-2.1-2.09h-0.7a0.72,0.72,0,0,1-.46-0.23c-0.23-.23-0.47-1.62-0.93-2.55a2.23,2.23,0,0,0-2.09-1.16,1.34,1.34,0,0,0-1.4.93c0,0.23.23,0.46,1.4,0.93" transform="translate(-142.68 -282.93)" style="fill:#fff"/><path d="M163.39,317c0-.93-1.63-0.93-1.63-2.09a2.55,2.55,0,0,1,.7-1.39,1.54,1.54,0,0,0,1.16,1.62c1.86,0.7,1.86,1.62,1.86,2.55a3.71,3.71,0,0,1-4,3.71,4.12,4.12,0,0,1-4.19-3.94,0.91,0.91,0,0,1,.46-0.93,1.22,1.22,0,0,1,.7.46,4,4,0,0,0,3,.93c1.16,0,1.86-.47,1.86-0.93m0.23,1.39c-0.7.23-.93,0.23-0.93,0.7V320a0.23,0.23,0,0,0,.23.23,2.28,2.28,0,0,0,1.63-2.09c0-.23,0-0.23-0.23-0.23a3.3,3.3,0,0,0-.7.46m-6-9.27c0-1.16,2.79-1.85,2.79-3.25a1.39,1.39,0,0,0-.23-0.93A2.68,2.68,0,0,1,162,307c0,1.16-1.4,1.86-1.4,2.55,0,0.93,1.4,1.16,1.4,2.32,0,0.93-1.4,1.85-1.4,3.24a2,2,0,0,0,1.63,1.86H161.3c-1.86,0-3.72-1.39-3.72-3.25a4.12,4.12,0,0,1,.93-2.32,3.61,3.61,0,0,0,1.4.7c0.23,0,.47,0,0.47-0.23,0-.7-2.79-1.39-2.79-2.78" transform="translate(-142.68 -282.93)" style="fill:#fff"/><path d="M147.1,318.17a0.94,0.94,0,0,0,1.16.93,0.85,0.85,0,0,0,.7-0.23,1.1,1.1,0,0,0,1.4.93,1.06,1.06,0,0,0,.93-1.16v-0.46a1.47,1.47,0,0,0,1.16-1.39,1.3,1.3,0,0,0-1.4-1.16,0.88,0.88,0,0,0-.47.46,1.31,1.31,0,0,0-2.56.23,0.46,0.46,0,0,1,.23.46H148a1.14,1.14,0,0,0-.93,1.39m3.26-.7c0.23,0.23-.23.7-0.47,0.7a1,1,0,0,1-.93-0.7,0.74,0.74,0,0,1,.7-0.7,0.62,0.62,0,0,1,.7.7" transform="translate(-142.68 -282.93)" style="fill:#fff"/></svg>