<?xml version="1.0" encoding="utf-8"?>
<!-- Generator: Adobe Illustrator 19.2.0, SVG Export Plug-In . SVG Version: 6.00 Build 0)  -->
<svg version="1.1" id="Layer_1" xmlns="http://www.w3.org/2000/svg" xmlns:xlink="http://www.w3.org/1999/xlink" x="0px" y="0px"
	 viewBox="0 0 347.2 520.8" style="enable-background:new 0 0 347.2 520.8;" xml:space="preserve">
<style type="text/css">
	.st0{fill:#FFFFFF;}
</style>
<title>logo</title>
<path class="st0" d="M121.1,425.9c-3.1,0-5.8,1.9-6.9,4.8l-14,35.4l-1.3,4l-1.1-4.1L87,431.5c0-0.1-0.1-0.3-0.1-0.4V431l0,0
	c-1-2.9-3.8-4.9-6.9-4.9H62.5c-3.9,0.2-7,3.5-7,7.4c0.1,1.3,0.4,2.5,0.8,3.7l2.3,7.2L50,466l-1.4,4l-1.1-4l-10.8-34.5
	c0-0.1-0.1-0.3-0.1-0.4V431c-1-2.9-3.8-4.9-6.9-4.9H12.2c-3.9,0.2-7,3.5-7,7.4c0.1,1.3,0.4,2.5,0.8,3.7l26.3,78.1
	c1,3.9,5,6.3,8.9,5.3c2.4-0.6,4.4-2.5,5.2-4.9l18.3-46.4l1.3-4.1l1.1,4.1l15.4,46c0.8,3.2,3.8,5.5,7.1,5.5c3.3,0,6.2-2.2,7.1-5.4
	l31.1-79.1c0.5-1,0.7-2.1,0.7-3.2C128.4,429,125.1,425.8,121.1,425.9L121.1,425.9L121.1,425.9z"/>
<path class="st0" d="M251.5,425.9c-3.1,0-5.8,1.9-6.9,4.8l-13.9,35.4l-1.4,4l-1.1-4.1l-10.8-34.5c0-0.1-0.1-0.3-0.1-0.4V431l0,0
	c-1-2.9-3.8-4.9-6.9-4.9h-17.5c-3.9,0.2-7,3.5-7,7.4c0.1,1.3,0.4,2.5,0.8,3.7l2.3,7.2l-8.6,21.6l-1.4,4l-1.1-4l-10.8-34.5
	c0-0.1-0.1-0.3-0.1-0.4V431c-1-2.9-3.8-4.9-6.9-4.9h-17.5c-3.9,0.2-7,3.5-7,7.4c0.1,1.3,0.4,2.5,0.8,3.7l26.2,78.1
	c1,3.9,5,6.3,8.9,5.3c2.4-0.6,4.4-2.5,5.2-4.9l18.3-46.4l1.3-4.1l1.1,4.1l15.4,46c0.8,3.3,3.8,5.5,7.2,5.5c3.3,0,6.2-2.2,7.1-5.4
	l31-79.1c0.5-1,0.7-2.1,0.7-3.2c0-3.9-3.1-7.2-7.1-7.2C251.7,425.8,251.6,425.8,251.5,425.9L251.5,425.9L251.5,425.9z"/>
<path class="st0" d="M336.3,425.9h-61.2c-3.5,0-6.4,2.9-6.4,6.4l0,0v81.3l0,0c0.2,3.7,3.2,6.6,6.9,6.6h17.3c3.7-0.1,6.7-3.1,6.8-6.8
	v-38h24.9c3.7,0,6.7-3,6.7-6.8c0-3.7-3-6.7-6.8-6.7l0,0h-24.8v-21.6h36.9c3.9-0.1,7-3.3,6.9-7.2c0.1-4-3.1-7.2-7.1-7.3
	C336.4,426,336.4,425.9,336.3,425.9L336.3,425.9L336.3,425.9z"/>
<path class="st0" d="M241.4,167c11.2,12.4,12.3,49.5,40.3,34.8c16.8-8.9,16.6-46.3-5.8-59.8c-18.2-10.8-28.1,3.7-34.7,21.5
	C240.7,164.7,240.7,166,241.4,167L241.4,167z"/>
<path class="st0" d="M197.9,160.9c-11.6,9.7-19.6,36.3-41.2,27.3c-17.4-8.9-19-43.3,10.9-59.2c20.9-9.6,31.5,9.4,31.6,29.6
	C199.1,159.6,198.6,160.4,197.9,160.9L197.9,160.9L197.9,160.9z"/>
<path class="st0" d="M226.8,228.8c11.6-1.2,9-11.9,0.2-14.5c-9.1-2.6-18.6-3.8-28.1-3.7c-14.9,0.3-14.5,11.7-6.8,13.6
	c5.8,1.9,9.6,2.7,14.7,9.3C211.5,242.3,209.4,230.6,226.8,228.8L226.8,228.8L226.8,228.8z"/>
<path class="st0" d="M281.4,37c14.5-24.2,39.8-19.5,52.4-7.5c13.8,13.1,16.1,28.2,10.7,38.8c-7.2,14.3-25.8,31.6-37.9,14.8
	c-5.3-7.4-16.7-16.2-22.9-18.8C274.3,60.5,272.5,51.8,281.4,37L281.4,37L281.4,37z"/>
<path class="st0" d="M339.1,143.6c-1.3-4.3-3.4-4-3.4-0.5c1.3,44-25.1,91.2-81.4,91.5c-14.4,0.1-10.1,23.1-36.3,11.5
	c-18.9-12.7-29.7,12.3-43.2-14.7c-2.9-7.8-7.4-10.9-13.1-12.3c-55.6-13.8-73.3-90.3-24.3-152c9.6,5.8,13.2,6.7,23.6-2.8
	c5.4-4.9,14.4-10.4,19.4-12.3c11.7-4.4,18.1-9.5,8-31.9C175.3-9.1,148.5-0.8,136.3,9.3c-13.8,11.4-23.5,29.7-5.7,51.3
	c-49.8,33.6-58.3,74.8-57.1,110.7c1.1,38.1-8.6,34.8,3.6,73.7c1.1,3.4-1.4,3.3-3.1,2.2C22.1,214-5.9,112.7,74.9,56.9
	c1.8-1.5,1.1-3.7-5.5,0.1C-0.6,94-7,165.8,4.6,214c5.7,23.4-2.9,27.8,6.1,58.5c20.8,64,38.6,69.1,63.7,71
	c45.7,0,14.7-25.2,16.4-56.9c0-1.9,2.2-2.7,3.5,1.1c25.1,56.4,42.9,107.6,109,102.8c38.2-5,17-24,14.7-34.7
	c-28.2-93.4,40.1-115.3,20.8-24.3c-12.7,52.1,27.5,46.9,56,28.2C323.7,340.4,360.3,213.5,339.1,143.6L339.1,143.6L339.1,143.6z
	 M227.8,254c-6.3,16.7-39.2,11-40.2-5.2c0-0.7,0.9-0.5,1.3-0.4c14.6,3.4,28.5,5,37.9,5C227.1,253.3,228,253.1,227.8,254L227.8,254
	L227.8,254z"/>
<path class="st0" d="M84.3,370.9c0,8.4-6.9,15.3-15.3,15.3c-8.4,0-15.3-6.8-15.3-15.3c0-8.4,6.9-15.3,15.3-15.3c0,0,0,0,0,0
	C77.4,355.6,84.3,362.4,84.3,370.9z M69,352.6c-10.1,0-18.3,8.2-18.3,18.3s8.2,18.3,18.3,18.3s18.3-8.2,18.3-18.3l0,0
	C87.3,360.7,79.1,352.6,69,352.6L69,352.6z"/>
<path class="st0" d="M74.2,373.6c-0.4,2.3-2.4,3.9-4.7,3.8c-3.6,0-5.8-3.1-5.8-6.6c0-3.7,2-6.5,5.7-6.5c2.3-0.1,4.3,1.4,4.8,3.6h2.7
	c-0.6-4.1-3.7-6.2-7.5-6.2c-5.4,0-8.7,3.9-8.7,9.2c0,5.3,3.5,9.2,8.8,9.2c3.7,0,6.6-2.4,7.4-6.4L74.2,373.6L74.2,373.6z"/>
<path class="st0" d="M340.5,398.4c0,8.4-6.9,15.3-15.3,15.3c-8.4,0-15.3-6.8-15.3-15.3c0-8.4,6.9-15.3,15.3-15.3h0
	C333.6,383.2,340.5,390,340.5,398.4z M325.2,380.1c-10.1,0-18.3,8.2-18.3,18.3s8.2,18.3,18.3,18.3s18.3-8.2,18.3-18.3l0,0
	C343.5,388.3,335.3,380.2,325.2,380.1z"/>
<path class="st0" d="M322.1,399.6h3l4.6,7.5h2.9l-4.9-7.6c2.5-0.3,4.5-1.7,4.5-4.8c0-3.4-2-4.9-6.1-4.9h-6.6v17.3h2.6V399.6z
	 M322.1,397.4V392h3.6c1.8,0,3.8,0.4,3.8,2.6c0,2.7-2,2.8-4.2,2.8L322.1,397.4L322.1,397.4z"/>
</svg>
