<svg id="Layer_1" data-name="Layer 1" xmlns="http://www.w3.org/2000/svg" viewBox="0 0 189.5 84.88"><title>logo-ethemis-home</title><path d="M114.2,63l0.4-2.5a8.8,8.8,0,0,0,.6-1,8.8,8.8,0,0,0,.6-1l0.5-.5,0.5-.5,0.1-.9h0.8l0.5-.5c0-.3.1-0.6,0.1-0.9a6.15,6.15,0,0,0-1.3.1l-3.4,3.4a8.8,8.8,0,0,0-.6,1,8.79,8.79,0,0,0-.6,1l-0.1.6a10.08,10.08,0,0,1,1.9,1.7m27.6-44-0.9.9c-0.3.2-.6,0.3-0.9,0.5-0.1,1.4-.3,2.7-0.4,4.1v3.7l-6,.3c-1.3.2-2.6,0.3-3.8,0.5,0.2-.6.5-1.1,0.7-1.7a0.6,0.6,0,0,1,.1-0.4l-0.8.1c-0.3.2-.6,0.3-0.9,0.5l-0.9.9-0.5.5c-0.6.2-1.1,0.4-1.7,0.6-0.2.4-.4,0.9-0.6,1.3a4.05,4.05,0,0,0-.5.9l-0.1.4c0.6-.1,1.1-0.1,1.7-0.2l-0.6.9c-0.2.4-.4,0.9-0.6,1.3-0.2.6-.4,1.2-0.6,1.7a8.65,8.65,0,0,1-.7,1.7c-0.2.4-.4,0.9-0.6,1.3a13.35,13.35,0,0,1-.7,1.8l-1.2,2.7a13.35,13.35,0,0,1-.7,1.8c-0.2.6-.5,1.2-0.7,1.8-0.6,1.4-1.2,2.8-1.9,4.1l-0.6.9-0.1.5a4.87,4.87,0,0,0,1.2-.1l0.5-.5c0.2-.6.5-1.2,0.7-1.8l0.6-.9c0.4-.9.8-1.8,1.2-2.8a4.05,4.05,0,0,0,.5-0.9c0.2-.5.4-0.9,0.6-1.4s0.4-.9.6-1.4a4.05,4.05,0,0,0,.5-0.9l1.2-2.7c0.2-.4.4-0.9,0.6-1.3a4.05,4.05,0,0,0,.5-0.9c0.4-.9.8-1.8,1.2-2.6l0.4-1.3c0,0.3.1,0.6,0.1,0.9a2.61,2.61,0,0,0,.3.8l0.3,1.2c0.1,0.3.2,0.5,0.3,0.8l0.3,0.8c0.1,0.4.2,0.8,0.3,1.3a17.71,17.71,0,0,0,.6,1.7c0.1,0.4.2,0.9,0.3,1.3l0.3,0.9c0.1,0.4.2,0.9,0.3,1.3l0.3,0.9,0.3,0.9c0.1,0.4.2,0.9,0.3,1.3l0.3,0.9c0.1,0.5.2,0.9,0.3,1.4l0.4,0.9c0.1,0.5.2,0.9,0.3,1.4s0.5,1.2.7,1.9h-0.9c-0.2.3-.4,0.7-0.6,1-0.1.5-.1,1-0.2,1.5,0.1,0.2.3,0.3,0.4,0.5s0.3,0.3.4,0.5,0.3,0.3.4,0.5V58c0.1,0.2.3,0.3,0.4,0.5a0.9,0.9,0,0,1-.1.5l-0.3,3h0.5c0.2-.9.3-1.7,0.5-2.6,0,0.4.1,0.7,0.1,1.1-0.1,1.2-.3,2.4-0.4,3.5l-1.2,2.1-1.1,1.1-1,.5-0.5.5a8.8,8.8,0,0,1-1.5.5,8.8,8.8,0,0,1-1.5.5h-1.8c0,0.2-.2.7-0.2,0.8a30.79,30.79,0,0,0,4.9,1.3,8.51,8.51,0,0,0,1.7-.6c0.7-.4,1.4-0.7,2-1.1a2.36,2.36,0,0,0,.5-0.5,4.67,4.67,0,0,1,1-.5l0.5-.5,0.5-.5a2.36,2.36,0,0,0,.5-0.5c0.2-.4.4-0.7,0.6-1.1s0.4-.7.6-1.1a13.78,13.78,0,0,0,.6-1.6l0.3-3.1-0.3-1.5c-0.1-.3-0.3-0.7-0.4-1a2.18,2.18,0,0,0-.4-0.5c-0.1-.2-0.3-0.3-0.4-0.5a10.37,10.37,0,0,1-.4-1c-0.1-.2-0.3-0.3-0.4-0.5-0.3-.1-0.6-0.3-0.9-0.4-0.1-.2-0.3-0.3-0.4-0.5-0.3-.1-0.6-0.3-0.9-0.4a0.9,0.9,0,0,1,.1-0.5l0.5-.5,0.5-.5c0-.3.1-0.6,0.1-1a8.87,8.87,0,0,0-.3-1.4c-0.1-.5-0.2-0.9-0.3-1.4a3.55,3.55,0,0,0-.4-0.9c-0.1-.5-0.2-0.9-0.3-1.4l-0.6-2.7-0.3-.9c-0.2-.9-0.4-1.7-0.6-2.6a6.89,6.89,0,0,0-.3-0.8c-0.1-.4-0.2-0.9-0.3-1.3s-0.2-.8-0.3-1.3-0.2-.8-0.3-1.3l-0.3-1.2c-0.1-.3-0.2-0.5-0.3-0.8l-0.3-1.2-0.3-.9a14.92,14.92,0,0,0,2.1.2c3.5-.3,7.1-0.7,10.8-1s7.5-.7,11.5-1.1c-0.2.5-.4,0.9-0.6,1.4s-0.4,1.2-.6,1.9c-0.2.5-.4,0.9-0.6,1.4s-0.4,1.3-.6,1.9a9.75,9.75,0,0,1-.6,1.4c-0.2.6-.4,1.3-0.6,1.9s-0.4,1.3-.6,1.9l-0.6,1.5-0.6,1.5c-0.2.7-.4,1.3-0.6,2L148,47.7l-0.6,1.5c0,0.5-.1,1-0.1,1.5h0.5l1-.5,0.6-1.5c0.2-.7.4-1.3,0.6-2,0.2-.3.4-0.7,0.6-1l0.6-1.5,0.6-1.5c0.2-.3.4-0.7,0.6-1,0.4-1,.8-2,1.2-2.9,0.2-.3.4-0.7,0.6-1,0.4-1,.8-1.9,1.1-2.9a3.13,3.13,0,0,0,.5-1c0.2-.5.4-0.9,0.6-1.4s0.4-.9.6-1.4l0.3-1.4a2.92,2.92,0,0,1,.2.9c0.1,0.3.3,0.6,0.4,0.9s0.3,0.9.4,1.3a2.62,2.62,0,0,0,.5.9c0.1,0.5.3,0.9,0.4,1.4,0.2,0.3.3,0.6,0.5,0.9s0.3,0.6.5,0.9a7.84,7.84,0,0,0,.5,1.4c0.2,0.3.3,0.6,0.5,0.9,0.2,0.5.3,0.9,0.5,1.4s0.7,1.2,1,1.9c0.2,0.5.3,1,.5,1.5a9.29,9.29,0,0,1,.5,1,9.29,9.29,0,0,1,.5,1c0.2,0.5.3,1,.5,1.5,0.2,0.3.6,1.4,0.8,1.8a27.22,27.22,0,0,0,1-5.7c-0.2-.5-0.4-1.1-0.6-1.6s-0.3-1-.5-1.4-0.3-.9-0.5-1.4c-0.2-.3-0.3-0.6-0.5-0.9-0.2-.5-0.3-0.9-0.5-1.4L163,34.2c-0.2-.4-0.3-0.9-0.5-1.4-0.2-.3-0.3-0.6-0.5-0.9s-0.3-.9-0.5-1.3-0.3-.9-0.5-1.3a13.55,13.55,0,0,1,2-.2V28.2l-0.5.1c-0.2-.4-0.3-0.9-0.5-1.3a5.58,5.58,0,0,0-.5-0.8c-0.7-.1-1.3-0.1-2-0.2-0.1-.4-0.3-0.8-0.4-1.3a1.76,1.76,0,0,1-.5-0.4c-0.3,0-.7.1-1,0.1l-0.5.5-1,1v0.9c-4.6.6-9.1,1.1-13.5,1.6,0-.4.1-0.8,0.1-1.3l0.3-7.8c0-.4.1-0.8,0.1-1.2l-1.3.2C142.2,18.2,142,18.6,141.8,19Z" transform="translate(0 0.01)" style="fill:#fff"/><path d="M152.2,66.4h-0.8c-0.3-.1-0.5-0.3-0.8-0.4l-1.1-.4a1.51,1.51,0,0,0-.4-0.4c-0.2-.1-0.5-0.3-0.7-0.4-0.2-.3-0.5-0.5-0.7-0.8a1.51,1.51,0,0,0-.4-0.4c-0.1-.3-0.2-0.5-0.3-0.8l-0.3-1.2c0-.5.1-1,0.1-1.5,0.2-.4.3-0.8,0.5-1.2a5.9,5.9,0,0,0,.4-0.8l0.4-.4a2.2,2.2,0,0,1,.1-0.8h0.7l0.4-.4c0.1-.3.3-0.5,0.4-0.8V55.3c-0.6,0-1.2.1-1.9,0.1a1.7,1.7,0,0,1-.1.7l-1.2,1.2-0.4.4-0.4.4c-0.1.3-.3,0.5-0.4,0.8a10.41,10.41,0,0,1-.5,1.2l-0.2,2.3,0.3,1.2c0.1,0.3.2,0.5,0.3,0.8,0.1,0.1.2,0.3,0.3,0.4,0.2,0.3.5,0.5,0.7,0.8a1.51,1.51,0,0,0,.4.4c0.1,0.1.2,0.3,0.3,0.4a1.51,1.51,0,0,0,.4.4c0.2,0.1.5,0.3,0.7,0.4a1.51,1.51,0,0,0,.4.4c0.2,0.1.5,0.3,0.7,0.4a4.17,4.17,0,0,0,.6.2l2.5-1.8" transform="translate(0 0.01)" style="fill:#fff"/><path d="M149.6,69.5L155,80.6a42.43,42.43,0,1,1,23.9-38.2v0.4l-59,.3c-1,0,45.8-6,45.6-6.9a21.84,21.84,0,0,0-1.7-5.1,28,28,0,0,0-6.4-9.4,29.82,29.82,0,1,0-21.1,50.9,31.74,31.74,0,0,0,13.3-3.1" transform="translate(0 0.01)" style="fill:#fff"/><path d="M157,62.5h-4.3V60.4H157v2.1Zm1.1-.8a3.24,3.24,0,0,0-.9-2.4,3,3,0,0,0-2.4-1,2.76,2.76,0,0,0-2.3,1,3.92,3.92,0,0,0,0,5,2.9,2.9,0,0,0,2.3,1,3,3,0,0,0,2.4-1,4.11,4.11,0,0,0,.9-2.6h0Zm2.9,0a5.45,5.45,0,0,1-1.8,4.2,6.13,6.13,0,0,1-4.4,1.6,5.89,5.89,0,0,1-4.3-1.6,5.45,5.45,0,0,1-1.8-4.2,5.3,5.3,0,0,1,1.8-4.2,6.85,6.85,0,0,1,8.8,0A5.42,5.42,0,0,1,161,61.7Z" transform="translate(0 0.01)" style="fill:#fff"/><path d="M177.6,67.3h-2.2v-1a1.56,1.56,0,0,1-.6.8,1.93,1.93,0,0,1-1,.3,1.62,1.62,0,0,1-1.6-1.1V71h-2.5V59.7h2.4v3.7q0,2.4,1.5,2.4a1.13,1.13,0,0,0,1.2-.7,3.34,3.34,0,0,0,.3-1.5v-4h2.4v7.7" transform="translate(0 0.01)" style="fill:#fff"/><path d="M189.4,61.9a4.92,4.92,0,0,0-2-.5,2.54,2.54,0,0,0-1.6.5,1.8,1.8,0,0,0-.7,1.5,1.93,1.93,0,0,0,1.6,2c1.3,0.4,2,.9,2.2,1.6a4.33,4.33,0,0,0,.1.5,1.92,1.92,0,0,1-.4,1.2,9.24,9.24,0,0,1-1.2,1.6l-1.4-.5a2.91,2.91,0,0,0,.9-1.6,0.76,0.76,0,0,0-.7-0.8,5.86,5.86,0,0,1-2.1-1,3.68,3.68,0,0,1-1.5-3.2,3.41,3.41,0,0,1,1.3-2.8,4.36,4.36,0,0,1,3-1,8.51,8.51,0,0,1,2.6.5v2" transform="translate(0 0.01)" style="fill:#fff"/><rect x="179.4" y="59.71" width="2.4" height="7.7" style="fill:#fff"/><path d="M168.7,66.5a6.12,6.12,0,0,1-1.5.7,7.93,7.93,0,0,1-1.7.2A6.25,6.25,0,0,1,163,67a2,2,0,0,1-1.4-1.9q0-1.35,2.1-1.8c-1.2-.2-1.8-0.7-1.8-1.7a1.87,1.87,0,0,1,1.4-1.7,6,6,0,0,1,2.4-.4,7.09,7.09,0,0,1,2.8.8V62a5.6,5.6,0,0,0-2.7-.8,1.85,1.85,0,0,0-.7.2,0.51,0.51,0,0,0-.4.5c0,0.5.4,0.8,1.3,0.8h1.3v1.4h-0.9a4.51,4.51,0,0,0-1.3.1,0.81,0.81,0,0,0-.3,1.5,1.88,1.88,0,0,0,.8.2,7.22,7.22,0,0,0,3.2-.8v1.4m-0.4-10.7L166,58.6h-1.1l1.7-2.8h1.8Z" transform="translate(0 0.01)" style="fill:#fff"/><polyline points="22 21.21 22 9.71 30.1 9.71 30.1 11.71 24.1 11.71 24.1 14.31 29.7 14.31 29.7 16.21 24.1 16.21 24.1 19.21 30.6 19.21 30.6 21.21 22 21.21" style="fill:#fff"/><polyline points="32 21.21 32 9.71 33.9 9.71 38.8 17.91 38.8 9.71 40.8 9.71 40.8 21.21 38.8 21.21 33.9 13.01 33.9 21.21 32 21.21" style="fill:#fff"/><path d="M48.7,19.1a2.89,2.89,0,0,0,2-1.4,4.87,4.87,0,0,0,.6-2.5,4.78,4.78,0,0,0-.8-2.7,3.2,3.2,0,0,0-5,0,4.55,4.55,0,0,0-.8,2.7,4.75,4.75,0,0,0,.6,2.4,3.09,3.09,0,0,0,1.9,1.5v2.1H42.4V19.3h1.7a5.06,5.06,0,0,1-1.7-4.1,5.92,5.92,0,0,1,1.5-4.1A5,5,0,0,1,48,9.4a5.5,5.5,0,0,1,4.1,1.7,5.92,5.92,0,0,1,1.5,4.1,5.06,5.06,0,0,1-1.7,4.1h1.8v1.9h-5V19.1" transform="translate(0 0.01)" style="fill:#fff"/><polyline points="57.6 11.61 63.4 11.61 63.4 9.71 54.8 9.71 54.8 11.61 57.7 15.01 54.6 19.31 54.6 21.21 63.6 21.21 63.6 19.31 57.4 19.31 60.5 15.01 57.6 11.61" style="fill:#fff"/><polyline points="64.9 21.21 64.9 9.71 67.1 9.71 67.1 14.01 72.1 14.01 72.1 9.71 74.2 9.71 74.2 21.21 72.1 21.21 72.1 16.01 67.1 16.01 67.1 21.21 64.9 21.21" style="fill:#fff"/><polyline points="0 39.21 0 27.71 8.2 27.71 8.2 29.71 2.2 29.71 2.2 32.31 7.7 32.31 7.7 34.21 2.2 34.21 2.2 37.21 8.6 37.21 8.6 39.21 0 39.21" style="fill:#fff"/><path d="M14,29.8h0l-2.9,9.4H8.8l3.9-11.5h2.5l3.9,11.5H16.8c0-.3-1-3.5-2.8-9.4" transform="translate(0 0.01)" style="fill:#fff"/><path d="M24.2,29.8h0l-2.8,9.4H19.1L23,27.7h2.5l3.8,11.5H27c0-.3-1-3.5-2.8-9.4" transform="translate(0 0.01)" style="fill:#fff"/><polyline points="30.4 39.21 30.4 27.71 32.5 27.71 32.5 32.01 37.5 32.01 37.5 27.71 39.7 27.71 39.7 39.21 37.5 39.21 37.5 34.01 32.5 34.01 32.5 39.21 30.4 39.21" style="fill:#fff"/><polyline points="41.9 39.21 41.9 27.71 43.8 27.71 48.7 35.91 48.7 27.71 50.7 27.71 50.7 39.21 48.7 39.21 43.8 31.01 43.8 39.21 41.9 39.21" style="fill:#fff"/><path d="M58.6,37.1a2.89,2.89,0,0,0,2-1.4,4.87,4.87,0,0,0,.6-2.5,4.78,4.78,0,0,0-.8-2.7,3.2,3.2,0,0,0-5,0,5.38,5.38,0,0,0-.7,2.7,4.75,4.75,0,0,0,.6,2.4,3.09,3.09,0,0,0,1.9,1.5v2.1H52.4V37.3h1.7a5.06,5.06,0,0,1-1.7-4.1,5.92,5.92,0,0,1,1.5-4.1A5,5,0,0,1,58,27.4a5.5,5.5,0,0,1,4.1,1.7,5.92,5.92,0,0,1,1.5,4.1,5.06,5.06,0,0,1-1.7,4.1h1.7v1.9H58.7l-0.1-2.1" transform="translate(0 0.01)" style="fill:#fff"/><polyline points="65.3 39.21 65.3 27.71 67.3 27.71 72.2 35.91 72.2 27.71 74.1 27.71 74.1 39.21 72.2 39.21 67.3 31.01 67.3 39.21 65.3 39.21" style="fill:#fff"/><polyline points="1.6 57.21 1.6 45.61 3.6 45.61 8.5 53.91 8.5 45.61 10.5 45.61 10.5 57.21 8.5 57.21 3.6 49.01 3.6 57.21 1.6 57.21" style="fill:#fff"/><path d="M17.8,45.3a5.24,5.24,0,0,1,4.1,1.8,6.18,6.18,0,0,1,1.5,4.2,6,6,0,0,1-1.5,4.2,5.1,5.1,0,0,1-4.1,1.8,5.24,5.24,0,0,1-4.1-1.8,6.18,6.18,0,0,1-1.5-4.2,6,6,0,0,1,1.5-4.2,5.42,5.42,0,0,1,4.1-1.8m0,2.1a2.76,2.76,0,0,0-2.5,1.3,4.88,4.88,0,0,0-.8,2.8,5.12,5.12,0,0,0,.8,2.8,3,3,0,0,0,5,0,4.88,4.88,0,0,0,.8-2.8,5.12,5.12,0,0,0-.8-2.8A2.88,2.88,0,0,0,17.8,47.4Z" transform="translate(0 0.01)" style="fill:#fff"/><polyline points="25 57.21 25 45.61 28.3 45.61 30.4 54.61 30.4 54.61 32.6 45.61 35.8 45.61 35.8 57.21 33.7 57.21 33.7 47.61 31.4 57.21 29.4 57.21 27.1 47.61 27.1 57.21 25 57.21" style="fill:#fff"/><rect x="38" y="45.61" width="2.2" height="11.5" style="fill:#fff"/><polyline points="42.4 57.21 42.4 45.61 44.6 45.61 44.6 50.81 49.1 45.61 51.7 45.61 47.9 50.01 52 57.21 49.5 57.21 46.4 51.81 44.6 53.91 44.6 57.21 42.4 57.21" style="fill:#fff"/><path d="M58.6,55.1a2.89,2.89,0,0,0,2-1.4,4.87,4.87,0,0,0,.6-2.5,4.78,4.78,0,0,0-.8-2.7,3.2,3.2,0,0,0-5,0,5.38,5.38,0,0,0-.7,2.7,4.75,4.75,0,0,0,.6,2.4,3.09,3.09,0,0,0,1.9,1.5v2.1H52.4V55.3h1.7a5.06,5.06,0,0,1-1.7-4.1,5.92,5.92,0,0,1,1.5-4.1A5,5,0,0,1,58,45.4a5.5,5.5,0,0,1,4.1,1.7,5.92,5.92,0,0,1,1.5,4.1,5.06,5.06,0,0,1-1.7,4.1h1.7v1.9H58.7l-0.1-2.1" transform="translate(0 0.01)" style="fill:#fff"/><polyline points="65.3 57.21 65.3 45.61 67.3 45.61 72.2 53.91 72.2 45.61 74.1 45.61 74.1 57.21 72.2 57.21 67.3 49.01 67.3 57.21 65.3 57.21" style="fill:#fff"/><path d="M14.2,70h4a1.62,1.62,0,0,0-.4-1,1.82,1.82,0,0,0-1.4-.6,2.17,2.17,0,0,0-1.4.5,1.67,1.67,0,0,0-.8,1.1m6,1.5H14.1a1.8,1.8,0,0,0,.7,1.5,2,2,0,0,0,1.4.6,2.85,2.85,0,0,0,2.4-1.2l1.7,1a4.55,4.55,0,0,1-4,2,4.14,4.14,0,0,1-3.1-1.2,4.92,4.92,0,0,1,0-6.2,4.14,4.14,0,0,1,3.1-1.2C18.9,66.8,20.2,68.4,20.2,71.5Z" transform="translate(0 0.01)" style="fill:#fff"/><rect x="21.3" y="69.51" width="4" height="1.8" style="fill:#fff"/><path d="M35.4,70.3H29a3.69,3.69,0,0,0,.9,2.2,3.08,3.08,0,0,0,2.3,1,2.76,2.76,0,0,0,2.3-1,4.87,4.87,0,0,0,.9-2.2m-6.3-2.1h6.3a3.79,3.79,0,0,0-1-2,3.14,3.14,0,0,0-4.4,0A3.37,3.37,0,0,0,29.1,68.2Zm8.6,1.2a6,6,0,0,1-1.5,4.2,5.1,5.1,0,0,1-4.1,1.8A5.24,5.24,0,0,1,28,73.6a6.63,6.63,0,0,1,0-8.4,5.1,5.1,0,0,1,4.1-1.8,5.24,5.24,0,0,1,4.1,1.8A6,6,0,0,1,37.7,69.4Z" transform="translate(0 0.01)" style="fill:#fff"/><polyline points="39.4 75.21 39.4 63.61 47.6 63.61 47.6 65.61 41.6 65.61 41.6 68.31 47.1 68.31 47.1 70.21 41.6 70.21 41.6 73.21 48 73.21 48 75.21 39.4 75.21" style="fill:#fff"/><polyline points="49.3 75.21 49.3 63.61 52.6 63.61 54.7 72.61 54.8 72.61 56.9 63.61 60.1 63.61 60.1 75.21 58 75.21 58 65.51 55.7 75.21 53.7 75.21 51.4 65.51 51.4 75.21 49.3 75.21" style="fill:#fff"/><rect x="62.3" y="63.61" width="2.2" height="11.5" style="fill:#fff"/><polyline points="69 65.51 74.8 65.51 74.8 63.61 66.2 63.61 66.2 65.51 69.1 69.01 66 73.31 66 75.21 75 75.21 75 73.31 68.8 73.31 71.9 69.01 69 65.51" style="fill:#fff"/><rect x="80.8" y="4.71" width="3" height="75.5" style="fill:#fff"/></svg>