<?xml version="1.0" encoding="utf-8"?>
<!-- Generator: Adobe Illustrator 19.2.0, SVG Export Plug-In . SVG Version: 6.00 Build 0)  -->
<svg version="1.1" id="Layer_1" xmlns="http://www.w3.org/2000/svg" xmlns:xlink="http://www.w3.org/1999/xlink" x="0px" y="0px"
	 viewBox="0 0 1421.5 249.3" style="enable-background:new 0 0 1421.5 249.3;" xml:space="preserve">
<style type="text/css">
	.st0{fill:#FFFFFF;}
</style>
<title>wwf-logo-white-plus</title>
<path class="st0" d="M336.7,183.5l1.2-7.3c0.6-0.9,1.2-1.9,1.7-2.9c0.6-0.9,1.2-1.9,1.7-2.9l1.5-1.5l1.5-1.5l0.3-2.6h2.3l1.5-1.5
	c0-0.9,0.3-1.7,0.3-2.6c-1.3,0-2.5,0.1-3.8,0.3l-9.9,9.9c-0.6,0.9-1.2,1.9-1.7,2.9c-0.6,0.9-1.2,1.9-1.7,2.9l-0.3,1.7
	C333.2,180,335,181.7,336.7,183.5 M417.1,55.4l-2.6,2.6c-0.9,0.6-1.7,0.9-2.6,1.5c-0.3,4.1-0.9,7.9-1.2,11.9v10.8L393.2,83
	c-3.8,0.6-7.6,0.9-11.1,1.5c0.6-1.7,1.5-3.2,2-5c0-0.4,0.1-0.8,0.3-1.2l-2.3,0.3c-0.9,0.6-1.7,0.9-2.6,1.5l-2.6,2.6l-1.5,1.5
	c-1.7,0.6-3.2,1.2-5,1.7c-0.6,1.2-1.2,2.6-1.7,3.8c-0.6,0.8-1.1,1.7-1.5,2.6l-0.3,1.2c1.7-0.3,3.2-0.3,5-0.6l-1.7,2.6
	c-0.6,1.2-1.2,2.6-1.7,3.8c-0.6,1.7-1.2,3.5-1.7,5c-0.5,1.7-1.2,3.4-2,5c-0.6,1.2-1.2,2.6-1.7,3.8c-0.6,1.8-1.2,3.5-2,5.2l-3.5,7.9
	c-0.6,1.8-1.2,3.5-2,5.2c-0.6,1.7-1.5,3.5-2,5.2c-1.7,4.1-3.5,8.2-5.5,11.9l-1.7,2.6l-0.3,1.5c1.2,0,2.3,0,3.5-0.3l1.5-1.5
	c0.6-1.7,1.5-3.5,2-5.2l1.7-2.6c1.2-2.6,2.3-5.2,3.5-8.2c0.6-0.8,1.1-1.7,1.5-2.6c0.6-1.5,1.2-2.6,1.7-4.1s1.2-2.6,1.7-4.1
	c0.6-0.8,1.1-1.7,1.5-2.6l3.5-7.9c0.6-1.2,1.2-2.6,1.7-3.8c0.6-0.8,1.1-1.7,1.5-2.6c1.2-2.6,2.3-5.2,3.5-7.6l1.2-3.8
	c0,0.9,0.3,1.7,0.3,2.6c0,0.9,0.6,1.5,0.9,2.3l0.9,3.5c0.3,0.9,0.6,1.5,0.9,2.3l0.9,2.3c0.3,1.2,0.6,2.3,0.9,3.8
	c0.3,1.5,1.2,3.2,1.7,5c0.3,1.2,0.6,2.6,0.9,3.8l0.9,2.6c0.3,1.2,0.6,2.6,0.9,3.8l0.9,2.6l0.9,2.6c0.3,1.2,0.6,2.6,0.9,3.8l0.9,2.6
	c0.3,1.5,0.6,2.6,0.9,4.1l1.2,2.6c0.3,1.5,0.6,2.6,0.9,4.1c0.3,1.5,1.5,3.5,2,5.5h-2.6c-0.6,0.9-1.2,2-1.7,2.9
	c-0.3,1.5-0.3,2.9-0.6,4.4c0.3,0.6,0.9,0.9,1.2,1.5c0.3,0.6,0.9,0.9,1.2,1.5c0.3,0.6,0.9,0.9,1.2,1.5v1.5c0.3,0.6,0.9,0.9,1.2,1.5
	c0,0.5-0.1,1-0.3,1.5l-0.9,8.7h1.5c0.6-2.6,0.9-5,1.5-7.6c0,1.2,0.3,2,0.3,3.2c-0.3,3.5-0.9,7-1.2,10.2l-3.5,6.1l-3.2,3.2l-2.9,1.5
	l-1.5,1.5c-1.4,0.6-2.9,1.1-4.4,1.5c-1.4,0.6-2.9,1.1-4.4,1.5h-5.2c0,0.6-0.6,2-0.6,2.3c4.6,1.7,9.4,2.9,14.3,3.8
	c1.7-0.4,3.4-1,5-1.7c2-1.2,4.1-2,5.8-3.2c0.6-0.4,1-0.9,1.5-1.5c0.9-0.6,1.9-1.1,2.9-1.5l1.5-1.5l1.5-1.5c0.6-0.4,1-0.9,1.5-1.5
	c0.6-1.2,1.2-2,1.7-3.2c0.6-1.2,1.2-2,1.7-3.2c0.6-1.2,1.2-2.9,1.7-4.7l0.9-9l-0.9-4.4c-0.3-0.9-0.9-2-1.2-2.9s-0.9-0.9-1.2-1.5
	c-0.3-0.6-0.9-0.9-1.2-1.5c-0.4-1-0.8-1.9-1.2-2.9c-0.3-0.6-0.9-0.9-1.2-1.5c-0.9-0.3-1.7-0.9-2.6-1.2c-0.3-0.6-0.9-0.9-1.2-1.5
	c-0.9-0.3-1.7-0.9-2.6-1.2c0-0.5,0.1-1,0.3-1.5l1.5-1.5l1.5-1.5c0-0.9,0.3-1.7,0.3-2.9s-0.6-2.6-0.9-4.1c-0.3-1.5-0.6-2.6-0.9-4.1
	c-0.3-0.9-0.7-1.8-1.2-2.6c-0.3-1.5-0.6-2.6-0.9-4.1l-1.7-7.9l-0.9-2.6c-0.6-2.6-1.2-5-1.7-7.6c-0.2-0.8-0.5-1.6-0.9-2.3
	c-0.3-1.2-0.6-2.6-0.9-3.8c-0.3-1.2-0.6-2.3-0.9-3.8c-0.3-1.5-0.6-2.3-0.9-3.8l-0.9-3.5c-0.3-0.9-0.6-1.5-0.9-2.3l-0.9-3.5l-0.9-2.6
	c2,0.3,4.1,0.5,6.1,0.6c10.2-0.9,20.7-2,31.5-2.9c10.8-0.9,21.8-2,33.5-3.2c-0.6,1.5-1.2,2.6-1.7,4.1c-0.6,1.5-1.2,3.5-1.7,5.5
	c-0.6,1.5-1.2,2.6-1.7,4.1c-0.6,1.5-1.2,3.8-1.7,5.5c-0.6,1.7-1.2,2.9-1.7,4.1c-0.6,1.7-1.2,3.8-1.7,5.5c-0.6,1.7-1.2,3.8-1.7,5.5
	l-1.7,4.4l-1.7,4.4c-0.6,2-1.2,3.8-1.7,5.8l-1.7,4.4l-1.7,4.4c0,1.5-0.3,2.9-0.3,4.4h1.5l2.9-1.5l1.7-4.4c0.6-2,1.2-3.8,1.7-5.8
	c0.6-0.9,1.2-2,1.7-2.9l1.7-4.4l1.7-4.4c0.6-0.9,1.2-2,1.7-2.9c1.2-2.9,2.3-5.8,3.5-8.4c0.6-0.9,1.2-2,1.7-2.9
	c1.2-2.9,2.3-5.5,3.2-8.4c0.7-0.9,1.1-1.9,1.5-2.9c0.6-1.5,1.2-2.6,1.7-4.1c0.6-1.5,1.2-2.6,1.7-4.1l0.9-4.1
	c0.3,0.8,0.5,1.7,0.6,2.6c0.3,0.9,0.9,1.7,1.2,2.6c0.3,0.9,0.9,2.6,1.2,3.8c0.3,1.2,0.9,1.7,1.5,2.6c0.3,1.5,0.9,2.6,1.2,4.1
	c0.6,0.9,0.9,1.7,1.5,2.6s0.9,1.7,1.5,2.6c0.4,1.4,0.8,2.8,1.5,4.1c0.6,0.9,0.9,1.7,1.5,2.6c0.6,1.5,0.9,2.6,1.5,4.1s2,3.5,2.9,5.5
	c0.6,1.5,0.9,2.9,1.5,4.4c0.5,0.9,1,1.9,1.5,2.9c0.5,0.9,1,1.9,1.5,2.9c0.6,1.5,0.9,2.9,1.5,4.4c0.6,0.9,1.7,4.1,2.3,5.2
	c1.6-5.4,2.5-11,2.9-16.6c-0.6-1.5-1.2-3.2-1.7-4.7s-0.9-2.9-1.5-4.1c-0.6-1.2-0.9-2.6-1.5-4.1c-0.6-0.9-0.9-1.7-1.5-2.6
	c-0.6-1.5-0.9-2.6-1.5-4.1l-2.6-7.9c-0.6-1.2-0.9-2.6-1.5-4.1c-0.6-0.9-0.9-1.7-1.5-2.6c-0.6-0.9-0.9-2.6-1.5-3.8
	c-0.6-1.2-0.9-2.6-1.5-3.8c1.9-0.3,3.9-0.5,5.8-0.6v-2.6l-1.5,0.3c-0.6-1.2-0.9-2.6-1.5-3.8c-0.4-0.8-0.9-1.6-1.5-2.3
	c-2-0.3-3.8-0.3-5.8-0.6c-0.3-1.2-0.9-2.3-1.2-3.8c-0.6-0.3-1-0.7-1.5-1.2c-0.9,0-2,0.3-2.9,0.3l-1.5,1.5l-2.9,2.9v2.6
	c-13.4,1.7-26.5,3.2-39.3,4.7c0-1.2,0.3-2.3,0.3-3.8l0.9-22.7c0-1.2,0.3-2.3,0.3-3.5l-3.8,0.6C418.2,53,417.6,54.2,417.1,55.4z"/>
<path class="st0" d="M447.3,193.4H445c-0.9-0.3-1.5-0.9-2.3-1.2s-2.3-0.9-3.2-1.2c-0.3-0.5-0.7-0.9-1.2-1.2c-0.6-0.3-1.5-0.9-2-1.2
	c-0.6-0.9-1.5-1.5-2-2.3c-0.3-0.5-0.7-0.9-1.2-1.2c-0.3-0.9-0.6-1.5-0.9-2.3l-0.9-3.5c0-1.5,0.3-2.9,0.3-4.4
	c0.6-1.2,0.9-2.3,1.5-3.5s0.9-1.5,1.2-2.3l1.2-1.2c0-0.8,0.1-1.6,0.3-2.3h2l1.2-1.2c0.3-0.9,0.9-1.5,1.2-2.3v-1.2
	c-1.7,0-3.5,0.3-5.5,0.3c0,0.7-0.1,1.4-0.3,2l-3.5,3.5l-1.2,1.2l-1.2,1.2c-0.3,0.9-0.9,1.5-1.2,2.3c-0.3,0.9-0.9,2.3-1.5,3.5
	l-0.6,6.7l0.9,3.5c0.3,0.9,0.6,1.5,0.9,2.3c0.3,0.3,0.6,0.9,0.9,1.2c0.6,0.9,1.5,1.5,2,2.3c0.3,0.5,0.7,0.9,1.2,1.2
	c0.3,0.3,0.6,0.9,0.9,1.2c0.3,0.5,0.7,0.9,1.2,1.2c0.6,0.3,1.5,0.9,2,1.2c0.3,0.5,0.7,0.9,1.2,1.2c0.6,0.3,1.5,0.9,2,1.2
	c0.6,0.2,1.2,0.4,1.7,0.6L447.3,193.4"/>
<path class="st0" d="M439.8,202.5l15.7,32.3c-61.4,29.8-135.4,4.2-165.2-57.2s-4.2-135.4,57.2-165.2s135.4-4.2,165.2,57.2
	c8.2,16.8,12.4,35.2,12.4,53.9v1.2l-171.9,0.9c-2.9,0,133.4-17.5,132.8-20.1c-1-5.1-2.7-10.1-5-14.9c-4.3-10.3-10.6-19.6-18.6-27.4
	c-33.9-33.9-88.9-33.9-122.8,0s-33.9,88.9,0,122.8c16.3,16.3,38.4,25.5,61.4,25.5C414.4,211.3,427.7,208.3,439.8,202.5"/>
<path class="st0" d="M461.3,182.1h-12.5V176h12.5V182.1z M464.5,179.7c0.1-2.6-0.8-5.1-2.6-7c-1.8-2-4.3-3.1-7-2.9
	c-2.6-0.2-5.1,0.9-6.7,2.9c-3.5,4.2-3.5,10.3,0,14.6c1.7,1.9,4.1,3,6.7,2.9c2.7,0.1,5.2-0.9,7-2.9
	C463.6,185.2,464.6,182.5,464.5,179.7L464.5,179.7z M473,179.7c0.1,4.6-1.8,9.1-5.2,12.2c-3.5,3.2-8.1,4.9-12.8,4.7
	c-4.6,0.2-9.2-1.5-12.5-4.7c-3.5-3.1-5.4-7.6-5.2-12.2c-0.2-4.7,1.7-9.2,5.2-12.2c7.4-6.2,18.2-6.2,25.6,0
	C471.4,170.7,473.2,175.1,473,179.7z"/>
<path class="st0" d="M521.3,196.1h-6.4v-2.9c-0.3,0.9-0.9,1.8-1.7,2.3c-0.9,0.6-1.9,0.9-2.9,0.9c-2.1,0.1-4-1.2-4.7-3.2v13.7h-7.3
	v-32.9h7v10.8c0,4.7,1.5,7,4.4,7c1.5,0.2,2.9-0.6,3.5-2c0.6-1.4,0.9-2.9,0.9-4.4v-11.7h7v22.4"/>
<path class="st0" d="M555.7,180.3c-1.8-0.9-3.8-1.4-5.8-1.5c-1.7-0.1-3.3,0.5-4.7,1.5c-1.3,1-2.1,2.7-2,4.4
	c-0.1,2.8,1.9,5.3,4.7,5.8c3.8,1.2,5.8,2.6,6.4,4.7c0.1,0.5,0.2,1,0.3,1.5c0,1.3-0.4,2.5-1.2,3.5c-1,1.7-2.2,3.2-3.5,4.7l-4.1-1.5
	c1.4-1.2,2.3-2.9,2.6-4.7c0.1-1.2-0.8-2.2-2-2.3c-2.2-0.6-4.3-1.5-6.1-2.9c-3-2.2-4.6-5.7-4.4-9.3c-0.1-3.2,1.3-6.2,3.8-8.2
	c2.4-2,5.6-3.1,8.7-2.9c2.6,0.1,5.1,0.6,7.6,1.5v5.8"/>
<rect x="526.6" y="173.9" class="st0" width="7" height="22.4"/>
<path class="st0" d="M495.4,193.7c-1.4,0.9-2.8,1.6-4.4,2c-1.6,0.4-3.3,0.6-5,0.6c-2.5,0.1-5-0.3-7.3-1.2c-2.4-0.8-4.1-3-4.1-5.5
	c0-2.6,2-4.4,6.1-5.2c-3.5-0.6-5.2-2-5.2-5c0.1-2.4,1.8-4.4,4.1-5c2.2-0.9,4.6-1.3,7-1.2c2.9,0.2,5.6,1,8.2,2.3v5
	c-2.4-1.4-5.1-2.2-7.9-2.3c-0.7,0.1-1.4,0.3-2,0.6c-0.7,0.2-1.2,0.8-1.2,1.5c0,1.5,1.2,2.3,3.8,2.3h3.8v4.1h-2.6
	c-1.3-0.1-2.5,0-3.8,0.3c-1.3,0.2-2.2,1.4-2,2.7c0.1,0.7,0.5,1.3,1.1,1.7c0.7,0.4,1.5,0.6,2.3,0.6c3.2,0,6.4-0.8,9.3-2.3v4.1
	 M494.5,162.6l-7,8.2h-3.2l5-8.2H494.5z"/>
<polyline class="st0" points="68.1,61.8 68.1,28.3 91.7,28.3 91.7,34.1 74.2,34.1 74.2,41.7 90.5,41.7 90.5,47.2 74.2,47.2 
	74.2,55.9 93.1,55.9 93.1,61.8 68.1,61.8 "/>
<polyline class="st0" points="97.2,61.8 97.2,28.3 102.7,28.3 117,52.2 117,28.3 122.8,28.3 122.8,61.8 117,61.8 102.7,37.9 
	102.7,61.8 97.2,61.8 "/>
<path class="st0" d="M145.9,55.7c2.4-0.4,4.6-1.9,5.8-4.1c1.2-2.2,1.8-4.7,1.7-7.3c0-2.8-0.8-5.5-2.3-7.9c-3.2-4-9.1-4.7-13.1-1.5
	c-0.5,0.4-1,0.9-1.5,1.5c-1.6,2.3-2.4,5.1-2.3,7.9c0,2.4,0.6,4.9,1.7,7c1.2,2.1,3.2,3.7,5.5,4.4v6.1h-14v-5.5h5
	c-3.4-3-5.2-7.4-5-11.9c-0.1-4.4,1.4-8.7,4.4-11.9c3-3.4,7.4-5.3,11.9-5c4.5-0.1,8.8,1.7,11.9,5c2.9,3.3,4.5,7.6,4.4,11.9
	c0.3,4.5-1.6,8.9-5,11.9h5.2v5.5h-14.6V55.7"/>
<polyline class="st0" points="171.8,33.8 188.7,33.8 188.7,28.3 163.6,28.3 163.6,33.8 172.1,43.7 163,56.2 163,61.8 189.3,61.8 
	189.3,56.2 171.2,56.2 180.2,43.7 171.8,33.8 "/>
<polyline class="st0" points="193,61.8 193,28.3 199.5,28.3 199.5,40.8 214,40.8 214,28.3 220.1,28.3 220.1,61.8 214,61.8 214,46.6 
	199.5,46.6 199.5,61.8 193,61.8 "/>
<polyline class="st0" points="4,114.2 4,80.7 27.9,80.7 27.9,86.5 10.4,86.5 10.4,94.1 26.4,94.1 26.4,99.6 10.4,99.6 10.4,108.4 
	29.1,108.4 29.1,114.2 4,114.2 "/>
<path class="st0" d="M44.8,86.8L44.8,86.8l-8.4,27.4h-6.7L41,80.7h7.3l11.4,33.5h-6.7C52.9,113.3,50,104,44.8,86.8"/>
<path class="st0" d="M74.5,86.8L74.5,86.8l-8.2,27.4h-6.7L71,80.7h7.3l11.1,33.5h-6.7C82.6,113.3,79.7,104,74.5,86.8"/>
<polyline class="st0" points="92.6,114.2 92.6,80.7 98.7,80.7 98.7,93.2 113.2,93.2 113.2,80.7 119.6,80.7 119.6,114.2 113.2,114.2 
	113.2,99.1 98.7,99.1 98.7,114.2 92.6,114.2 "/>
<polyline class="st0" points="126.1,114.2 126.1,80.7 131.6,80.7 145.9,104.6 145.9,80.7 151.7,80.7 151.7,114.2 145.9,114.2 
	131.6,90.3 131.6,114.2 126.1,114.2 "/>
<path class="st0" d="M174.7,108.1c2.4-0.4,4.6-1.9,5.8-4.1c1.2-2.2,1.8-4.7,1.7-7.3c0-2.8-0.8-5.5-2.3-7.9c-3.2-4-9.1-4.7-13.1-1.5
	c-0.5,0.4-1,0.9-1.5,1.5c-1.4,2.4-2.1,5.1-2,7.9c0,2.4,0.6,4.9,1.7,7c1.2,2.1,3.2,3.7,5.5,4.4v6.1h-14v-5.5h5c-3.4-3-5.2-7.4-5-11.9
	c-0.1-4.4,1.4-8.7,4.4-11.9c3-3.4,7.4-5.3,11.9-5c4.5-0.1,8.8,1.7,11.9,5c2.9,3.3,4.5,7.6,4.4,11.9c0.3,4.5-1.6,8.9-5,11.9h5v5.5
	H175L174.7,108.1"/>
<polyline class="st0" points="194.2,114.2 194.2,80.7 200,80.7 214.3,104.6 214.3,80.7 219.8,80.7 219.8,114.2 214.3,114.2 
	200,90.3 200,114.2 194.2,114.2 "/>
<polyline class="st0" points="8.7,166.6 8.7,132.8 14.5,132.8 28.8,157 28.8,132.8 34.6,132.8 34.6,166.6 28.8,166.6 14.5,142.8 
	14.5,166.6 8.7,166.6 "/>
<path class="st0" d="M55.9,132c4.6-0.1,8.9,1.8,11.9,5.2c2.9,3.4,4.5,7.8,4.4,12.2c0.2,4.5-1.4,8.9-4.4,12.2
	c-3,3.5-7.4,5.4-11.9,5.2c-4.6,0.1-8.9-1.8-11.9-5.2c-2.9-3.4-4.5-7.8-4.4-12.2c-0.2-4.5,1.4-8.9,4.4-12.2
	C46.9,133.8,51.3,131.9,55.9,132 M55.9,138.1c-2.9-0.2-5.7,1.3-7.3,3.8c-1.6,2.4-2.4,5.3-2.3,8.2c0,2.9,0.8,5.7,2.3,8.2
	c2.8,4,8.3,5,12.4,2.2c0.9-0.6,1.6-1.3,2.2-2.2c1.6-2.4,2.4-5.3,2.3-8.2c0-2.9-0.8-5.7-2.3-8.2C61.5,139.4,58.8,138,55.9,138.1z"/>
<polyline class="st0" points="76.8,166.6 76.8,132.8 86.4,132.8 92.6,159.1 92.6,159.1 99,132.8 108.3,132.8 108.3,166.6 
	102.2,166.6 102.2,138.7 95.5,166.6 89.6,166.6 82.9,138.7 82.9,166.6 76.8,166.6 "/>
<rect x="114.7" y="132.8" class="st0" width="6.4" height="33.5"/>
<polyline class="st0" points="127.5,166.6 127.5,132.8 133.9,132.8 133.9,148 147,132.8 154.6,132.8 143.5,145.7 155.5,166.6 
	148.2,166.6 139.2,150.9 133.9,157 133.9,166.6 127.5,166.6 "/>
<path class="st0" d="M174.7,160.5c2.4-0.4,4.6-1.9,5.8-4.1c1.2-2.2,1.8-4.7,1.7-7.3c0-2.8-0.8-5.5-2.3-7.9c-3.2-4-9.1-4.7-13.1-1.5
	c-0.5,0.4-1,0.9-1.5,1.5c-1.4,2.4-2.1,5.1-2,7.9c0,2.4,0.6,4.9,1.7,7c1.2,2.1,3.2,3.7,5.5,4.4v6.1h-14v-5.5h5c-3.4-3-5.2-7.4-5-11.9
	c-0.1-4.4,1.4-8.7,4.4-11.9c3-3.4,7.4-5.3,11.9-5c4.5-0.1,8.8,1.7,11.9,5c2.9,3.3,4.5,7.6,4.4,11.9c0.3,4.5-1.6,8.9-5,11.9h5v5.5
	H175L174.7,160.5"/>
<polyline class="st0" points="194.2,166.6 194.2,132.8 200,132.8 214.3,157 214.3,132.8 219.8,132.8 219.8,166.6 214.3,166.6 
	200,142.8 200,166.6 194.2,166.6 "/>
<path class="st0" d="M45.4,203.9H57c0-1.1-0.5-2.1-1.2-2.9c-1-1.2-2.5-1.8-4.1-1.7c-1.5,0-2.9,0.5-4.1,1.5
	C46.5,201.4,45.7,202.6,45.4,203.9 M62.8,208.3H45.1c-0.1,1.7,0.7,3.3,2,4.4c1.1,1.1,2.5,1.7,4.1,1.7c2.8,0.1,5.4-1.2,7-3.5l5,2.9
	c-2.6,3.8-7,6.1-11.7,5.8c-3.4,0.1-6.6-1.1-9-3.5c-4.3-5.3-4.3-12.8,0-18.1c2.4-2.4,5.7-3.6,9-3.5C59.1,194.6,62.8,199.3,62.8,208.3
	z"/>
<rect x="66" y="202.5" class="st0" width="11.7" height="5.2"/>
<path class="st0" d="M107.1,204.8H88.5c0.1,2.4,1.1,4.6,2.6,6.4c1.7,1.9,4.2,2.9,6.7,2.9c2.6,0.2,5.1-0.9,6.7-2.9
	C105.9,209.3,106.8,207.1,107.1,204.8 M88.8,198.7h18.4c-0.4-2.2-1.4-4.2-2.9-5.8c-3.6-3.5-9.3-3.5-12.8,0
	C89.9,194.4,89,196.5,88.8,198.7z M113.8,202.2c0.2,4.5-1.4,8.9-4.4,12.2c-3,3.5-7.4,5.4-11.9,5.2c-4.6,0.1-8.9-1.8-11.9-5.2
	c-5.8-7.1-5.8-17.4,0-24.5c3-3.5,7.4-5.4,11.9-5.2c4.6-0.1,8.9,1.8,11.9,5.2C112.4,193.3,114,197.7,113.8,202.2z"/>
<polyline class="st0" points="118.8,219.1 118.8,185.3 142.7,185.3 142.7,191.1 125.2,191.1 125.2,199 141.2,199 141.2,204.5 
	125.2,204.5 125.2,213.2 143.8,213.2 143.8,219.1 118.8,219.1 "/>
<polyline class="st0" points="147.6,219.1 147.6,185.3 157.2,185.3 163.3,211.5 163.6,211.5 169.7,185.3 179.1,185.3 179.1,219.1 
	172.9,219.1 172.9,190.8 166.3,219.1 160.4,219.1 153.7,190.8 153.7,219.1 147.6,219.1 "/>
<rect x="185.5" y="185.3" class="st0" width="6.4" height="33.5"/>
<polyline class="st0" points="205,190.8 221.9,190.8 221.9,185.3 196.8,185.3 196.8,190.8 205.3,201 196.3,213.5 196.3,219.1 
	222.5,219.1 222.5,213.5 204.4,213.5 213.4,201 205,190.8 "/>
<rect x="239.4" y="13.7" class="st0" width="8.7" height="219.9"/>
</svg>
