<svg id="Layer_7" data-name="Layer 7" xmlns="http://www.w3.org/2000/svg" viewBox="0 0 327.72 226.77"><title>ote</title><rect width="327.72" height="226.77" style="fill:#1e63af"/><path d="M127.17,109.13H112.1c-1.95,0-2.11,1-2.11,1.71v3.73h6.69V133h5.9v-18.4h6.7v-3.73c0-.75-0.17-1.71-2.11-1.71" style="fill:none"/><line x1="119.63" y1="93.83" x2="119.63" y2="135.41" style="fill:none"/><path d="M134.68,119.88c-4.95,0-5.4-3.8-5.4-6.66,0-2.25.57-6.33,5.42-6.33s5.51,3.32,5.51,6.33-0.56,6.66-5.53,6.66m0-10.37c-1.69,0-2.25,1.27-2.25,3.93s0.5,3.84,2.25,3.84,2.38-1.27,2.38-3.84c0-2.74-.56-3.93-2.38-3.93" style="fill:#fff"/><path d="M148.82,114.22l1.45-3,1.85-3.7a0.77,0.77,0,0,1,.82-0.49h1.56a0.37,0.37,0,0,1,.38.43V119.3a0.34,0.34,0,0,1-.38.4h-2.13a0.35,0.35,0,0,1-.42-0.4v-5.81l-0.06,0-0.66,1.46-1.2,2.47a0.82,0.82,0,0,1-.8.48h-0.93a0.79,0.79,0,0,1-.8-0.45l-1.24-2.56-0.67-1.43,0,0v5.84a0.35,0.35,0,0,1-.39.4H143a0.35,0.35,0,0,1-.41-0.4V107.47A0.38,0.38,0,0,1,143,107h1.63a0.75,0.75,0,0,1,.84.47l1.84,3.76,1.41,3h0.08Z" style="fill:#fff"/><path d="M157.55,107.49A0.38,0.38,0,0,1,158,107h2.23a0.39,0.39,0,0,1,.4.45V119.3a0.35,0.35,0,0,1-.4.4H158a0.35,0.35,0,0,1-.4-0.4V107.49Z" style="fill:#fff"/><path d="M173.54,119.28a0.51,0.51,0,0,1,0,.17,0.23,0.23,0,0,1-.27.25H171a0.57,0.57,0,0,1-.62-0.56c-0.59-2.08-1.24-4.28-1.85-6.46l-0.67-2.5h-0.09c-0.21.83-.36,1.53-0.63,2.44-0.21.76-1.75,6-1.9,6.58a0.6,0.6,0,0,1-.67.5h-2.1a0.26,0.26,0,0,1-.31-0.25,1,1,0,0,1,0-.21l3.71-11.62a0.66,0.66,0,0,1,.78-0.56h2.25a0.65,0.65,0,0,1,.76.58Z" style="fill:#fff"/><path d="M180.24,119.88c-5,0-5.41-3.8-5.41-6.66,0-2.25.57-6.33,5.42-6.33s5.51,3.32,5.51,6.33-0.55,6.66-5.52,6.66m0-10.37c-1.7,0-2.25,1.27-2.25,3.93s0.5,3.84,2.25,3.84,2.38-1.27,2.38-3.84c0-2.74-.55-3.93-2.38-3.93" style="fill:#fff"/><path d="M196.06,119.7h-8a0.35,0.35,0,0,1-.4-0.38V118a2,2,0,0,1,.42-1.16l2.21-3.65-2.4-3.45a1.45,1.45,0,0,1-.33-1v-1.2a0.45,0.45,0,0,1,.44-0.49h7.73a0.36,0.36,0,0,1,.42.43v1.73a0.34,0.34,0,0,1-.42.4H191l2.08,2.88a1.37,1.37,0,0,1,.38.75,1,1,0,0,1-.19.46L191,117.2h5a0.34,0.34,0,0,1,.42.37v1.75a0.34,0.34,0,0,1-.42.38" style="fill:#fff"/><path d="M203.85,107.49a0.39,0.39,0,0,1,.42-0.45h7.56a0.39,0.39,0,0,1,.4.43v1.72a0.36,0.36,0,0,1-.42.41h-4.94v2.3h4.31a0.39,0.39,0,0,1,.43.41V114a0.37,0.37,0,0,1-.43.41h-4.31v2.74h5a0.39,0.39,0,0,1,.42.41v1.74a0.34,0.34,0,0,1-.42.37h-7.64a0.35,0.35,0,0,1-.42-0.38V107.49Z" style="fill:#fff"/><path d="M222.47,109.6h-2.82v9.7a0.35,0.35,0,0,1-.4.4h-2.19a0.36,0.36,0,0,1-.42-0.4v-9.7h-2.8a0.35,0.35,0,0,1-.42-0.41v-1.72a0.36,0.36,0,0,1,.42-0.43h8.63a0.4,0.4,0,0,1,.42.43v1.72a0.36,0.36,0,0,1-.42.41" style="fill:#fff"/><path d="M225.79,119.19a0.61,0.61,0,0,1-.66.52H223c-0.29,0-.4-0.07-0.27-0.48l3.68-11.62a0.65,0.65,0,0,1,.74-0.56h2.4a0.66,0.66,0,0,1,.75.58l3.83,11.65c0.08,0.3,0,.44-0.23.44h-2.36a0.6,0.6,0,0,1-.64-0.58l-0.63-2.28h-3.79Zm3.24-6.75-0.61-2.34h-0.09l-0.63,2.32-0.57,2.11h2.47Z" style="fill:#fff"/><path d="M235.7,107.49a0.38,0.38,0,0,1,.4-0.45h2.22a0.39,0.39,0,0,1,.4.45V119.3a0.35,0.35,0,0,1-.4.4H236.1a0.35,0.35,0,0,1-.4-0.4V107.49Z" style="fill:#fff"/><path d="M244.43,119.3a0.36,0.36,0,0,1-.4.4h-2.21a0.36,0.36,0,0,1-.42-0.4V107.47a0.38,0.38,0,0,1,.42-0.43h4.42c2.38,0,4.3,1.31,4.3,3.94,0,1.76-.8,4.07-4.3,4.07h-1.81v4.25Zm1.37-9.72h-1.37v3h1.41a1.43,1.43,0,0,0,1.6-1.55,1.41,1.41,0,0,0-1.64-1.47" style="fill:#fff"/><path d="M252.22,107.49a0.39,0.39,0,0,1,.42-0.45h7.56a0.39,0.39,0,0,1,.4.43v1.72a0.36,0.36,0,0,1-.42.41h-4.93v2.3h4.3a0.39,0.39,0,0,1,.44.41V114a0.37,0.37,0,0,1-.44.41h-4.3v2.74h5a0.39,0.39,0,0,1,.42.41v1.74a0.34,0.34,0,0,1-.42.37h-7.64a0.35,0.35,0,0,1-.42-0.38V107.49Z" style="fill:#fff"/><path d="M262.92,107.49a0.38,0.38,0,0,1,.4-0.45h2.22a0.39,0.39,0,0,1,.4.45V119.3a0.35,0.35,0,0,1-.4.4h-2.22a0.35,0.35,0,0,1-.4-0.4V107.49Z" style="fill:#fff"/><path d="M278.24,117.26h1a0.34,0.34,0,0,1,.42.38v1.69a0.34,0.34,0,0,1-.42.38h-4.21a0.35,0.35,0,0,1-.42-0.38v-2a0.64,0.64,0,0,1,.36-0.55c1-.55,1.39-1.7,1.39-3.31,0-2.4-.54-3.91-2.42-3.91s-2.34,1.57-2.34,3.91c0,1.81.35,2.81,1.14,3.28a0.61,0.61,0,0,1,.36.58v2a0.34,0.34,0,0,1-.4.38h-4.19a0.32,0.32,0,0,1-.4-0.38v-1.69a0.34,0.34,0,0,1,.42-0.37h1.09l0,0c-1-.79-1.24-2.81-1.24-4,0-2.41.84-6.31,5.49-6.31s5.56,3.3,5.56,6.31a6.42,6.42,0,0,1-1.28,4s0,0,0,.05" style="fill:#fff"/><path d="M284.84,112.63h-0.06v6.69a0.35,0.35,0,0,1-.4.38h-2.12a0.36,0.36,0,0,1-.44-0.38V107.49a0.39,0.39,0,0,1,.42-0.43h1.56a0.91,0.91,0,0,1,.91.56c0.65,1,3.7,5.65,4.3,6.6l0.06,0v-6.7a0.38,0.38,0,0,1,.42-0.45h2.12a0.37,0.37,0,0,1,.4.45v11.82a0.34,0.34,0,0,1-.4.38h-1.56a0.85,0.85,0,0,1-.82-0.42c-1-1.47-1.92-2.9-2.89-4.34Z" style="fill:#fff"/><path d="M77.67,87.13c-23.18,0-42,11.76-42,26.27s18.79,26.24,42,26.24,42-11.75,42-26.24-18.79-26.27-42-26.27m0,49.31c-23.9,0-40.53-9.76-40.53-23,0-13.81,17.14-23.08,40.53-23.08,23.9,0,40.54,9.76,40.54,23.08,0,13.8-17.14,23-40.54,23" style="fill:#fff"/><path d="M86.61,101.13H71.54c-1.95,0-2.11,1-2.11,1.71v3.72h6.69V125H82V106.57h6.69v-3.72c0-.74-0.16-1.71-2.11-1.71" style="fill:#fff"/><path d="M50.34,113a6.37,6.37,0,1,0,6.35-6.5,6.35,6.35,0,0,0-6.35,6.5m-6,0a12.39,12.39,0,1,1,12.4,12.39A12.35,12.35,0,0,1,44.31,113" style="fill:#fff"/><path d="M101.22,125.43A11.3,11.3,0,0,0,109.6,122c0.19-.2-0.84-2.74-2-4-0.91-1-2.05-.27-2.58.06a6.17,6.17,0,0,1-3.89,1.44,6.33,6.33,0,0,1-5.67-3.71h6.93v-5.51H95.46a6.27,6.27,0,0,1,9.27-2.62c0.53,0.34,1.67,1,2.58.06,1.15-1.22,2.19-3.81,2-4a11.29,11.29,0,0,0-8.08-3.1A12.25,12.25,0,0,0,88.74,113a12.37,12.37,0,0,0,12.48,12.41" style="fill:#fff"/></svg>