<?xml version="1.0" encoding="utf-8"?>
<!-- Generator: Adobe Illustrator 19.2.0, SVG Export Plug-In . SVG Version: 6.00 Build 0)  -->
<svg version="1.1" id="Capa_1" xmlns="http://www.w3.org/2000/svg" xmlns:xlink="http://www.w3.org/1999/xlink" x="0px" y="0px"
	 viewBox="0 0 489 360.7" style="enable-background:new 0 0 489 360.7;" xml:space="preserve">
<style type="text/css">
	.st0{fill:#FFFFFF;}
</style>
<title>circle</title>
<path class="st0" d="M429.4,190.8C394,147.7,327.3,96.4,209.7,92V12.3c0-6.8-5.4-12.3-12.2-12.3c-2.8,0-5.6,1-7.8,2.8L4.5,155.5
	c-2.8,2.3-4.5,5.7-4.5,9.4c0,3.6,1.6,7.1,4.4,9.4l185.2,153.3c5.2,4.3,12.9,3.5,17.2-1.7c1.8-2.2,2.8-5,2.8-7.8v-79.5
	c76.8,0.3,194.2,6,256.5,115.9c2.2,3.9,6.3,6.2,10.7,6.2c1,0,2.1-0.1,3.1-0.4c5.4-1.4,9.1-6.3,9.1-11.8
	C489.1,307.4,473.4,244.5,429.4,190.8z M197.4,214L197.4,214c-6.8,0-12.3,5.5-12.3,12.3c0,0,0,0,0,0V292L31.6,165L185.2,38.3V104
	c0,6.7,5.4,12.2,12.1,12.3c176,1.7,241.6,109,260.7,184.4C382.2,214.2,268.7,214.1,197.4,214L197.4,214z"/>
</svg>
