<svg id="Layer_1" data-name="Layer 1" xmlns="http://www.w3.org/2000/svg" viewBox="0 0 598.6 158.32"><title>rflogo</title><path d="M374.1,78.2h-1.7c-1.6,6.1-4.5,7.9-9.2,7.9h-9.9V67.7h5.3c3.8,0,6.1,1.2,6.7,6.2H367v-15h-1.7c-0.6,5-2.9,6.2-6.7,6.2h-5.3V47.5h10.2c4.8,0,6.9,2.6,8.1,7.9h1.7L373,45.1H341.3v1.7c4.3,0.3,4.8.4,4.8,2.7V83.9c0,2.3-.5,2.4-4.8,2.7v1.7h32.1ZM191,69.7a27.13,27.13,0,0,1,5.4,6.9l3.2,5.3a40.24,40.24,0,0,0,4.5,6.6h10.6V86.8c-2.2-.3-4.2-0.6-6.3-3.7l-5-7.6a18.07,18.07,0,0,0-6.6-6.2c8.6-1.5,11.9-7.1,11.9-12.4,0-6.8-5.3-11.8-14.6-11.8H175.3v1.7c4.3,0.3,4.8.4,4.8,2.7V83.9c0,2.3-.5,2.4-4.8,2.7v1.7H192V86.6c-4.3-.3-4.8-0.4-4.8-2.7V69.7H191Zm-3.7-22.2h5.2c6.8,0,8.8,5.1,8.8,10,0,5.5-2.1,9.6-10.1,9.6h-3.8V47.5h-0.1Zm92.4,41.6a25.36,25.36,0,0,0,13.2-3.7l0.8-8.9H292c-1.2,5-4.1,10-12.3,10-7.9,0-14.1-7-14.1-19.7s6.2-19.7,14.1-19.7c7.4,0,10.9,4.6,12.1,10h1.7l-0.6-8.9a25.36,25.36,0,0,0-13.2-3.7c-12.2,0-21.7,9.3-21.7,22.3s9.5,22.3,21.7,22.3M175.3,99.5v1.7c4.3,0.3,4.8.4,4.8,2.7v34.4c0,2.3-.5,2.4-4.8,2.7v1.7H192V141c-4.3-.3-4.8-0.4-4.8-2.7V123.2h5.3c3.8,0,6.1,1.2,6.7,6.2h1.7v-15h-1.7c-0.6,5-2.9,6.2-6.7,6.2h-5.3V101.8h10.2c4.8,0,6.9,2.6,8.1,7.9h1.7L207,99.5H175.3Zm60.2-.7c-11.9,0-21.6,9.3-21.6,22.3s9.7,22.3,21.6,22.3,21.6-9.3,21.6-22.3-9.7-22.3-21.6-22.3m0,42c-8.4,0-14-7.2-14-19.7s5.6-19.7,14-19.7,14,7.2,14,19.7-5.5,19.7-14,19.7M178.7,16.6h1.8V34.9c0,1.1-.2,1.2-2.4,1.4v0.9h8.4V36.3c-2.1-.2-2.4-0.2-2.4-1.4V16.6h1.8c2.4,0,3.3,1.3,3.9,4h0.9l-0.2-5.2H174.1l-0.2,5.2h0.9c0.6-2.7,1.5-4,3.9-4M313.3,86.8c-4.3-.3-4.8-0.4-4.8-2.7V68.2a6.25,6.25,0,0,1,5.4,3l6.3,8.6a66,66,0,0,0,6.9,8.7h11.2V86.8c-3.4-.4-5.2-2.1-7.3-4.8l-7.4-9.8a42.44,42.44,0,0,0-7.1-7.6l11.6-14.3c1.9-2.4,3.5-2.9,7.4-3.3V45.3H320.1V47c5.2,0.3,5.5,2.2,3.7,4.3l-9.1,11.5a7.63,7.63,0,0,1-6.3,3.1V49.6c0-2.3.5-2.4,4.8-2.7V45.2H296.5v1.7c4.3,0.3,4.8.4,4.8,2.7V84c0,2.3-.5,2.4-4.8,2.7v1.7h16.7V86.8h0.1ZM218.7,37.4a7.62,7.62,0,0,0,5.7-2.5L224,34a7.25,7.25,0,0,1-3.9,1.1c-3,0-5.5-2.1-5.5-6.4V28.1h9.8a6.15,6.15,0,0,0,.2-1.9c0-3.7-2.9-4.9-5.6-4.9a7.78,7.78,0,0,0-7.8,8.2c0,4.2,2.6,7.9,7.5,7.9m0.2-14.9c1.4,0,2.5.7,2.5,2.7a5,5,0,0,1-.2,1.6h-6.4c0.5-2.7,1.9-4.3,4.1-4.3M200.1,36.3c-2.1-.2-2.4-0.2-2.4-1.4V25.5a6.14,6.14,0,0,1,4.2-1.9c1.5,0,2.2,1,2.2,2.5v8.7c0,1.1-.2,1.2-1.9,1.4V37h7.7V36.2c-2.1-.2-2.4-0.2-2.4-1.4v-9c0-3.4-1.9-4.7-4-4.7a7.63,7.63,0,0,0-5.8,3.3h-0.2l0.2-10.1h-0.4l-5.4.7v0.8c2.1,0.2,2.4.2,2.4,1.5V34.8c0,1.1-.3,1.2-2.4,1.4V37h8.2V36.3h0ZM213,66.8c0,13,9.7,22.3,21.6,22.3s21.6-9.3,21.6-22.3-9.7-22.3-21.6-22.3S213,53.8,213,66.8m21.5-19.7c8.4,0,14,7.2,14,19.7s-5.6,19.7-14,19.7-14-7.2-14-19.7,5.6-19.7,14-19.7m57.3,54.1c5.3,0.3,5.8.4,5.8,2.7v21.6c0,8.7-3.8,14.1-11.9,14.1-7.6,0-11.5-4.9-11.5-14.1V103.9c0-2.3.5-2.4,4.8-2.7V99.5H262.3v1.7c4.3,0.3,4.8.4,4.8,2.7v22.2c0,10.7,5.3,17.3,16.8,17.3,10.1,0,16.6-6.2,16.6-17.3V103.9c0-2.3.5-2.4,5.5-2.7V99.5H291.8v1.7h0Zm246-2.4c-11.8,0-21.6,9.3-21.6,22.3s9.7,22.3,21.6,22.3,21.6-9.3,21.6-22.3-9.8-22.3-21.6-22.3m0,42c-8.4,0-14-7.2-14-19.7s5.6-19.7,14-19.7,14,7.2,14,19.7-5.6,19.7-14,19.7m-45.2-39.6c4.3,0.3,4.8.4,4.8,2.7v34.4c0,2.3-.5,2.4-4.8,2.7v1.7h16.7V141c-4.3-.3-4.8-0.4-4.8-2.7V103.9c0-2.3.5-2.4,4.8-2.7V99.5H492.6v1.7Zm56.3-15H539V67.7h5.3c3.8,0,6.1,1.2,6.7,6.2h1.7v-15H551c-0.6,5-2.9,6.2-6.7,6.2H539V47.5h10.2c4.8,0,6.9,2.6,8.1,7.9H559l-0.3-10.3H527v1.7c4.3,0.3,4.8.4,4.8,2.7V83.9c0,2.3-.5,2.4-4.8,2.7v1.7h32.1L559.7,78H558c-1.4,6.3-4.3,8.2-9.1,8.2m43.6,15c5.4,0.3,5.9.4,5.9,2.7V131l-20-31.5H565.2v1.7c5,0.3,5.5.4,5.5,2.7v34.4c0,2.3-.5,2.4-5.5,2.7v1.7h14.3V141c-5.4-.3-5.9-0.4-5.9-2.7v-33L597.4,143h3.8V103.8c0-2.3.5-2.4,5.5-2.7V99.4H592.4v1.8h0.1Zm-69.8-23H521c-1.6,6.1-4.5,7.9-9.2,7.9h-9.2V49.6c0-2.3.5-2.4,4.8-2.7V45.2H490.7v1.7c4.3,0.3,4.8.4,4.8,2.7V84c0,2.3-.5,2.4-4.8,2.7v1.7h31.5Zm77.9,4.9-5-7.6a18.08,18.08,0,0,0-6.6-6.2c8.6-1.5,11.9-7.1,11.9-12.4,0-6.8-5.3-11.8-14.6-11.8H567.5v1.7c4.3,0.3,4.8.4,4.8,2.7V83.9c0,2.3-.5,2.4-4.8,2.7v1.7h16.7V86.6c-4.3-.3-4.8-0.4-4.8-2.7V69.7h3.7a27.13,27.13,0,0,1,5.4,6.9l3.2,5.3a40.25,40.25,0,0,0,4.5,6.6h10.6V86.8a7.54,7.54,0,0,1-6.2-3.7m-17.4-16h-3.8V47.5h5.2c6.8,0,8.8,5.1,8.8,10-0.1,5.5-2.2,9.6-10.2,9.6M474.5,86.2h-9.2V49.6c0-2.3.5-2.4,4.8-2.7V45.2H453.4v1.7c4.3,0.3,4.8.4,4.8,2.7V84c0,2.3-.5,2.4-4.8,2.7v1.7h31.5l0.6-10.3h-1.7c-1.7,6.2-4.6,8.1-9.3,8.1M400.7,47.5c4.8,0,6.9,2.6,8.1,7.9h1.7l-0.3-10.3H378.5v1.7c4.3,0.3,4.8.4,4.8,2.7V83.9c0,2.3-.5,2.4-4.8,2.7v1.7h16.7V86.6c-4.3-.3-4.8-0.4-4.8-2.7v-15h5.3c3.8,0,6.1,1.2,6.7,6.2h1.7v-15h-1.7c-0.6,5-2.9,6.2-6.7,6.2h-5.3V47.5h10.3ZM382,99.5H362.4v1.7c4.3,0.3,4.8.4,4.8,2.7v34.4c0,2.3-.5,2.4-4.8,2.7v1.7H382c11.8,0,21.6-8.7,21.6-21.7S393.9,99.5,382,99.5m0,41h-7.7V101.8H382c8.3,0,14,6.8,14,19.3s-5.5,19.4-14,19.4m61-2.6L428.6,99.2h-4.2l-12.8,38.5c-0.9,2.5-1.7,2.9-5.1,3.5v1.7h13.4v-1.7c-5-.6-6-1.3-4.8-5l2.4-7.1h14.9l3,8.3c1,2.9.1,3.3-4.2,3.8v1.7h16.9v-1.7c-3.6-.5-4.3-1.3-5.1-3.3m-24.8-11.6,6.2-18.9h0.1l6.8,18.9H418.2Zm32.1-26.8L450,109.8h1.7c1.2-5.3,3.1-7.9,7.9-7.9h3.5v36.6c0,2.3-.5,2.4-4.8,2.7v1.7H475v-1.7c-4.3-.3-4.8-0.4-4.8-2.7V101.9h3.5c4.8,0,6.6,2.6,7.9,7.9h1.7L483,99.5H450.3ZM437.8,86.2H428V67.7h5.3c3.8,0,6.1,1.2,6.7,6.2h1.7v-15H440c-0.6,5-2.9,6.2-6.7,6.2H428V47.5h10.2c4.8,0,6.9,2.6,8.1,7.9H448l-0.3-10.3H416v1.7c4.3,0.3,4.8.4,4.8,2.7V83.9c0,2.3-.5,2.4-4.8,2.7v1.7h32.1L448.7,78H447c-1.5,6.3-4.4,8.2-9.2,8.2m-97.8,15c5.4,0.3,5.9.4,5.9,2.7V131l-20-31.5H312.7v1.7c5,0.3,5.5.4,5.5,2.7v34.4c0,2.3-.5,2.4-5.5,2.7v1.7H327V141c-5.4-.3-5.9-0.4-5.9-2.7v-33L344.9,143h3.8V103.8c0-2.3.5-2.4,5.5-2.7V99.4H340v1.8Z" transform="translate(-8.2 -4.5)" style="fill:#fff"/><path d="M146.2,103.5a82.09,82.09,0,0,0,1.2-35.9,79.94,79.94,0,0,0-13.7-31.3,73.83,73.83,0,0,0-7.3-8.6c0.5,1.7,1.1,3.4,1.6,5.1-1-.4-2-0.8-3-1.1l-1.8-.6a1.85,1.85,0,0,0-.7-0.2c-0.2-.3-0.3-0.7-0.5-1-1-2-2-4-3.2-6,2.4,1,4.7,2,7,3.2-1.4-1.4-2.8-2.7-4.2-4a8,8,0,0,0-2.3-1.8,24.69,24.69,0,0,0-2.9-1,13.43,13.43,0,0,0-2.9-3.4c-0.7-.4-1.4-0.9-2.1-1.3a25.28,25.28,0,0,1,1.8,3.7c-1.9-.6-3.7-1.1-5.6-1.6-0.9-.2-1.8-0.4-2.6-0.6a1.61,1.61,0,0,1-1.3-.6c-0.2-.4-0.5-0.9-0.7-1.3a44.34,44.34,0,0,0-2.9-4.6,4.49,4.49,0,0,0-1-1.3C98.7,9.2,98.4,9,98,8.9a25.24,25.24,0,0,1,2.1,7.1c-3.2-.6-6.4-1.1-9.6-1.4a19.53,19.53,0,0,0-2.3-.2c-0.6-.1-0.5-0.3-0.6-0.8s-0.3-1-.4-1.4c-0.5-1.5-.9-3-1.5-4.4,3.6,0.6,7.1,1.3,10.7,2.1a12.47,12.47,0,0,0-2.7-1c-1.3-.4-2.7-0.7-4-1s-2.6-.5-3.9-0.7c-0.6-.1-0.7-1.1-0.9-1.7-0.2-.4-0.3-0.4-0.8-0.4,0,0.6.1,1.3,0.1,1.9q-3.9-.45-7.8-0.6A13.28,13.28,0,0,0,72.5,6H70.6c-0.5,0-.8.2-0.8-0.4,0-.4-0.1-0.8-0.1-1.1L69.4,5.7V6H66.5c-1.1,0-2.2.1-3.3,0.1-0.6,0-2.3-.3-2.5.4,2.9-.1,5.8-0.2,8.7-0.2-0.1,1.8-.2,3.6-0.3,5.5A4.87,4.87,0,0,1,69,13v0.8H68.2c-1,0-2.1.1-3.1,0.1-3.8.2-7.6,0.5-11.4,1,0.2-2.5.3-4.9,0.6-7.4-0.5,1.9-.9,3.8-1.4,5.7,0,0.2-.1.3-0.1,0.5s-0.1.5-.1,0.7c-0.1.5,0,.7-0.5,0.8l-4.2.6c-2.1.3-4.6,0.4-6.5,1.2,3.7-.4,7.3-0.8,11-1-0.4,2-.7,4.1-1,6.1-0.2,1.1-.3,2.2-0.5,3.3,0,0.3-.1.5-0.1,0.8-0.1.5,0.1,0.7-.5,0.8a11.08,11.08,0,0,1-1.9.2c-4.8.6-9.6,1.4-14.4,2.3,0.3-2.8.7-5.6,1.1-8.3-0.4,2.4-.8,4.9-1.2,7.3,0,0.3-.1.5-0.1,0.8-0.1.6-.3,0.4-0.8,0.5a12.86,12.86,0,0,0-1.9.4c-1.3.3-2.6,0.5-3.8,0.8,2.1,0,4.3-.4,6.4-0.6-0.7,4.1-1.3,8.3-1.8,12.5-0.1.5-.1,1-0.2,1.5s0.1,1.1-.5,1.1c-1,.1-2.1.3-3.1,0.4-2.2.3-4.4,0.7-6.7,1a2.77,2.77,0,0,0,1.8,0c0.9,0,1.8-.1,2.8-0.1,1.8-.1,3.6-0.2,5.4-0.2-0.7,5.4-1.3,10.8-1.7,16.3a1.7,1.7,0,0,1-.1.7c-0.4,0-.7.1-1.1,0.1-0.6.1-1.2,0.1-1.8,0.2-1.4.1-2.7,0.3-4.1,0.4l-8.4.9c0.3-3.9.7-7.9,1-11.8a46.42,46.42,0,0,0-1.1,6.5L13.6,65c-0.1.5-.3,0.4-0.8,0.4s-1,.1-1.5.2l-3.1.3c1.8,0,3.6-.1,5.4-0.1a179.85,179.85,0,0,0-.4,37.4H12c0.3,0.1.5,0.1,0.8,0.2,0.6,0.2.5,0.5,0.5,1.1,0.2,1.5.3,3,.5,4.5,0.3,2.4.3,5.2,1.4,7.3-0.5-4.2-.9-8.4-1.3-12.6l7.8,0.6c1.3,0.1,2.6.2,3.9,0.4,0.7,0.1,1.3.1,2,.2,0.4,0,.8.1,1.2,0.1,0.6,0.1.4,0.3,0.4,0.8,0.4,5.4,1,10.9,1.7,16.3-4.6-.3-9.3-0.7-13.9-1.2,1.7,0.9,3.7.9,5.5,1.2,2.6,0.4,5.2.8,7.8,1.1,0.3,0,.5.1,0.8,0.1,0.1,0.4.1,0.8,0.2,1.1,0.1,0.6.2,1.3,0.3,1.9,0.2,1.3.4,2.5,0.6,3.8,0.5,2.7.9,5.4,1.5,8.1-0.7-.1-1.3-0.1-2-0.2a5.3,5.3,0,0,0,1,.6c0.2,0.1.5,0.1,0.7,0.2,0.4,0.1.4,0,.5,0.4s0.1,0.7.2,1.1c0.5,2.7,1.1,5.4,1.7,8.2v-0.1a2.18,2.18,0,0,0,.4.5,4.4,4.4,0,0,0-.2-1.6c-0.2-.9-0.3-1.8-0.5-2.7-0.3-1.9-.7-3.8-1-5.6,4.6,0.7,9.2,1.3,13.9,1.9,0.5,0.1,1,.1,1.4.2,0.2,0,.5.1,0.7,0.1,0.5,0.1.4,0.3,0.4,0.8,0.2,1.3.3,2.5,0.5,3.8,0.3,2.3.6,4.7,1,7-4.5-.4-9-1-13.4-1.8,3.6,1.3,7.5,1.7,11.3,2.2l1.9,0.3c0.7,0.1.5,0.9,0.6,1.5,0.1,0.4.2,0.9,0.3,1.3l0.9,3.3c0.6-.6.3-1.4,0.2-2.3-0.1-1.2-.2-2.5-0.3-3.7,3.5,0.4,6.9.7,10.4,0.9a23.48,23.48,0,0,0,2.6.1,7.57,7.57,0,0,1,1.5.1h0.8a2.2,2.2,0,0,0,.1.8c0.2,2.1.3,4.2,0.5,6.2-2,0-4.1,0-6.1-.1a13.55,13.55,0,0,0-3.5.1c1.7,0.2,3.5.3,5.2,0.4,0.8,0,1.6.1,2.5,0.1,0.5,0,1.9-.2,2.1.2,0.1,0.2.3,0.5,0.4,0.4,0-.5-0.1-0.5.4-0.5h1.5c1.8,0,3.6,0,5.3-.1a49.07,49.07,0,0,0,7.7-.9c1.6-.3,3.2-0.7,4.7-1.1a7,7,0,0,0,2.3-1.1c-2,1.2-4.6,1.5-6.9,1.8,0.6-1.5,1.1-3.1,1.6-4.6,0.2-.7.5-1.5,0.7-2.2l2.7-.3c3.3-.4,6.7-0.9,10-1.6a41,41,0,0,1-1.4,5l2.1-.9a2.17,2.17,0,0,0,1-1.1c0.5-.9,1-1.7,1.5-2.6a4.67,4.67,0,0,0,.5-1,1.49,1.49,0,0,1,1.3-.6c1-.3,2-0.5,2.9-0.8,2-.6,3.9-1.2,5.8-1.9-0.1.4-.3,0.8-0.4,1.1a93.3,93.3,0,0,0,9.3-7.3c-1.4.6-2.8,1.1-4.2,1.6,1.2-1.9,2.3-3.8,3.4-5.8a1.67,1.67,0,0,1,.9-1.1l1.8-.6c1.1-.4,2.2-0.8,3.3-1.3-0.3,1-.5,1.9-0.8,2.9a80.9,80.9,0,0,0,11.8-16.2,69,69,0,0,0,4.1-8.7c0.6-1.6,1.2-3.2,1.7-4.8A33.65,33.65,0,0,1,146.2,103.5ZM71.9,139.1c0.1-2.1.3-4.2,0.4-6.3,0.1-1,.1-2.1.2-3.1,0-.5.1-1,0.1-1.6v-0.8c0-.6.3-0.4,0.8-0.4,4.2,0.2,8.4.3,12.6,0.4-0.1,2.1-.1,4.1-0.2,6.2,0,1-.1,2-0.1,3a7.57,7.57,0,0,1-.1,1.5c-0.5.1-1,.1-1.5,0.2-4,.4-8.1.7-12.2,0.9m13.6,3.1c-0.1,1.9-.2,3.9-0.2,5.8,0,1-.1,2-0.1,3.1,0,0.8,0,.8-0.8.9-0.5.1-1,.1-1.5,0.2-4,.4-7.9.7-11.9,0.8,0.2-2.1.3-4.1,0.5-6.2a30.29,30.29,0,0,0,.2-3.1c0-.5.1-1,0.1-1.5h1.6c3.9,0.1,8,.1,12.1,0M85.1,29.6c0.1,3.7.3,7.3,0.4,11-4.1.1-8.2,0.2-12.2,0.4-0.8,0-.8.1-0.8-0.8,0-.5-0.1-1.1-0.1-1.6-0.1-1.1-.1-2.1-0.2-3.2-0.1-2.3-.3-4.5-0.5-6.8,4.5,0.3,8.9.6,13.4,1M71.4,25.1c-0.2-3.3-.6-6.7-0.8-10,3.8,0,7.6.2,11.4,0.5,0.9,0.1,1.7.1,2.6,0.2,0,1,.1,2.1.1,3.1,0.1,2.1.2,4.2,0.3,6.2-4.6-.1-9.1-0.1-13.6,0M96.6,77c-0.1-2.5-.2-5.1-0.3-7.6l4.5,0.6,2.2,0.3v4.8c0,0.5.2,0.7-.4,0.8-0.4.1-.8,0.1-1.1,0.2a46.32,46.32,0,0,1-4.9.9M86.3,99.5c-4.3.6-8.6,1.1-12.8,1.6,0.1-4.3.1-8.6,0.1-13l11.2,1.2c0.4,0,.8.1,1.1,0.1s0.5,0.1.4,0.4v3.9a56.1,56.1,0,0,1,0,5.8m0,9.9c0,2,0,3.9-.1,5.9v4.2c0,0.6-.6.5-1.2,0.5-4,.5-8.1.9-12.1,1.2,0.2-4.2.3-8.4,0.4-12.7,4.3,0.4,8.6.7,13,.9M73.6,80c0-4.3-.1-8.6-0.2-12.9,3,0.2,6,.5,8.9.8,0.6,0.1,1.3.1,1.9,0.2,0.4,0,.8.1,1.1,0.1,0.5,0.1.7-.1,0.8,0.5,0,1.6,0,3.2.1,4.7s0,2.9.1,4.3c0,0.5.2,0.8-.4,0.8-0.4,0-.7.1-1.1,0.1l-2.3.3c-2.9.5-5.9,0.8-8.9,1.1m29.3-21.9c-1.3,0-2.6.1-3.9,0.1a12.75,12.75,0,0,0-1.9.1H96c-0.6,0-.4-0.2-0.5-0.8l-0.9-8.7,7.8,1.2c0.4-.1.5,0.1,0.4,0.4v3.4c0,1.5.1,2.9,0.1,4.3M86,58.7c-4.2.2-8.5,0.5-12.7,0.8-0.1-4.3-.3-8.5-0.5-12.8,4,0.3,7.9.6,11.8,1,0.4,0,.7.1,1.1,0.1v1.6c0,1,.1,2.1.1,3.1,0.1,2,.1,4.1.2,6.2m32.6-.5a12.1,12.1,0,0,1-1.9-.1c-0.4.1-.5,0-0.4-0.4-0.1-.4-0.1-0.7-0.2-1.1-0.2-1.4-.4-2.7-0.6-4.1,0.6,0.1,1.2.3,1.8,0.4a3.55,3.55,0,0,0,1,.2c0.5,0.1.4,0.3,0.4,0.8-0.1,1.5-.1,2.9-0.1,4.3m-5.4-16.4c-0.7-2.8-1.4-5.5-2.3-8.2,1.1,0.2,2.2.5,3.4,0.8a8.33,8.33,0,0,1,1.5.4c0.5,0.1,1.4.1,1.5,0.7,0.3,2.3.6,4.7,0.8,7-1.7-.3-3.3-0.5-4.9-0.7m-10.8-.9c-1.5-.1-3-0.1-4.4-0.2-0.8,0-1.5-.1-2.3-0.1H94.6c-0.6,0-1.1.2-1.2-.4-0.5-3.3-1.1-6.6-1.7-9.9,3.2,0.4,6.4.9,9.6,1.4,0.5,0.1.7-.1,0.8,0.5a4.1,4.1,0,0,0,.1,1.1,22.6,22.6,0,0,1,.1,2.6c0,1.7.1,3.4,0.1,5m-35,.4c-5.2.3-10.4,0.8-15.6,1.3,0.1-2.5.2-4.9,0.4-7.4,0.1-1.2.1-2.3,0.2-3.5,0-.6.1-1.3,0.1-1.9V29c0-.6.3-0.4,0.8-0.4,4.9-.1,9.8-0.2,14.7,0-0.2,4.2-.4,8.5-0.6,12.7m-0.2,5c-0.1,2.5-.2,4.9-0.3,7.4,0,1.2-.1,2.3-0.1,3.5a13.4,13.4,0,0,1-.1,2V60h-1L51.1,61.2c0.1-2.6.2-5.2,0.2-7.8,0-1.3.1-2.6,0.1-3.9,0-.7.1-1.3,0.1-2V46.7c0-.5-0.2-0.8.4-0.8,5.2,0.1,10.3.2,15.3,0.4M66.6,66.6c-0.1,2.5-.1,4.9-0.2,7.4,0,1.2,0,2.4-.1,3.5v2.8c0,0.6-.2.4-0.7,0.5-4.9.4-9.9,0.8-14.8,1.1,0-5.4.1-10.8,0.2-16.1,5.2,0.2,10.4.5,15.6,0.8M47.5,82.1c-5.9.4-11.8,0.6-17.7,0.9,0-4.3.2-8.7,0.4-13,0-1.1.1-2.1,0.2-3.2,0-.5.1-1.1,0.1-1.6h1.6c2.2,0,4.4.1,6.6,0.1,2,0,4.1.1,6.1,0.2,1,0,2,.1,3,0.1,0,1.2-.1,2.3-0.1,3.5-0.1,4.3-.2,8.7-0.2,13m0,3.7c0,4.3.1,8.7,0.2,13,0,1.1.1,2.1,0.1,3.2,0,0.8.1,0.8-.7,0.8a12.1,12.1,0,0,0-1.9.1c-2.2.1-4.4,0.1-6.6,0.1H30.3c0-.5-0.1-1.1-0.1-1.6-0.1-1.2-.1-2.4-0.2-3.6-0.2-4.4-.2-8.8-0.2-13.3,5.9,0.5,11.8.9,17.7,1.3m3.3,0.3L61.9,87a22.75,22.75,0,0,0,2.6.2c0.4,0,.7.1,1.1,0.1,0.8,0.1.7,0.1,0.7,0.8v13.2c0.1,0.4,0,.5-0.4.4-1.1.1-2.1,0.2-3.2,0.2-4,.3-7.9.5-11.9,0.7,0.1-5.4,0-11,0-16.5M66.6,108c0.1,3.6.2,7.2,0.3,10.9,0,0.9.1,1.8,0.1,2.7-0.9.1-1.8,0.1-2.7,0.2l-5.9.3c-1.8.1-3.7,0.1-5.5,0.1H51.7a9.15,9.15,0,0,0-.1-1.6c0-.9-0.1-1.8-0.1-2.7-0.1-3.8-.3-7.5-0.4-11.3,5.2,0.5,10.3,1,15.5,1.4m0.6,18.6,0.6,12.6c-4.8.1-9.7,0.1-14.5,0H52.5v-0.8c0-.6-0.1-1.3-0.1-1.9-0.1-1.3-.1-2.6-0.2-3.9-0.1-2.4-.2-4.9-0.4-7.3,5.2,0.5,10.3.9,15.4,1.3m26.4,0.6c3-.1,6-0.1,9-0.3-0.1,1.5-.1,3.1-0.2,4.6,0,0.7-.1,1.5-0.1,2.2a4.1,4.1,0,0,1-.1,1.1c0,0.7,0,.7-0.8.9q-4.8.9-9.6,1.5c0.7-3.3,1.3-6.6,1.8-10m19.6-1.2c1.7-.2,3.5-0.4,5.2-0.7-0.1,2.2-.3,4.4-0.6,6.7-2.2.6-4.4,1.2-6.7,1.7,0.8-2.5,1.5-5.1,2.1-7.7m-18.4-7.4c0.3-2.7.6-5.4,0.8-8.1a2.2,2.2,0,0,1,.1-0.8H103v6.6c0,0.5.2,0.7-.4,0.8q-4,.9-7.8,1.5m1.6-20.7c0.1-2.5.2-4.9,0.2-7.4,0.6,0.1,6.3.6,6.3,0.8v5.4c0.1,0.3-5.9,1.1-6.5,1.2M129.9,39c0.6,2.1,1.2,4.1,1.7,6.2a25,25,0,0,1-2.6-.7l-1.5-.3c-0.1-.5-0.3-1-0.4-1.5a55.18,55.18,0,0,0-1.8-5.3c1.5,0.6,3.1,1.1,4.6,1.6M114.3,22.1q1,3.45,1.8,6.9l-3.9-.9c-0.6-.1-1.2-0.3-1.9-0.4-0.4-.1-0.8-0.1-1.1-0.2a0.86,0.86,0,0,1-.7-0.8Q107,23,105.2,19.2c3.1,0.9,6.1,1.8,9.1,2.9m-13.8-3.9c0.4,2.7.8,5.5,1,8.3-3.4-.4-6.7-0.8-10.1-1-0.5,0-.7.1-0.9-0.4s-0.2-.8-0.3-1.1c-0.2-.9-0.4-1.8-0.6-2.6-0.4-1.7-.9-3.4-1.3-5.1a83.66,83.66,0,0,1,12.2,1.9M69.8,6.3c3.1,0,6.1.1,9.2,0.4L81.4,7c0.5,0.1,1,.1,1.5.2s1.1-.1,1.2.6c0.1,2.1.2,4.1,0.3,6.2-3.5-.2-7-0.3-10.4-0.3H71.3c-0.5,0-.8.2-0.8-0.4s-0.1-1-.1-1.6L69.8,6.3M53.5,15.7c5.1-.4,10.2-0.5,15.3-0.6-0.1,2.1-.3,4.1-0.4,6.2-0.1,1-.1,2.1-0.2,3.1,0,0.8,0,.8-0.8.8-0.6,0-1.2.1-1.8,0.1-4.3.2-8.6,0.6-12.9,1.1,0.2-3.6.5-7.2,0.8-10.7M33.8,30c5.5-.6,11-1,16.4-1.2-0.3,2.4-.5,4.8-0.8,7.2-0.1,1.3-.2,2.5-0.3,3.8-0.1.6-.1,1.3-0.2,1.9,0,0.4-.1.8-0.1,1.2-0.4,0-.7.1-1.1,0.1-5.2.6-10.5,1.2-15.7,1.9C32.6,40,33.2,35,33.8,30M32,46.2c5.6-.2,11.1-0.3,16.7-0.3-0.2,2.7-.3,5.5-0.5,8.2-0.1,1.4-.1,2.8-0.2,4.2,0,0.7-.1,1.3-0.1,2v1.2c-0.3,0-.7.1-1,0.1L30.6,63.1c0.3-5.6.8-11.3,1.4-16.9m-2.8,19c-0.4,5.6-.7,11.1-0.8,16.7v0.7c0,0.6-.2.4-0.7,0.4-0.7,0-1.5.1-2.2,0.1-1.4.1-2.7,0.1-4.1,0.1l-8.5.3c0.1-5.2.5-10.4,0.9-15.6,0.1-.6.1-1.3,0.2-1.9s-0.1-.8.5-0.8H29.2M13.6,102.7c-0.5-6.3-.9-12.6-0.8-18.9,2.8,0.1,5.6.2,8.5,0.4,1.4,0.1,2.7.1,4.1,0.2,0.6,0,1.2.1,1.8,0.1a4.1,4.1,0,0,1,1.1.1v1.2c0,5.8.1,11.5,0.5,17.3-5.1-.1-10.1-0.2-15.2-0.4m16.8,2c5.6,0.5,11.2,1.1,16.9,1.6,0.3,0,.5.1,0.8,0.1v1.2c0,0.6.1,1.3,0.1,1.9,0.1,1.4.1,2.8,0.2,4.3,0.2,2.8.3,5.6,0.5,8.5-5.7,0-11.4-.2-17.1-0.5-0.6-5.8-1.1-11.5-1.4-17.1m3.7,33.2c-0.8-5-1.5-9.9-2.1-14.9,5.2,0.7,10.4,1.3,15.6,1.9,0.3,0,.5.1,0.8,0.1,0.5,0.1.8-.1,0.8,0.5s0.1,1.3.2,1.9c0.1,1.3.2,2.6,0.3,3.8,0.2,2.6.5,5.3,0.8,7.9-5.5-.2-11-0.6-16.4-1.2m19.5,14.5c-0.3-3.8-.6-7.6-0.9-11.5,4.3,0.4,8.5.8,12.8,1,0.5,0,1,.1,1.4.1s1.1-.2,1.1.4c0.1,1.2.2,2.3,0.3,3.5,0.2,2.3.4,4.7,0.6,7-5.1.1-10.2-.1-15.3-0.5m30.9,8.2a113.2,113.2,0,0,1-14.3.7c0.1-1.7.3-3.4,0.4-5,0-.4.1-0.8,0.1-1.2,0.1-.8,0-0.8.8-0.8h2.6c3.6,0,7.2-.2,10.8-0.4-0.1,2.3-.2,4.5-0.4,6.7m3.8-9.2c0.5-1.6.9-3.2,1.3-4.8,0.2-.9.5-1.8,0.7-2.7,0.1-.4.2-0.8,0.3-1.1,0.2-.8.2-0.8,0.9-0.8q5.1-.3,10.2-0.9c-0.1,1.6-.3,3.2-0.5,4.9l-0.3,2.4c-0.1.5,0,.6-0.5,0.7l-1.5.3c-3.5.8-7,1.4-10.6,2m26.7-6.7c-3,1.1-6.1,2-9.2,2.9,1.1-2.4,2.1-4.8,3.1-7.3,0.2-.6,1.1-0.5,1.7-0.6a17.42,17.42,0,0,0,2.2-.5l3.9-.9c-0.5,2.1-1.1,4.3-1.7,6.4m14.9-16.9c-1.4.6-2.8,1.1-4.2,1.6,0.6-1.5,1.1-3,1.6-4.6,0.1-.4.2-0.7,0.3-1.1,0.2-.6.7-0.5,1.2-0.6a21.72,21.72,0,0,0,2.4-.7,42.65,42.65,0,0,1-1.3,5.4m-14.3-13.5c0.2-1.1.4-2.3,0.5-3.4,0.1-.5,0-1.5.6-1.6h0.7c0.5,0,.7-0.2.7,0.3,0.1,1.1.2,2.2,0.2,3.3v0.7c-0.3.1-.7,0.2-1,0.3a8.47,8.47,0,0,0-1.7.4" transform="translate(-8.2 -4.5)" style="fill:#fff"/></svg>