<svg id="Capa_1" data-name="Capa 1" xmlns="http://www.w3.org/2000/svg" viewBox="0 0 512 512"><title>ticket-ethemis</title><path d="M448.68,128.22l-10.61,10.61a45.89,45.89,0,0,1-64.9-64.9l10.61-10.61L320.46,0,0,320.46l63.32,63.32,10.61-10.61a45.89,45.89,0,0,1,64.9,64.9l-10.61,10.61L191.54,512,512,191.54ZM169.61,447.64A75.93,75.93,0,0,0,64.36,342.39L42.43,320.46l278-278,21.93,21.93A75.93,75.93,0,0,0,447.64,169.61l21.93,21.93-278,278Z" style="fill:#fff"/><rect x="284" y="197.94" width="30" height="30.12" transform="translate(-63.04 273.81) rotate(-45)" style="fill:#fff"/><rect x="241.4" y="155.33" width="30" height="30.12" transform="translate(-45.38 231.21) rotate(-45)" style="fill:#fff"/><rect x="326.6" y="240.54" width="30" height="30.12" transform="translate(-80.69 316.42) rotate(-45)" style="fill:#fff"/></svg>